<?xml version="1.0" encoding="UTF-8"?>
<svg width="18px" height="18px" viewBox="0 0 18 18" version="1.1" xmlns="http://www.w3.org/2000/svg" xmlns:xlink="http://www.w3.org/1999/xlink">
    <!-- Generator: Sketch 46.2 (44496) - http://www.bohemiancoding.com/sketch -->
    <title>Group 395 Copy 5</title>
    <desc>Created with Sketch.</desc>
    <defs></defs>
    <g id="Page-1" stroke="none" stroke-width="1" fill="none" fill-rule="evenodd">
        <g id="Index-desktop" transform="translate(-779.000000, -3341.000000)" fill="#3B579D">
            <g id="Group-7" transform="translate(622.000000, 3339.000000)">
                <g id="Group-395-Copy-5" transform="translate(157.000000, 2.000000)">
                    <path d="M16.125075,0.375 L1.875075,0.375 C1.046325,0.375 0.375075,1.04625 0.375075,1.875 L0.375075,16.125 C0.375075,16.95375 1.046325,17.625 1.875075,17.625 L10.125075,17.625 L10.125075,10.875 L7.875075,10.875 L7.875075,8.625 L10.125075,8.625 L10.125075,6.375 C10.125075,4.30425 11.804325,2.625 13.875075,2.625 L15.375075,2.625 L15.375075,4.875 L13.875075,4.875 C13.046325,4.875 12.375075,5.54625 12.375075,6.375 L12.375075,8.625 L15.375075,8.625 L14.625075,10.875 L12.375075,10.875 L12.375075,17.625 L16.125075,17.625 C16.953825,17.625 17.625075,16.95375 17.625075,16.125 L17.625075,1.875 C17.625075,1.04625 16.953825,0.375 16.125075,0.375 L16.125075,0.375 Z" id="Stroke-33"></path>
                </g>
            </g>
        </g>
    </g>
</svg>