<?xml version="1.0" encoding="UTF-8"?>
<svg viewBox="0 0 40 32" version="1.1" xmlns="http://www.w3.org/2000/svg" xmlns:xlink="http://www.w3.org/1999/xlink">
    <!-- Generator: Sketch 46.2 (44496) - http://www.bohemiancoding.com/sketch -->
    <title>Group Copy</title>
    <desc>Created with Sketch.</desc>
    <defs></defs>
    <g id="Page-1" stroke="none" stroke-width="1" fill-rule="evenodd">
        <g id="Order-desktop" transform="translate(-199.000000, -829.000000)" fill-rule="nonzero">
            <g id="Group-Copy" transform="translate(200.000000, 830.000000)">
                <path d="M11.9219517,14.854371 C11.8131849,14.7658289 11.7466056,14.6356763 11.7384559,14.4956638 C11.7338674,14.4168346 11.7284442,14.3458943 11.7171704,14.210792 C11.6905496,13.8920544 11.6819222,13.7531613 11.6819222,13.5696759 C11.6819222,8.13680803 14.327884,3.09400688 18.8370167,-0.39542589 C19.0171945,-0.534858037 19.2688467,-0.534858037 19.4490245,-0.39542589 C23.9581572,3.09400688 26.604119,8.13680803 26.604119,13.5696759 C26.604119,13.7581489 26.5947017,13.9070144 26.5688255,14.2069093 C26.5545359,14.3724472 26.549127,14.4398693 26.5439859,14.522553 C26.5353601,14.6612813 26.4693759,14.7901582 26.3618666,14.8782587 C25.8477997,15.2995204 25.3581329,15.7470732 24.8918753,16.2238749 C22.1014737,19.0773794 20.3554673,22.7092661 19.8211173,26.6075188 C19.8033303,26.7372804 19.7353373,26.854882 19.6317561,26.9350404 C19.6166535,26.9467278 19.6062972,26.955604 19.5662282,26.991036 C19.5175432,27.0343527 19.4875831,27.0600309 19.4490273,27.0898682 C19.2710765,27.227579 19.0230591,27.2294584 18.8430418,27.0944604 C18.8070977,27.0675053 18.7796349,27.0442975 18.7371598,27.0066914 C18.7011022,26.9749776 18.6962919,26.9708811 18.6886198,26.9649294 C18.5851266,26.8846418 18.5172718,26.7669483 18.4996452,26.6371553 C17.968517,22.7261953 16.2213439,19.0829541 13.4254908,16.2238749 C12.9544918,15.7422246 12.4546473,15.2880144 11.9219517,14.854371 Z M24.1769073,15.5247177 C24.6186446,15.0729909 25.0802004,14.6462149 25.5621673,14.242252 C25.5648059,14.210735 25.5678388,14.1752596 25.5714019,14.1339837 C25.5960068,13.8488264 25.604119,13.7205918 25.604119,13.5696759 C25.604119,8.58012535 23.2277919,3.93085774 19.1430206,0.63715213 C15.0582492,3.93085774 12.6819222,8.58012535 12.6819222,13.5696759 C12.6819222,13.7163528 12.6893671,13.8362076 12.7122469,14.1101504 C12.7164559,14.1605786 12.7188849,14.1900305 12.7210592,14.216946 C13.2201861,14.6323076 13.6923883,15.0665144 14.1404589,15.5247177 C16.6519447,18.092999 18.3610188,21.2616556 19.158147,24.6920668 C19.9545334,21.2627197 21.6642448,18.0942023 24.1769073,15.5247177 Z M18.8520092,26.3183977 C18.8446021,26.3694595 18.8373928,26.4205654 18.8303816,26.4717145 L19.3257494,26.5396167 L19.0197428,26.1441929 C18.9811869,26.1740302 18.9512268,26.1997085 18.9025418,26.2430251 C18.8801804,26.2627987 18.8670729,26.2743016 18.85723,26.2826382 C18.8494355,26.2892397 18.8436882,26.2938557 18.8370139,26.2990207 L19.1430206,26.6944444 L19.4429994,26.2944285 C19.4347926,26.2882741 19.4298343,26.284084 19.3996529,26.2576234 L19.3892363,26.2484081 C19.3530207,26.2164087 19.3307724,26.1974623 19.3015747,26.1748114 L18.9950973,26.5698704 L19.4905493,26.5025855 C19.4076773,25.892358 19.2966849,25.2882592 19.158147,24.6920668 C19.0363458,25.2165594 18.9359085,25.7471531 18.85723,26.2826382 C18.855479,26.2945556 18.8537387,26.3064755 18.8520092,26.3183977 Z" id="Stroke-1415"></path>
                <path d="M4.72136692,25.1209895 C0.91594967,21.2277706 -0.78988598,16.242403 -0.460184122,10.6879687 C-0.44520808,10.4356697 -0.24430761,10.2342207 0.00794958143,10.2185568 C5.4465337,9.8808485 10.3302385,11.6283321 14.1376296,15.5218245 C18.0120804,19.4838931 19.9616307,24.8502963 19.6393134,30.2822069 C19.6243381,30.5345814 19.4233303,30.7360665 19.1709921,30.7516405 C13.8524858,31.0798916 8.59798958,29.0835022 4.72136692,25.1209895 Z M5.43633495,24.4218324 C8.99970624,28.0641533 13.7856905,29.9503808 18.6622255,29.7753608 C18.8382273,24.7755501 16.991231,19.8702516 13.4226616,16.2209816 C9.92892848,12.6482404 5.49177636,10.9933442 0.516084207,11.1937801 C0.317167231,16.2950135 1.93730976,20.8420748 5.43633495,24.4218324 Z" id="Stroke-1417"></path>
                <path d="M32.8802877,24.4217523 C36.3806354,20.8422468 38.0011317,16.2954442 37.8022006,11.1937864 C32.8249968,10.9933215 28.3877691,12.6480836 24.8938827,16.2209816 C21.3253133,19.8702517 19.4783169,24.7755502 19.6543187,29.775361 C24.5314485,29.9504062 29.3187425,28.0638392 32.8802877,24.4217523 Z M19.1455522,30.7516405 C18.8932139,30.7360665 18.6922062,30.5345814 18.6772308,30.2822069 C18.3549136,24.8502963 20.3044639,19.4838931 24.1789147,15.5218245 C27.9864398,11.6281949 32.8701662,9.88086728 38.3103242,10.2185562 C38.5625859,10.2342149 38.7634924,10.4356656 38.7784687,10.6879687 C39.1082021,16.2429359 37.4019801,21.2280987 33.5952557,25.1209094 C29.7206442,29.0831424 24.4646319,31.079927 19.1455522,30.7516405 Z" id="Stroke-1419"></path>
            </g>
        </g>
    </g>
</svg>