<?xml version="1.0" encoding="UTF-8"?><!DOCTYPE svg PUBLIC "-//W3C//DTD SVG 1.1//EN" "http://www.w3.org/Graphics/SVG/1.1/DTD/svg11.dtd"><svg xmlns="http://www.w3.org/2000/svg" xmlns:xlink="http://www.w3.org/1999/xlink"><defs><path id="icon-print-a" d="M0 0h17.116v18H0z"/><path id="icon-search-a" d="M0 17.424V0h17.135v17.424z"/></defs><symbol id="check-blue" viewBox="0 0 26 26"><path fill="none" stroke="#256386" stroke-linecap="round" stroke-linejoin="round" stroke-width="4" d="M2 16.419L7.284 24 24 2"/></symbol><symbol id="icon-close-big" viewBox="0 0 35 35"><path fill-rule="evenodd" d="M27.901 27.893A14.62 14.62 0 0 1 17.5 32.2c-3.927 0-7.62-1.528-10.396-4.304A14.605 14.605 0 0 1 2.8 17.5c0-3.928 1.53-7.62 4.306-10.396A14.612 14.612 0 0 1 17.503 2.8 14.61 14.61 0 0 1 27.9 7.104c5.733 5.732 5.733 15.057.001 20.79m1.981-22.77A17.393 17.393 0 0 0 17.504 0 17.384 17.384 0 0 0 5.128 5.124 17.379 17.379 0 0 0 0 17.5a17.373 17.373 0 0 0 5.125 12.376A17.384 17.384 0 0 0 17.501 35c4.677 0 9.074-1.82 12.383-5.127 6.822-6.823 6.821-17.925-.002-24.749m-9.308 7.21L17.5 15.408l-3.074-3.074a1.478 1.478 0 0 0-2.092 0 1.478 1.478 0 0 0 0 2.093l3.074 3.073-3.074 3.074A1.478 1.478 0 0 0 13.38 23.1c.379 0 .756-.145 1.046-.434l3.074-3.073 3.074 3.073a1.476 1.476 0 0 0 2.092 0 1.478 1.478 0 0 0 0-2.092L19.592 17.5l3.074-3.073a1.478 1.478 0 0 0 0-2.093 1.478 1.478 0 0 0-2.092 0z"/></symbol><symbol id="icon-close-x" viewBox="0 0 12 12"><path fill="#009B65" fill-rule="evenodd" d="M8.674.434L5.6 3.508 2.526.434a1.478 1.478 0 0 0-2.092 0 1.478 1.478 0 0 0 0 2.093L3.508 5.6.434 8.674A1.478 1.478 0 0 0 1.48 11.2c.379 0 .756-.145 1.046-.434L5.6 7.693l3.074 3.073a1.476 1.476 0 0 0 2.092 0 1.478 1.478 0 0 0 0-2.092L7.692 5.6l3.074-3.073a1.478 1.478 0 0 0 0-2.093 1.478 1.478 0 0 0-2.092 0z"/></symbol><symbol id="icon-close" viewBox="0 0 35 35"><path fill="#256386" fill-rule="evenodd" d="M27.901 27.893A14.62 14.62 0 0 1 17.5 32.2c-3.927 0-7.62-1.528-10.396-4.304A14.605 14.605 0 0 1 2.8 17.5c0-3.928 1.53-7.62 4.306-10.396A14.612 14.612 0 0 1 17.503 2.8 14.61 14.61 0 0 1 27.9 7.104c5.733 5.732 5.733 15.057.001 20.79m1.981-22.77A17.393 17.393 0 0 0 17.504 0 17.384 17.384 0 0 0 5.128 5.124 17.379 17.379 0 0 0 0 17.5a17.372 17.372 0 0 0 5.125 12.376A17.384 17.384 0 0 0 17.501 35c4.677 0 9.074-1.82 12.383-5.127 6.822-6.823 6.821-17.925-.002-24.749m-9.308 7.21L17.5 15.408l-3.074-3.074a1.478 1.478 0 0 0-2.092 0 1.478 1.478 0 0 0 0 2.093l3.074 3.073-3.074 3.074A1.478 1.478 0 0 0 13.38 23.1c.379 0 .756-.145 1.046-.434l3.074-3.073 3.074 3.073a1.476 1.476 0 0 0 2.092 0 1.478 1.478 0 0 0 0-2.092L19.592 17.5l3.074-3.073a1.478 1.478 0 0 0 0-2.093 1.478 1.478 0 0 0-2.092 0z"/></symbol><symbol id="icon-comments" viewBox="0 0 19 17"><g fill="none" fill-rule="evenodd" stroke="#27D276" stroke-linejoin="round"><path stroke-width="1.5" d="M1.777 12.47a.9.9 0 0 1-.887-.911V1.816a.9.9 0 0 1 .887-.912h15.447a.9.9 0 0 1 .886.912v9.743a.9.9 0 0 1-.886.911H8.607l-3.964 3.619V12.47H1.777z"/><path stroke-linecap="round" d="M4.75 4.857h9.5M4.75 8.5h9.5"/></g></symbol><symbol id="icon-drop" viewBox="0 0 10 5"><path fill="#3C4454" fill-rule="evenodd" d="M0 0l5.025 5L10 0H8.56L5.026 3.604h-.05L1.44 0z"/></symbol><symbol id="icon-eye" viewBox="0 0 20 12"><g fill="none" fill-rule="evenodd" stroke="#27D276" stroke-linejoin="round" stroke-width="1.5"><path d="M18.75 5.75s-4.029 5-9 5-9-5-9-5 4.029-5 9-5 9 5 9 5z"/><path d="M6.75 5.75a3 3 0 1 1 6 0 3 3 0 0 1-6 0z"/></g></symbol><symbol id="icon-favorite" viewBox="0 0 19 18"><path fill="#787886" fill-rule="evenodd" d="M9.5 12.61c.155 0 .31.048.442.143l3.534 2.547-1.35-4.12a.746.746 0 0 1 .272-.836l3.535-2.547h-4.369a.752.752 0 0 1-.715-.515L9.5 3.16 8.15 7.282a.75.75 0 0 1-.715.515h-4.37l3.536 2.547c.264.19.375.527.273.835L5.523 15.3l3.534-2.547a.755.755 0 0 1 .443-.142M14.906 18a.757.757 0 0 1-.441-.143L9.5 14.278l-4.966 3.58a.755.755 0 0 1-.883 0 .746.746 0 0 1-.274-.835l1.898-5.79L.309 7.655a.745.745 0 0 1 .442-1.35h6.137L8.785.515A.752.752 0 0 1 9.5 0a.75.75 0 0 1 .715.515l1.896 5.79h6.137a.75.75 0 0 1 .715.516.74.74 0 0 1-.273.834l-4.966 3.578 1.898 5.79a.741.741 0 0 1-.274.834.754.754 0 0 1-.442.143" opacity=".5"/></symbol><symbol id="icon-fb" viewBox="0 0 7 15"><path fill="#787886" fill-opacity=".5" fill-rule="evenodd" d="M4.544 15V8.158h2.063l.31-2.667H4.543V3.79c0-.772.192-1.298 1.187-1.298L7 2.49V.105A15.28 15.28 0 0 0 5.151 0c-1.83 0-3.082 1.243-3.082 3.525V5.49H0v2.667h2.07V15h2.474z"/></symbol><symbol id="icon-like-green" viewBox="0 0 18 19"><path d="M7.893 16.226l-4.425 1.29L.861 8.585l4.425-1.291 2.607 8.933zm8.453-6.721c.092.211.133.436.119.653a1.44 1.44 0 0 1-.712 1.16c.019.107.024.203.02.33a1.464 1.464 0 0 1-.976 1.284c-.016.137-.047.27-.092.396l-.1.187c-.231.315-.717.463-1.33.463a4.04 4.04 0 0 1-.504-.034c-.368-.048-.788-.087-1.927-.182l-1.157-.1a12.51 12.51 0 0 0-1.102-.055c-.094 0-.17-.002-.306-.006a5.63 5.63 0 0 0-.269-.005c-.054 0-.101.003-.146.008l-.617.06-1.582-5.356.353-.317C7.092 7.03 8.454 5.41 8.95 4.498a.042.042 0 0 0 .004-.009c.242-.784.293-1.726.229-2.584l-.046-.612.59-.166c.15-.042.33-.073.483-.084l.295-.022.23.186c.518.419.814 1.511.703 2.872a7.683 7.683 0 0 1-.065.52l-.001.008-.028.192c-.01.071-.02.137-.025.182a9.41 9.41 0 0 0-.034.75.321.321 0 0 0 .106.236c.1.105.204.17.537.27.6.181 1.554.29 2.939.29l.227-.001.1-.002c.947 0 1.716.77 1.716 1.718 0 .481-.204.933-.564 1.263z" fill="none" fill-rule="evenodd" stroke="#27D276" stroke-linejoin="round" stroke-width="1.5"/></symbol><symbol id="icon-like-white" viewBox="0 0 18 19"><path d="M7.893 16.226l-4.425 1.29L.861 8.585l4.425-1.291 2.607 8.933zm8.453-6.721c.092.211.133.436.119.653a1.44 1.44 0 0 1-.712 1.16c.019.107.024.203.02.33a1.464 1.464 0 0 1-.976 1.284c-.016.137-.047.27-.092.396l-.1.187c-.231.315-.717.463-1.33.463a4.04 4.04 0 0 1-.504-.034c-.368-.048-.788-.087-1.927-.182l-1.157-.1a12.51 12.51 0 0 0-1.102-.055c-.094 0-.17-.002-.306-.006a5.63 5.63 0 0 0-.269-.005c-.054 0-.101.003-.146.008l-.617.06-1.582-5.356.353-.317C7.092 7.03 8.454 5.41 8.95 4.498a.042.042 0 0 0 .004-.009c.242-.784.293-1.726.229-2.584l-.046-.612.59-.166c.15-.042.33-.073.483-.084l.295-.022.23.186c.518.419.814 1.511.703 2.872a7.683 7.683 0 0 1-.065.52l-.001.008-.028.192c-.01.071-.02.137-.025.182a9.41 9.41 0 0 0-.034.75.321.321 0 0 0 .106.236c.1.105.204.17.537.27.6.181 1.554.29 2.939.29l.227-.001.1-.002c.947 0 1.716.77 1.716 1.718 0 .481-.204.933-.564 1.263z" fill="none" fill-rule="evenodd" stroke="#fff" stroke-linejoin="round" stroke-width="1.5"/></symbol><symbol id="icon-like" viewBox="0 0 18 19"><path d="M7.893 16.226l-4.425 1.29L.861 8.585l4.425-1.291 2.607 8.933zm8.453-6.721c.092.211.133.436.119.653a1.44 1.44 0 0 1-.712 1.16c.019.107.024.203.02.33a1.464 1.464 0 0 1-.976 1.284c-.016.137-.047.27-.092.396l-.1.187c-.231.315-.717.463-1.33.463a4.04 4.04 0 0 1-.504-.034c-.368-.048-.788-.087-1.927-.182l-1.157-.1a12.51 12.51 0 0 0-1.102-.055c-.094 0-.17-.002-.306-.006a5.63 5.63 0 0 0-.269-.005c-.054 0-.101.003-.146.008l-.617.06-1.582-5.356.353-.317C7.092 7.03 8.454 5.41 8.95 4.498a.042.042 0 0 0 .004-.009c.242-.784.293-1.726.229-2.584l-.046-.612.59-.166c.15-.042.33-.073.483-.084l.295-.022.23.186c.518.419.814 1.511.703 2.872a7.683 7.683 0 0 1-.065.52l-.001.008-.028.192c-.01.071-.02.137-.025.182a9.41 9.41 0 0 0-.034.75.321.321 0 0 0 .106.236c.1.105.204.17.537.27.6.181 1.554.29 2.939.29l.227-.001.1-.002c.947 0 1.716.77 1.716 1.718 0 .481-.204.933-.564 1.263z" fill="none" fill-rule="evenodd" stroke="#787886" stroke-linejoin="round" stroke-width="1.5" opacity=".5"/></symbol><symbol id="icon-ok" viewBox="0 0 11 18"><path fill="#787886" fill-opacity=".5" fill-rule="evenodd" d="M10.835 9.667c-.261-.517-.985-.946-1.947-.2-1.3 1.008-3.388 1.008-3.388 1.008s-2.088 0-3.388-1.008C1.15 8.72.426 9.15.165 9.667c-.456.9.059 1.336 1.22 2.07.993.627 2.356.861 3.236.949l-.735.723-2.727 2.685a1.033 1.033 0 0 0 0 1.477l.125.123a1.073 1.073 0 0 0 1.5 0l2.728-2.684 2.728 2.684a1.073 1.073 0 0 0 1.5 0l.126-.123a1.033 1.033 0 0 0 0-1.477L6.4 12.684c.881-.09 2.23-.325 3.213-.947 1.162-.734 1.677-1.17 1.221-2.07zM5.5 2.314c1.258 0 2.277 1.004 2.277 2.242 0 1.237-1.02 2.24-2.277 2.24-1.258 0-2.277-1.003-2.277-2.24 0-1.238 1.02-2.242 2.277-2.242zm0 6.797c2.556 0 4.628-2.04 4.628-4.555C10.128 2.04 8.056 0 5.5 0S.872 2.04.872 4.556 2.944 9.11 5.5 9.11z"/></symbol><symbol id="icon-play-white" viewBox="0 0 512 512"><path d="M152.443 136.417L359.557 255.99 152.443 375.583z" fill="#fff"/></symbol><symbol id="icon-print" viewBox="0 0 18 18"><g fill="none" fill-rule="evenodd" opacity=".5"><mask id="icon-print-b" fill="#fff"><use xlink:href="#icon-print-a"/></mask><path fill="#787886" d="M16.116 12.545a.495.495 0 0 1-.495.495H13.9V8.779H3.216v4.26H1.494A.495.495 0 0 1 1 12.546V5.942c0-.273.221-.495.494-.495h14.127c.273 0 .495.222.495.495v6.603zm-3.217 4.25a.205.205 0 0 1-.204.205H4.42a.204.204 0 0 1-.204-.204V9.779H12.9v7.017zM4.254 1l8.645.037v3.41H4.22L4.254 1zm11.367 3.447H13.9v-3.41C13.9.465 13.434 0 12.862 0H4.254c-.573 0-1.038.465-1.038 1.037v3.41H1.494C.67 4.447 0 5.117 0 5.942v6.603c0 .824.67 1.495 1.494 1.495h1.722v2.756c0 .664.54 1.204 1.204 1.204h8.275c.664 0 1.204-.54 1.204-1.204V14.04h1.722c.824 0 1.495-.671 1.495-1.495V5.942c0-.824-.67-1.495-1.495-1.495z" mask="url(#icon-print-b)"/><path fill="#787886" d="M5.986 11.738h5.144a.5.5 0 0 0 0-1H5.986a.5.5 0 0 0 0 1m0 2.066h5.144a.5.5 0 0 0 0-1H5.986a.5.5 0 0 0 0 1m0 2.022h5.144a.5.5 0 0 0 0-1H5.986a.5.5 0 0 0 0 1M2.567 6.334a.602.602 0 1 0 .003 1.205.602.602 0 0 0-.003-1.205"/></g></symbol><symbol id="icon-search" viewBox="0 0 18 18"><g fill="none" fill-rule="evenodd"><mask id="icon-search-b" fill="#fff"><use xlink:href="#icon-search-a"/></mask><path fill="#256386" d="M7.475 13.452A5.983 5.983 0 0 1 1.5 7.48 5.986 5.986 0 0 1 7.477 1.5a5.986 5.986 0 0 1 5.977 5.978 5.984 5.984 0 0 1-5.979 5.975m9.44 2.692l-3.787-3.787a7.438 7.438 0 0 0 1.826-4.88C14.953 3.354 11.598 0 7.477 0 3.355 0 0 3.356 0 7.48c0 4.12 3.355 7.471 7.475 7.471a7.435 7.435 0 0 0 4.562-1.565l3.818 3.818a.748.748 0 0 0 1.06 0 .75.75 0 0 0 0-1.06M2.522 7.474h.75A4.21 4.21 0 0 1 7.477 3.27v-.75a4.96 4.96 0 0 0-4.955 4.955" mask="url(#icon-search-b)"/></g></symbol><symbol id="icon-views" viewBox="0 0 14 15"><path fill="#27D276" fill-rule="evenodd" d="M1.485 1.408c.002.022-.016.083-.016.191v11.804c0 .096.014.155.026.187a.64.64 0 0 0 .184-.072l10.677-5.903a.539.539 0 0 0 .165-.123c-.02-.009-.067-.055-.164-.107L1.677 1.482a.581.581 0 0 0-.192-.074M1.462 15C.602 15 0 14.344 0 13.403V1.6C0 .657.602 0 1.462 0c.314 0 .633.09.95.264l10.679 5.903c.578.318.909.804.909 1.332 0 .53-.331 1.015-.91 1.334L2.413 14.736a1.96 1.96 0 0 1-.95.264"/></symbol><symbol id="icon-vk" viewBox="0 0 17 11"><path fill="#787886" fill-opacity=".5" fill-rule="evenodd" d="M16.585.754c.074-.41-.09-.64-.475-.64h-1.943c-.445 0-.609.214-.742.525 0 0-1.05 2.474-2.329 4.033-.41.504-.619.656-.846.656-.182 0-.267-.168-.267-.623V.72c0-.556-.059-.72-.473-.72H6.394c-.238 0-.386.153-.386.36 0 .525.727.644.727 2.066v2.935c0 .59-.03.82-.282.82-.668 0-2.255-2.542-3.145-5.427C3.13.164 2.938 0 2.433 0H.49C.208 0 0 .213 0 .524c0 .574.608 3.23 2.997 6.788C4.599 9.705 6.705 11 8.604 11c1.157 0 1.439-.213 1.439-.754V8.41c0-.46.163-.656.4-.656.267 0 .739.095 1.84 1.295C13.588 10.426 13.677 11 14.389 11h2.18c.223 0 .431-.115.431-.525 0-.54-.638-1.508-1.617-2.655-.4-.59-1.053-1.23-1.26-1.525-.297-.344-.209-.541 0-.902 0 0 2.24-3.491 2.462-4.639z"/></symbol><symbol id="icon-x-white" viewBox="0 0 7 7"><path fill="#FFF" fill-rule="evenodd" d="M5.421.271L3.5 2.192 1.579.272A.924.924 0 1 0 .271 1.578L2.192 3.5.272 5.421A.924.924 0 1 0 1.578 6.73L3.5 4.808l1.921 1.921a.922.922 0 0 0 1.308 0 .924.924 0 0 0 0-1.308l-1.921-1.92 1.92-1.922A.924.924 0 1 0 5.422.271z"/></symbol><symbol id="icon-x" viewBox="0 0 7 7"><path fill="#3C4454" fill-rule="evenodd" d="M5.421.271L3.5 2.192 1.579.272A.924.924 0 1 0 .271 1.578L2.192 3.5.272 5.421A.924.924 0 1 0 1.578 6.73L3.5 4.808l1.921 1.921a.922.922 0 0 0 1.308 0 .924.924 0 0 0 0-1.308l-1.921-1.92 1.92-1.922A.924.924 0 1 0 5.422.271z"/></symbol><symbol id="path-check-green" viewBox="0 0 13 12"><path fill="none" stroke="#27D276" stroke-linecap="round" stroke-linejoin="round" stroke-width="1.5" d="M1 6.52L4.122 11 12 1"/></symbol></svg>