<svg width="19px" height="18px" viewBox="0 0 19 18" version="1.1" xmlns="http://www.w3.org/2000/svg" xmlns:xlink="http://www.w3.org/1999/xlink">
    <!-- Generator: sketchtool 51.2 (57519) - http://www.bohemiancoding.com/sketch -->
    <title>F08CB689-57E9-465B-B4D5-EB287949115B</title>
    <desc>Created with sketchtool.</desc>
    <defs></defs>
    <g id="xizal" stroke="none" stroke-width="1" fill-rule="evenodd">
        <g id="6_xizal_video_single" transform="translate(-678.000000, -1049.000000)">
            <g id="Group-2" transform="translate(276.000000, 1039.000000)">
                <path d="M411.499581,22.6105361 C411.655219,22.6105361 411.809354,22.6575291 411.941684,22.753007 L415.47626,25.3003263 L414.125136,21.1791142 C414.025137,20.871049 414.135663,20.5346387 414.398068,20.3444289 L417.933395,17.7971096 L413.564236,17.7971096 C413.238673,17.7971096 412.950704,17.5889977 412.8492,17.2816783 L411.499581,13.1604662 L410.149961,17.2816783 C410.049961,17.5889977 409.760488,17.7971096 409.434925,17.7971096 L405.065766,17.7971096 L408.601093,20.3444289 C408.865002,20.5346387 408.975528,20.871049 408.874025,21.1791142 L407.522901,25.3003263 L411.057477,22.753007 C411.189807,22.6575291 411.345446,22.6105361 411.499581,22.6105361 M416.906331,27.9998135 C416.752196,27.9998135 416.596557,27.9520746 416.464979,27.8573427 L411.499581,24.2784149 L406.534183,27.8573427 C406.270274,28.0475524 405.914636,28.0475524 405.650727,27.8573427 C405.38757,27.6671329 405.277796,27.3307226 405.377043,27.0234033 L407.274782,21.2328205 L402.309384,17.6546387 C402.046979,17.4644289 401.936453,17.1280186 402.036452,16.8206993 C402.137956,16.51338 402.425925,16.3052681 402.751488,16.3052681 L408.888311,16.3052681 L410.784545,10.5154312 C410.886049,10.2081119 411.173266,10 411.499581,10 C411.825895,10 412.114616,10.2081119 412.214616,10.5154312 L414.110851,16.3052681 L420.247674,16.3052681 C420.573236,16.3052681 420.862709,16.51338 420.962709,16.8206993 C421.064212,17.1280186 420.953686,17.4644289 420.689777,17.6546387 L415.724379,21.2328205 L417.622118,27.0234033 C417.722869,27.3307226 417.613095,27.6671329 417.348434,27.8573427 C417.217608,27.9520746 417.061969,27.9998135 416.906331,27.9998135" id="icon_favorite"></path>
            </g>
        </g>
    </g>
</svg>