<?xml version="1.0" encoding="UTF-8"?>
<svg width="17px" height="17px" viewBox="0 0 17 17" version="1.1" xmlns="http://www.w3.org/2000/svg" xmlns:xlink="http://www.w3.org/1999/xlink">
    <!-- Generator: Sketch 46.2 (44496) - http://www.bohemiancoding.com/sketch -->
    <title>Combined Shape Copy</title>
    <desc>Created with Sketch.</desc>
    <defs></defs>
    <g id="Page-1" stroke="none" stroke-width="1" fill="none" fill-rule="evenodd">
        <g id="Contacts" transform="translate(-132.000000, -641.000000)" fill="#22223C">
            <path d="M143.149258,651.94548 C143.528697,651.566041 144.093018,651.434896 144.589967,651.605314 C145.542376,651.919949 146.559397,652.083779 147.587948,652.083779 C148.365778,652.083779 149,652.718 149,653.495831 L149,656.587948 C149,657.365778 148.365778,658 147.587948,658 C138.977935,658 132,651.022065 132,642.412052 C132,641.634222 132.634222,641 133.412052,641 L136.513029,641 C137.29086,641 137.925081,641.634222 137.925081,642.412052 C137.925081,643.446125 138.08784,644.454381 138.405896,645.417322 C138.564353,645.921505 138.436202,646.46906 138.10234,646.795789 L136.690198,648.665714 C137.83052,650.800322 139.187937,652.155915 141.335669,653.309568 L143.149258,651.94548 Z M141.70302,654.349767 L143.838265,652.737259 C143.988801,652.593855 144.132134,652.560545 144.254338,652.602444 C145.318761,652.954119 146.447195,653.135896 147.587948,653.135896 C147.78471,653.135896 147.947883,653.299068 147.947883,653.495831 L147.947883,656.587948 C147.947883,656.78471 147.78471,656.947883 147.587948,656.947883 C139.559003,656.947883 133.052117,650.440997 133.052117,642.412052 C133.052117,642.21529 133.21529,642.052117 133.412052,642.052117 L136.513029,642.052117 C136.709792,642.052117 136.872964,642.21529 136.872964,642.412052 C136.872964,643.558444 137.053706,644.678106 137.404532,645.740065 C137.44437,645.867009 137.411992,646.005352 137.310561,646.106783 L135.650233,648.29698 C135.528969,648.457555 135.509926,648.673236 135.60118,648.852575 C136.923867,651.452022 138.533416,653.059489 141.146112,654.39815 C141.325667,654.490148 141.542021,654.471352 141.70302,654.349767 Z" id="Combined-Shape-Copy"></path>
        </g>
    </g>
</svg>