<svg xmlns="http://www.w3.org/2000/svg" width="19" height="18" viewBox="0 0 19 18">
    <path d="M9.5 12.61c.155 0 .31.048.442.143l3.534 2.547-1.35-4.12a.746.746 0 0 1 .272-.836l3.535-2.547h-4.369a.752.752 0 0 1-.715-.515L9.5 3.16 8.15 7.282a.75.75 0 0 1-.715.515h-4.37l3.536 2.547c.264.19.375.527.273.835L5.523 15.3l3.534-2.547a.755.755 0 0 1 .443-.142M14.906 18a.757.757 0 0 1-.441-.143L9.5 14.278l-4.966 3.58a.755.755 0 0 1-.883 0 .746.746 0 0 1-.274-.835l1.898-5.79L.309 7.655a.745.745 0 0 1 .442-1.35h6.137L8.785.515A.752.752 0 0 1 9.5 0a.75.75 0 0 1 .715.515l1.896 5.79h6.137a.75.75 0 0 1 .715.516.74.74 0 0 1-.273.834l-4.966 3.578 1.898 5.79a.741.741 0 0 1-.274.834.754.754 0 0 1-.442.143" opacity=".5"/>
</svg>
