<svg xmlns="http://www.w3.org/2000/svg" width="17" height="11" viewBox="0 0 17 11">
    <path fill-rule="evenodd" d="M16.585.754c.074-.41-.09-.64-.475-.64h-1.943c-.445 0-.609.214-.742.525 0 0-1.05 2.474-2.329 4.033-.41.504-.619.656-.846.656-.182 0-.267-.168-.267-.623V.72C9.983.164 9.924 0 9.51 0H6.394c-.238 0-.386.153-.386.36 0 .525.727.644.727 2.066v2.935c0 .59-.03.82-.282.82-.668 0-2.255-2.542-3.145-5.427C3.13.164 2.938 0 2.433 0H.49C.208 0 0 .213 0 .524c0 .574.608 3.23 2.997 6.788C4.599 9.705 6.705 11 8.604 11c1.157 0 1.439-.213 1.439-.754V8.41c0-.46.163-.656.4-.656.267 0 .739.095 1.84 1.295C13.588 10.426 13.677 11 14.389 11h2.18c.223 0 .431-.115.431-.525 0-.54-.638-1.508-1.617-2.655-.4-.59-1.053-1.23-1.26-1.525-.297-.344-.209-.541 0-.902 0 0 2.24-3.491 2.462-4.639z"/>
</svg>
