<?xml version="1.0" encoding="UTF-8"?>
<svg width="20px" height="14px" viewBox="0 0 20 14" version="1.1" xmlns="http://www.w3.org/2000/svg" xmlns:xlink="http://www.w3.org/1999/xlink">
    <!-- Generator: Sketch 46.2 (44496) - http://www.bohemiancoding.com/sketch -->
    <title>Group 9 Copy</title>
    <desc>Created with Sketch.</desc>
    <defs></defs>
    <g id="Page-1" stroke="none" stroke-width="1" fill="none" fill-rule="evenodd">
        <g id="Contacts" transform="translate(-131.000000, -599.000000)" fill-rule="nonzero" fill="#000000">
            <g id="Group-9-Copy" transform="translate(131.000000, 599.000000)">
                <path d="M17.0833333,12.0144231 C17.6200187,12.0144231 18.0482456,11.5891996 18.0482456,11.0721154 L18.0482456,2.92788462 C18.0482456,2.41080039 17.6200187,1.98557692 17.0833333,1.98557692 L2.91666667,1.98557692 C2.37998125,1.98557692 1.95175439,2.41080039 1.95175439,2.92788462 L1.95175439,11.0721154 C1.95175439,11.5891996 2.37998125,12.0144231 2.91666667,12.0144231 L17.0833333,12.0144231 Z M17.0833333,13.0913462 L2.91666667,13.0913462 C1.80554506,13.0913462 0.899122807,12.1912812 0.899122807,11.0721154 L0.899122807,2.92788462 C0.899122807,1.80871884 1.80554506,0.908653846 2.91666667,0.908653846 L17.0833333,0.908653846 C18.1944549,0.908653846 19.1008772,1.80871884 19.1008772,2.92788462 L19.1008772,11.0721154 C19.1008772,12.1912812 18.1944549,13.0913462 17.0833333,13.0913462 Z" id="Stroke-1"></path>
                <path d="M2.62551036,3.37645026 L8.74029106,7.53074834 C9.50047488,8.04747988 10.4995251,8.04747988 11.2598157,7.53067575 L17.3744896,3.37645026 C17.6166376,3.21193828 17.6825821,2.87774528 17.521781,2.63000932 C17.3609798,2.38227336 17.034325,2.31480699 16.792177,2.47931897 L10.6773963,6.63361705 C10.2699486,6.91057781 9.73005144,6.91057781 9.32271048,6.63368963 L3.20782297,2.47931897 C2.96567504,2.31480699 2.63902023,2.38227336 2.47821905,2.63000932 C2.31741786,2.87774528 2.38336243,3.21193828 2.62551036,3.37645026 Z" id="Stroke-3"></path>
                <path d="M3.24765048,11.4907752 L7.72133469,7.78885212 C7.94733864,7.6018364 7.98236454,7.26278983 7.79956723,7.0315704 C7.61676992,6.80035098 7.28537101,6.76451679 7.05936706,6.9515325 L2.58568285,10.6534556 C2.3596789,10.8404713 2.324653,11.1795179 2.50745031,11.4107373 C2.69024763,11.6419567 3.02164653,11.6777909 3.24765048,11.4907752 Z" id="Stroke-5"></path>
                <path d="M17.4143171,10.6534556 L12.9406329,6.9515325 C12.714629,6.76451679 12.3832301,6.80035098 12.2004328,7.0315704 C12.0176355,7.26278983 12.0526614,7.6018364 12.2786653,7.78885212 L16.7523495,11.4907752 C16.9783535,11.6777909 17.3097524,11.6419567 17.4925497,11.4107373 C17.675347,11.1795179 17.6403211,10.8404713 17.4143171,10.6534556 Z" id="Stroke-7"></path>
            </g>
        </g>
    </g>
</svg>