<svg xmlns="http://www.w3.org/2000/svg" width="14" height="15" viewBox="0 0 14 15">
    <path fill="#27D276" fill-rule="evenodd" d="M1.485 1.408c.002.022-.016.083-.016.191v11.804c0 .096.014.155.026.187a.64.64 0 0 0 .184-.072l10.677-5.903a.539.539 0 0 0 .165-.123c-.02-.009-.067-.055-.164-.107L1.677 1.482a.581.581 0 0 0-.192-.074M1.462 15C.602 15 0 14.344 0 13.403V1.6C0 .657.602 0 1.462 0c.314 0 .633.09.95.264l10.679 5.903c.578.318.909.804.909 1.332 0 .53-.331 1.015-.91 1.334L2.413 14.736a1.96 1.96 0 0 1-.95.264"/>
</svg>
