<?xml version="1.0" encoding="UTF-8"?><!DOCTYPE svg PUBLIC "-//W3C//DTD SVG 1.1//EN" "http://www.w3.org/Graphics/SVG/1.1/DTD/svg11.dtd"><svg xmlns="http://www.w3.org/2000/svg" xmlns:xlink="http://www.w3.org/1999/xlink"><defs><path id="18-a" d="M0 0h50.074v50H0z"/><path id="icon-print-a" d="M0 0h17.116v18H0z"/><path id="icon-search-a" d="M0 17.424V0h17.135v17.424z"/></defs><symbol id="18" viewBox="0 0 51 50"><title>69C8E088-4B04-48DC-A81C-F64C4F7B65C8</title><g fill="none" fill-rule="evenodd"><path d="M27.385 23.22c2.084 0 2.917-.835 2.917-3.297 0-2.537-.833-3.296-2.917-3.296-2.083 0-2.916.76-2.916 3.296 0 2.462.833 3.296 2.916 3.296M27.385 26.742c-2.424 0-3.295 1.098-3.295 3.484 0 2.387.871 3.333 3.295 3.333s3.296-.946 3.296-3.333c0-2.386-.872-3.484-3.296-3.484" fill="#FFF"/><path d="M27.385 37.159c-5.72-.115-7.196-2.197-7.196-6.402 0-2.84.19-5 2.726-5.985-2.12-1.552-2.159-3.143-2.159-4.431v-1.288c.23-4.281 1.667-5.91 6.63-5.91 4.961 0 6.4 1.629 6.627 5.91v1.288c0 1.288-.037 2.879-2.158 4.43 2.538.987 2.727 3.146 2.727 5.986 0 4.205-1.477 6.287-7.197 6.402zm9.318-32.765c-.872-.872-1.969-1.136-3.219-1.136H16.59c-1.25 0-2.348.264-3.22 1.136l-8.597 8.712c-1.023 1.023-1.478 2.235-1.478 3.636v16.704c-.039 1.4.417 2.424 1.402 3.409l8.446 8.447c.985.984 2.084 1.439 3.447 1.439h16.894c1.363 0 2.462-.455 3.447-1.44l8.446-8.446c.985-.947 1.402-2.008 1.402-3.41v-5.757c-.039-.492-.303-.757-.796-.757h-2.537v1.78c0 1.326-.19 2.008-1.327 2.008h-1.136c-1.136 0-1.326-.682-1.326-2.007V26.93h-1.78c-1.325 0-2.008-.19-2.008-1.325v-1.213c0-1.135.683-1.325 2.008-1.325h1.78v-1.781c0-1.325.19-2.007 1.326-2.007h1.136c1.137 0 1.327.682 1.327 2.007v1.78h2.537c.53 0 .796-.303.796-.87v-5.455c0-1.401-.494-2.613-1.478-3.636l-8.598-8.712z" fill="#FFF"/><path d="M15.384 13.56h-3.447c-1.325 0-2.007.228-2.007 1.326v1.25c0 1.1.682 1.325 2.007 1.325h.796c.492 0 .718.265.718 1.023v16.363c0 1.326.23 2.008 1.328 2.008h1.287c1.098 0 1.326-.682 1.326-2.008v-19.96c0-1.099-.683-1.327-2.008-1.327" fill="#0277BD"/><g><mask id="18-b" fill="#fff"><use xlink:href="#18-a"/></mask><path d="M46.779 22.197c0 .567-.266.87-.796.87h-2.537v-1.78c0-1.325-.19-2.007-1.326-2.007h-1.137c-1.136 0-1.325.682-1.325 2.007v1.78h-1.78c-1.326 0-2.008.19-2.008 1.326v1.213c0 1.136.682 1.325 2.008 1.325h1.78v1.78c0 1.326.189 2.007 1.325 2.007h1.137c1.137 0 1.326-.681 1.326-2.006V26.93h2.537c.493 0 .758.265.796.757v5.758c0 1.4-.417 2.462-1.401 3.409L36.93 45.3c-.985.985-2.084 1.44-3.447 1.44H16.59c-1.364 0-2.462-.455-3.448-1.44l-8.446-8.446c-.984-.985-1.44-2.008-1.401-3.41V16.743c0-1.401.455-2.613 1.477-3.636l8.598-8.712c.872-.872 1.97-1.136 3.22-1.136h16.893c1.25 0 2.348.264 3.22 1.136l8.597 8.712c.985 1.023 1.478 2.235 1.478 3.636v5.455zm-7.766-20C37.537.759 35.68 0 33.446 0H16.629c-2.236 0-4.13.759-5.57 2.197l-8.9 8.863C.758 12.463 0 14.318 0 16.364v17.082c0 2.348.795 4.166 2.385 5.72l8.448 8.446c1.666 1.667 3.52 2.424 5.908 2.387h16.59c2.31 0 4.205-.683 5.909-2.387l8.447-8.446c1.553-1.554 2.386-3.41 2.386-5.72V16.364c0-2.046-.757-3.901-2.158-5.304l-8.903-8.863z" fill="#0277BD" mask="url(#18-b)"/></g><path d="M27.385 33.56c-2.424 0-3.295-.947-3.295-3.334s.871-3.484 3.295-3.484 3.296 1.097 3.296 3.484-.872 3.333-3.296 3.333m0-16.932c2.084 0 2.917.76 2.917 3.296 0 2.462-.833 3.296-2.917 3.296-2.083 0-2.916-.834-2.916-3.296 0-2.537.833-3.296 2.916-3.296m4.47 8.145c2.121-1.553 2.158-3.144 2.158-4.432v-1.288c-.227-4.28-1.666-5.909-6.628-5.909s-6.4 1.63-6.629 5.91v1.287c0 1.288.038 2.88 2.16 4.432-2.538.985-2.727 3.144-2.727 5.984 0 4.205 1.476 6.287 7.196 6.403 5.72-.116 7.197-2.198 7.197-6.403 0-2.84-.189-4.999-2.727-5.984" fill="#0277BD"/></g></symbol><symbol id="check-blue" viewBox="0 0 26 26"><path fill="none" stroke="#00467f" stroke-linecap="round" stroke-linejoin="round" stroke-width="4" d="M2 16.419L7.284 24 24 2"/></symbol><symbol id="check-white" viewBox="0 0 26 26"><title>D5B6DF8D-3E7F-482D-AE85-2480950C7EA4</title><path d="M2 16.419L7.284 24 24 2" stroke="#FFF" stroke-width="4" fill="none" fill-rule="evenodd" stroke-linecap="round" stroke-linejoin="round"/></symbol><symbol id="icon-close-x" viewBox="0 0 12 12"><path fill-rule="evenodd" d="M8.674.434L5.6 3.508 2.526.434a1.478 1.478 0 0 0-2.092 0 1.478 1.478 0 0 0 0 2.093L3.508 5.6.434 8.674A1.478 1.478 0 0 0 1.48 11.2c.379 0 .756-.145 1.046-.434L5.6 7.693l3.074 3.073a1.476 1.476 0 0 0 2.092 0 1.478 1.478 0 0 0 0-2.092L7.692 5.6l3.074-3.073a1.478 1.478 0 0 0 0-2.093 1.478 1.478 0 0 0-2.092 0z"/></symbol><symbol id="icon-close" viewBox="0 0 35 35"><path fill-rule="evenodd" d="M27.901 27.893A14.62 14.62 0 0 1 17.5 32.2c-3.927 0-7.62-1.528-10.396-4.304A14.605 14.605 0 0 1 2.8 17.5c0-3.928 1.53-7.62 4.306-10.396A14.612 14.612 0 0 1 17.503 2.8 14.61 14.61 0 0 1 27.9 7.104c5.733 5.732 5.733 15.057.001 20.79m1.981-22.77A17.393 17.393 0 0 0 17.504 0 17.384 17.384 0 0 0 5.128 5.124 17.379 17.379 0 0 0 0 17.5a17.372 17.372 0 0 0 5.125 12.376A17.384 17.384 0 0 0 17.501 35c4.677 0 9.074-1.82 12.383-5.127 6.822-6.823 6.821-17.925-.002-24.749m-9.308 7.21L17.5 15.408l-3.074-3.074a1.478 1.478 0 0 0-2.092 0 1.478 1.478 0 0 0 0 2.093l3.074 3.073-3.074 3.074A1.478 1.478 0 0 0 13.38 23.1c.379 0 .756-.145 1.046-.434l3.074-3.073 3.074 3.073a1.476 1.476 0 0 0 2.092 0 1.478 1.478 0 0 0 0-2.092L19.592 17.5l3.074-3.073a1.478 1.478 0 0 0 0-2.093 1.478 1.478 0 0 0-2.092 0z"/></symbol><symbol id="icon-comments" viewBox="0 0 19 17"><g fill="none" fill-rule="evenodd" stroke="#00467f" stroke-linejoin="round"><path stroke-width="1.5" d="M1.777 12.47a.9.9 0 0 1-.887-.911V1.816a.9.9 0 0 1 .887-.912h15.447a.9.9 0 0 1 .886.912v9.743a.9.9 0 0 1-.886.911H8.607l-3.964 3.619V12.47H1.777z"/><path stroke-linecap="round" d="M4.75 4.857h9.5M4.75 8.5h9.5"/></g></symbol><symbol id="icon-drop" viewBox="0 0 10 5"><path fill-rule="evenodd" d="M0 0l5.025 5L10 0H8.56L5.026 3.604h-.05L1.44 0z"/></symbol><symbol id="icon-eye" viewBox="0 0 20 12"><g fill="none" fill-rule="evenodd" stroke="#00467f" stroke-linejoin="round" stroke-width="1.5"><path d="M18.75 5.75s-4.029 5-9 5-9-5-9-5 4.029-5 9-5 9 5 9 5z"/><path d="M6.75 5.75a3 3 0 1 1 6 0 3 3 0 0 1-6 0z"/></g></symbol><symbol id="icon-favorite" viewBox="0 0 19 18"><title>F08CB689-57E9-465B-B4D5-EB287949115B</title><path d="M9.5 12.61c.155 0 .31.048.442.143l3.534 2.547-1.35-4.12a.746.746 0 0 1 .272-.836l3.535-2.547h-4.369a.752.752 0 0 1-.715-.515L9.5 3.16 8.15 7.282a.75.75 0 0 1-.715.515h-4.37l3.536 2.547c.264.19.375.527.273.835L5.523 15.3l3.534-2.547a.755.755 0 0 1 .443-.142M14.906 18a.757.757 0 0 1-.441-.143L9.5 14.278l-4.966 3.58a.755.755 0 0 1-.883 0 .746.746 0 0 1-.274-.835l1.898-5.79L.309 7.655a.745.745 0 0 1 .442-1.35h6.137L8.785.515A.752.752 0 0 1 9.5 0a.75.75 0 0 1 .715.515l1.896 5.79h6.137a.75.75 0 0 1 .715.516.74.74 0 0 1-.273.834l-4.966 3.578 1.898 5.79a.741.741 0 0 1-.274.834.754.754 0 0 1-.442.143" fill-rule="evenodd"/></symbol><symbol id="icon-fb" viewBox="0 0 7 15"><path fill-rule="evenodd" d="M4.544 15V8.158h2.063l.31-2.667H4.543V3.79c0-.772.192-1.298 1.187-1.298L7 2.49V.105A15.28 15.28 0 0 0 5.151 0c-1.83 0-3.082 1.243-3.082 3.525V5.49H0v2.667h2.07V15h2.474z"/></symbol><symbol id="icon-like-full-green" viewBox="0 0 18 19"><path d="M7.893 16.226l-4.425 1.29L.861 8.585l4.425-1.291 2.607 8.933zm8.453-6.721c.092.211.133.436.119.653a1.44 1.44 0 0 1-.712 1.16c.019.107.024.203.02.33a1.464 1.464 0 0 1-.976 1.284c-.016.137-.047.27-.092.396l-.1.187c-.231.315-.717.463-1.33.463a4.04 4.04 0 0 1-.504-.034c-.368-.048-.788-.087-1.927-.182l-1.157-.1a12.51 12.51 0 0 0-1.102-.055c-.094 0-.17-.002-.306-.006a5.63 5.63 0 0 0-.269-.005c-.054 0-.101.003-.146.008l-.617.06-1.582-5.356.353-.317C7.092 7.03 8.454 5.41 8.95 4.498a.042.042 0 0 0 .004-.009c.242-.784.293-1.726.229-2.584l-.046-.612.59-.166c.15-.042.33-.073.483-.084l.295-.022.23.186c.518.419.814 1.511.703 2.872a7.683 7.683 0 0 1-.065.52l-.001.008-.028.192c-.01.071-.02.137-.025.182a9.41 9.41 0 0 0-.034.75.321.321 0 0 0 .106.236c.1.105.204.17.537.27.6.181 1.554.29 2.939.29l.227-.001.1-.002c.947 0 1.716.77 1.716 1.718 0 .481-.204.933-.564 1.263z" fill="#00467f" fill-rule="evenodd" stroke="#00467f" stroke-linejoin="round" stroke-width="1.5"/></symbol><symbol id="icon-like-green" viewBox="0 0 18 19"><path d="M7.893 16.226l-4.425 1.29L.861 8.585l4.425-1.291 2.607 8.933zm8.453-6.721c.092.211.133.436.119.653a1.44 1.44 0 0 1-.712 1.16c.019.107.024.203.02.33a1.464 1.464 0 0 1-.976 1.284c-.016.137-.047.27-.092.396l-.1.187c-.231.315-.717.463-1.33.463a4.04 4.04 0 0 1-.504-.034c-.368-.048-.788-.087-1.927-.182l-1.157-.1a12.51 12.51 0 0 0-1.102-.055c-.094 0-.17-.002-.306-.006a5.63 5.63 0 0 0-.269-.005c-.054 0-.101.003-.146.008l-.617.06-1.582-5.356.353-.317C7.092 7.03 8.454 5.41 8.95 4.498a.042.042 0 0 0 .004-.009c.242-.784.293-1.726.229-2.584l-.046-.612.59-.166c.15-.042.33-.073.483-.084l.295-.022.23.186c.518.419.814 1.511.703 2.872a7.683 7.683 0 0 1-.065.52l-.001.008-.028.192c-.01.071-.02.137-.025.182a9.41 9.41 0 0 0-.034.75.321.321 0 0 0 .106.236c.1.105.204.17.537.27.6.181 1.554.29 2.939.29l.227-.001.1-.002c.947 0 1.716.77 1.716 1.718 0 .481-.204.933-.564 1.263z" fill="none" fill-rule="evenodd" stroke="#00467f" stroke-linejoin="round" stroke-width="1.5"/></symbol><symbol id="icon-like-white" viewBox="0 0 18 19"><path d="M7.893 16.226l-4.425 1.29L.861 8.585l4.425-1.291 2.607 8.933zm8.453-6.721c.092.211.133.436.119.653a1.44 1.44 0 0 1-.712 1.16c.019.107.024.203.02.33a1.464 1.464 0 0 1-.976 1.284c-.016.137-.047.27-.092.396l-.1.187c-.231.315-.717.463-1.33.463a4.04 4.04 0 0 1-.504-.034c-.368-.048-.788-.087-1.927-.182l-1.157-.1a12.51 12.51 0 0 0-1.102-.055c-.094 0-.17-.002-.306-.006a5.63 5.63 0 0 0-.269-.005c-.054 0-.101.003-.146.008l-.617.06-1.582-5.356.353-.317C7.092 7.03 8.454 5.41 8.95 4.498a.042.042 0 0 0 .004-.009c.242-.784.293-1.726.229-2.584l-.046-.612.59-.166c.15-.042.33-.073.483-.084l.295-.022.23.186c.518.419.814 1.511.703 2.872a7.683 7.683 0 0 1-.065.52l-.001.008-.028.192c-.01.071-.02.137-.025.182a9.41 9.41 0 0 0-.034.75.321.321 0 0 0 .106.236c.1.105.204.17.537.27.6.181 1.554.29 2.939.29l.227-.001.1-.002c.947 0 1.716.77 1.716 1.718 0 .481-.204.933-.564 1.263z" fill="none" fill-rule="evenodd" stroke="#fff" stroke-linejoin="round" stroke-width="1.5"/></symbol><symbol id="icon-like" viewBox="0 0 18 19"><path d="M7.893 16.226l-4.425 1.29L.861 8.585l4.425-1.291 2.607 8.933zm8.453-6.721c.092.211.133.436.119.653a1.44 1.44 0 0 1-.712 1.16c.019.107.024.203.02.33a1.464 1.464 0 0 1-.976 1.284c-.016.137-.047.27-.092.396l-.1.187c-.231.315-.717.463-1.33.463a4.04 4.04 0 0 1-.504-.034c-.368-.048-.788-.087-1.927-.182l-1.157-.1a12.51 12.51 0 0 0-1.102-.055c-.094 0-.17-.002-.306-.006a5.63 5.63 0 0 0-.269-.005c-.054 0-.101.003-.146.008l-.617.06-1.582-5.356.353-.317C7.092 7.03 8.454 5.41 8.95 4.498a.042.042 0 0 0 .004-.009c.242-.784.293-1.726.229-2.584l-.046-.612.59-.166c.15-.042.33-.073.483-.084l.295-.022.23.186c.518.419.814 1.511.703 2.872a7.683 7.683 0 0 1-.065.52l-.001.008-.028.192c-.01.071-.02.137-.025.182a9.41 9.41 0 0 0-.034.75.321.321 0 0 0 .106.236c.1.105.204.17.537.27.6.181 1.554.29 2.939.29l.227-.001.1-.002c.947 0 1.716.77 1.716 1.718 0 .481-.204.933-.564 1.263z" fill="none" fill-rule="evenodd" stroke="#787886" stroke-linejoin="round" stroke-width="1.5" opacity=".5"/></symbol><symbol id="icon-ok" viewBox="0 0 11 18"><path fill-rule="evenodd" d="M10.835 9.667c-.261-.517-.985-.946-1.947-.2-1.3 1.008-3.388 1.008-3.388 1.008s-2.088 0-3.388-1.008C1.15 8.72.426 9.15.165 9.667c-.456.9.059 1.336 1.22 2.07.993.627 2.356.861 3.236.949l-.735.723-2.727 2.685a1.033 1.033 0 0 0 0 1.477l.125.123a1.073 1.073 0 0 0 1.5 0l2.728-2.684 2.728 2.684a1.073 1.073 0 0 0 1.5 0l.126-.123a1.033 1.033 0 0 0 0-1.477L6.4 12.684c.881-.09 2.23-.325 3.213-.947 1.162-.734 1.677-1.17 1.221-2.07zM5.5 2.314c1.258 0 2.277 1.004 2.277 2.242 0 1.237-1.02 2.24-2.277 2.24-1.258 0-2.277-1.003-2.277-2.24 0-1.238 1.02-2.242 2.277-2.242zm0 6.797c2.556 0 4.628-2.04 4.628-4.555C10.128 2.04 8.056 0 5.5 0S.872 2.04.872 4.556 2.944 9.11 5.5 9.11z"/></symbol><symbol id="icon-play-full" viewBox="0 0 512 512"><path d="M152.443 136.417L359.557 255.99 152.443 375.583z"/></symbol><symbol id="icon-play-smooth" viewBox="0 0 114 114"><title>6E669C22-4C5E-4F49-97CD-593EDA9E6492</title><g fill="none" fill-rule="evenodd"><path d="M0 57C0 25.519 25.52 0 57 0s57 25.519 57 57-25.52 57-57 57S0 88.481 0 57" fill="#FDBA31"/><path d="M78.827 52.62l-27.05-20.5C48.17 29.387 43 31.967 43 36.5v41c0 4.533 5.17 7.113 8.777 4.38l27.05-20.5c2.897-2.196 2.897-6.564 0-8.76" fill="#FFF"/></g></symbol><symbol id="icon-play" viewBox="0 0 14 15"><title>84508877-A58B-41AF-9634-A9F4736FA2A1</title><path d="M1.485 1.408c.002.022-.016.083-.016.191v11.804c0 .096.014.155.026.187a.64.64 0 0 0 .184-.072l10.677-5.903a.539.539 0 0 0 .165-.123c-.02-.009-.067-.055-.164-.107L1.677 1.482a.581.581 0 0 0-.192-.074M1.462 15C.602 15 0 14.344 0 13.403V1.6C0 .657.602 0 1.462 0c.314 0 .633.09.95.264l10.679 5.903c.578.318.909.804.909 1.332 0 .53-.331 1.015-.91 1.334L2.413 14.736a1.96 1.96 0 0 1-.95.264" fill="#6690B3" fill-rule="evenodd"/></symbol><symbol id="icon-print" viewBox="0 0 18 18"><g fill-rule="evenodd"><mask id="icon-print-b" fill="#fff"><use xlink:href="#icon-print-a"/></mask><path d="M16.116 12.545a.495.495 0 0 1-.495.495H13.9V8.779H3.216v4.26H1.494A.495.495 0 0 1 1 12.546V5.942c0-.273.221-.495.494-.495h14.127c.273 0 .495.222.495.495v6.603zm-3.217 4.25a.205.205 0 0 1-.204.205H4.42a.204.204 0 0 1-.204-.204V9.779H12.9v7.017zM4.254 1l8.645.037v3.41H4.22L4.254 1zm11.367 3.447H13.9v-3.41C13.9.465 13.434 0 12.862 0H4.254c-.573 0-1.038.465-1.038 1.037v3.41H1.494C.67 4.447 0 5.117 0 5.942v6.603c0 .824.67 1.495 1.494 1.495h1.722v2.756c0 .664.54 1.204 1.204 1.204h8.275c.664 0 1.204-.54 1.204-1.204V14.04h1.722c.824 0 1.495-.671 1.495-1.495V5.942c0-.824-.67-1.495-1.495-1.495z" mask="url(#icon-print-b)"/><path d="M5.986 11.738h5.144a.5.5 0 0 0 0-1H5.986a.5.5 0 0 0 0 1m0 2.066h5.144a.5.5 0 0 0 0-1H5.986a.5.5 0 0 0 0 1m0 2.022h5.144a.5.5 0 0 0 0-1H5.986a.5.5 0 0 0 0 1M2.567 6.334a.602.602 0 1 0 .003 1.205.602.602 0 0 0-.003-1.205"/></g></symbol><symbol id="icon-search" viewBox="0 0 18 18"><g fill="none" fill-rule="evenodd"><mask id="icon-search-b" fill="#fff"><use xlink:href="#icon-search-a"/></mask><path fill="#00467f" d="M7.475 13.452A5.983 5.983 0 0 1 1.5 7.48 5.986 5.986 0 0 1 7.477 1.5a5.986 5.986 0 0 1 5.977 5.978 5.984 5.984 0 0 1-5.979 5.975m9.44 2.692l-3.787-3.787a7.438 7.438 0 0 0 1.826-4.88C14.953 3.354 11.598 0 7.477 0 3.355 0 0 3.356 0 7.48c0 4.12 3.355 7.471 7.475 7.471a7.435 7.435 0 0 0 4.562-1.565l3.818 3.818a.748.748 0 0 0 1.06 0 .75.75 0 0 0 0-1.06M2.522 7.474h.75A4.21 4.21 0 0 1 7.477 3.27v-.75a4.96 4.96 0 0 0-4.955 4.955" mask="url(#icon-search-b)"/></g></symbol><symbol id="icon-vk" viewBox="0 0 17 11"><path fill-rule="evenodd" d="M16.585.754c.074-.41-.09-.64-.475-.64h-1.943c-.445 0-.609.214-.742.525 0 0-1.05 2.474-2.329 4.033-.41.504-.619.656-.846.656-.182 0-.267-.168-.267-.623V.72c0-.556-.059-.72-.473-.72H6.394c-.238 0-.386.153-.386.36 0 .525.727.644.727 2.066v2.935c0 .59-.03.82-.282.82-.668 0-2.255-2.542-3.145-5.427C3.13.164 2.938 0 2.433 0H.49C.208 0 0 .213 0 .524c0 .574.608 3.23 2.997 6.788C4.599 9.705 6.705 11 8.604 11c1.157 0 1.439-.213 1.439-.754V8.41c0-.46.163-.656.4-.656.267 0 .739.095 1.84 1.295C13.588 10.426 13.677 11 14.389 11h2.18c.223 0 .431-.115.431-.525 0-.54-.638-1.508-1.617-2.655-.4-.59-1.053-1.23-1.26-1.525-.297-.344-.209-.541 0-.902 0 0 2.24-3.491 2.462-4.639z"/></symbol></svg>