<?xml version="1.0" encoding="UTF-8"?>
<svg width="64px" height="64px" viewBox="0 0 64 64" version="1.1" xmlns="http://www.w3.org/2000/svg" xmlns:xlink="http://www.w3.org/1999/xlink">
    <!-- Generator: Sketch 46.2 (44496) - http://www.bohemiancoding.com/sketch -->
    <title>Group 8</title>
    <desc>Created with Sketch.</desc>
    <defs></defs>
    <g id="Page-1" stroke="none" stroke-width="1" fill="none" fill-rule="evenodd">
        <g id="Flower-popup-desktop" transform="translate(-721.000000, -511.000000)">
            <g id="Group-8" transform="translate(721.000000, 511.000000)">
                <circle id="Mask" fill="#D93175" cx="32" cy="32" r="32"></circle>
                <path d="M31.4934921,12 C25.9278234,12 25.2298472,12.0235446 23.0440754,12.1230812 C20.8626964,12.2223743 19.3730298,12.5681545 18.0694087,13.0737941 C16.7218591,13.596402 15.5789028,14.2957564 14.4396071,15.432796 C13.3002302,16.5699168 12.5995694,17.7105287 12.0758433,19.0554099 C11.5692004,20.3564495 11.2228155,21.8431663 11.123244,24.0202257 C11.0235099,26.2017505 11,26.8981822 11,32.4529109 C11,38.0076396 11.0235099,38.7041525 11.123244,40.8856772 C11.2228155,43.0626554 11.5692004,44.5494535 12.0758433,45.8504119 C12.5995694,47.1952931 13.3002302,48.3359861 14.4396071,49.4730257 C15.5789028,50.6101465 16.7218591,51.3094198 18.0694087,51.8321901 C19.3730298,52.3377485 20.8626964,52.6835287 23.0440754,52.782903 C25.2298472,52.8823584 25.9278234,52.905903 31.4934921,52.905903 C37.0592421,52.905903 37.7570556,52.8823584 39.9429087,52.782903 C42.1242877,52.6835287 43.6139544,52.3377485 44.9175754,51.8321901 C46.2652063,51.3094198 47.4080813,50.6101465 48.547377,49.4730257 C49.686754,48.3359861 50.3874147,47.1953743 50.9111409,45.8504119 C51.4177837,44.5494535 51.76425,43.0626554 51.8637401,40.8856772 C51.9634742,38.7041525 51.9870655,38.0076396 51.9870655,32.4529109 C51.9870655,26.8982634 51.9634742,26.2017505 51.8637401,24.0202257 C51.76425,21.8431663 51.4177837,20.3564495 50.9111409,19.0554099 C50.3874147,17.7105287 49.686754,16.5699168 48.547377,15.432796 C47.4080813,14.2957564 46.2652063,13.596402 44.9175754,13.0737941 C43.6139544,12.5681545 42.1242877,12.2223743 39.9429087,12.1230812 C37.7570556,12.0235446 37.0592421,12 31.4934921,12 M31.4934921,15.6852099 C36.9655278,15.6852099 37.6136369,15.7059941 39.7745972,15.8043941 C41.7726964,15.8954059 42.8578135,16.228602 43.5799504,16.508701 C44.5365357,16.8797307 45.2192996,17.3229366 45.9363929,18.0386099 C46.6534861,18.7543644 47.0975714,19.435695 47.4694187,20.3903861 C47.7499921,21.1110931 48.0838492,22.1940614 48.1750417,24.188204 C48.2735556,26.3448851 48.2944623,26.9917921 48.2944623,32.4529109 C48.2944623,37.9141109 48.2735556,38.5610178 48.1750417,40.7176178 C48.0838492,42.7118416 47.7499921,43.7948099 47.4694187,44.5155168 C47.0975714,45.4701267 46.6534861,46.1515386 45.9363929,46.8672119 C45.2192996,47.5829663 44.5365357,48.0261723 43.5799504,48.397202 C42.8578135,48.6772198 41.7726964,49.010497 39.7745972,49.1014277 C37.6139623,49.1998277 36.9659345,49.2206931 31.4934921,49.2206931 C26.0210496,49.2206931 25.3730218,49.1998277 23.2123869,49.1014277 C21.2142877,49.010497 20.1290893,48.6772198 19.4069524,48.397202 C18.4504484,48.0261723 17.7676845,47.5829663 17.0505913,46.8672119 C16.333498,46.1515386 15.8893313,45.4701267 15.5175655,44.5155168 C15.2369921,43.7948099 14.9031349,42.7118416 14.8119425,40.717699 C14.7133472,38.5610178 14.6925218,37.9141109 14.6925218,32.4529109 C14.6925218,26.9917921 14.7133472,26.3448851 14.8119425,24.188204 C14.9031349,22.1940614 15.2369921,21.1110931 15.5175655,20.3903861 C15.8893313,19.435695 16.333498,18.7543644 17.0505913,18.0386911 C17.7676845,17.3229366 18.4504484,16.8797307 19.4069524,16.508701 C20.1290893,16.228602 21.2142877,15.8954059 23.2123056,15.8043941 C25.3733472,15.7059941 26.0214563,15.6852099 31.4934921,15.6852099" id="Fill-1" fill="#FFFFFF"></path>
                <path d="M31.5237401,39.3205109 C27.7510079,39.3205109 24.6925218,36.2680812 24.6925218,32.5028198 C24.6925218,28.7375584 27.7510079,25.6852099 31.5237401,25.6852099 C35.2964722,25.6852099 38.3549583,28.7375584 38.3549583,32.5028198 C38.3549583,36.2680812 35.2964722,39.3205109 31.5237401,39.3205109 M31.5237401,22 C25.7116647,22 21,26.7022535 21,32.5028198 C21,38.3034673 25.7116647,43.0057208 31.5237401,43.0057208 C37.3358155,43.0057208 42.0473988,38.3034673 42.0473988,32.5028198 C42.0473988,26.7022535 37.3358155,22 31.5237401,22" id="Fill-4" fill="#FFFFFF"></path>
                <path d="M44.9184544,21.4543168 C44.9184544,22.8098337 43.8174742,23.9086337 42.4592679,23.9086337 C41.1010615,23.9086337 40,22.8098337 40,21.4543168 C40,20.0988 41.1010615,19 42.4592679,19 C43.8174742,19 44.9184544,20.0988 44.9184544,21.4543168" id="Fill-6" fill="#FFFFFF"></path>
            </g>
        </g>
    </g>
</svg>