<?xml version="1.0" encoding="UTF-8"?>
<svg width="18px" height="18px" viewBox="0 0 18 18" version="1.1" xmlns="http://www.w3.org/2000/svg" xmlns:xlink="http://www.w3.org/1999/xlink">
    <!-- Generator: Sketch 46.2 (44496) - http://www.bohemiancoding.com/sketch -->
    <title>iOSSpinnerDark</title>
    <desc>Created with Sketch.</desc>
    <defs></defs>
    <g id="Page-1" stroke="none" stroke-width="1" fill="none" fill-rule="evenodd">
        <g id="Index-desktop" transform="translate(-785.000000, -1637.000000)" fill="#000000">
            <g id="Group-7-Copy-3" transform="translate(546.000000, 1630.000000)">
                <g id="iOSSpinnerDark" transform="translate(236.000000, 4.000000)">
                    <path d="M12.24,8.16 L12.24,8.16 C11.844,8.16 11.52,7.836 11.52,7.44 L11.52,4.56 C11.52,4.164 11.844,3.84 12.24,3.84 L12.24,3.84 C12.636,3.84 12.96,4.164 12.96,4.56 L12.96,7.44 C12.96,7.836 12.636,8.16 12.24,8.16" id="Fill-2" opacity="0.65"></path>
                    <path d="M14.28,8.706624 L14.28,8.706624 C13.93704,8.508624 13.81848,8.066064 14.01648,7.723104 L15.45648,5.229024 C15.65448,4.886064 16.09704,4.767504 16.44,4.965504 L16.44,4.965504 C16.78296,5.163504 16.90152,5.606064 16.70352,5.949024 L15.26352,8.443104 C15.06552,8.786064 14.62296,8.904624 14.28,8.706624" id="Fill-4" opacity="0.75"></path>
                    <path d="M15.773376,10.2 L15.773376,10.2 C15.575376,9.85704 15.693936,9.41448 16.036896,9.21648 L18.530976,7.77648 C18.873936,7.57848 19.316496,7.69704 19.514496,8.04 L19.514496,8.04 C19.712496,8.38296 19.593936,8.82552 19.250976,9.02352 L16.756896,10.46352 C16.413936,10.66152 15.971376,10.54296 15.773376,10.2" id="Fill-6" opacity="0.85"></path>
                    <path d="M16.32,12.24 L16.32,12.24 C16.32,11.844 16.644,11.52 17.04,11.52 L19.92,11.52 C20.316,11.52 20.64,11.844 20.64,12.24 L20.64,12.24 C20.64,12.636 20.316,12.96 19.92,12.96 L17.04,12.96 C16.644,12.96 16.32,12.636 16.32,12.24" id="Fill-8" opacity="0.9"></path>
                    <path d="M15.773376,14.28 L15.773376,14.28 C15.971376,13.93704 16.413936,13.81848 16.756896,14.01648 L19.250976,15.45648 C19.593936,15.65448 19.712496,16.09704 19.514496,16.44 L19.514496,16.44 C19.316496,16.78296 18.873936,16.90152 18.530976,16.70352 L16.036896,15.26352 C15.693936,15.06552 15.575376,14.62296 15.773376,14.28" id="Fill-10" opacity="0.2"></path>
                    <path d="M14.28,15.773376 L14.28,15.773376 C14.62296,15.575376 15.06552,15.693936 15.26352,16.036896 L16.70352,18.530976 C16.90152,18.873936 16.78296,19.316496 16.44,19.514496 L16.44,19.514496 C16.09704,19.712496 15.65448,19.593936 15.45648,19.250976 L14.01648,16.756896 C13.81848,16.413936 13.93704,15.971376 14.28,15.773376" id="Fill-12" opacity="0.25"></path>
                    <path d="M12.24,16.32 L12.24,16.32 C12.636,16.32 12.96,16.644 12.96,17.04 L12.96,19.92 C12.96,20.316 12.636,20.64 12.24,20.64 L12.24,20.64 C11.844,20.64 11.52,20.316 11.52,19.92 L11.52,17.04 C11.52,16.644 11.844,16.32 12.24,16.32" id="Fill-14" opacity="0.3"></path>
                    <path d="M10.2,15.773376 L10.2,15.773376 C10.54296,15.971376 10.66152,16.413936 10.46352,16.756896 L9.02352,19.250976 C8.82552,19.593936 8.38296,19.712496 8.04,19.514496 L8.04,19.514496 C7.69704,19.316496 7.57848,18.873936 7.77648,18.530976 L9.21648,16.036896 C9.41448,15.693936 9.85704,15.575376 10.2,15.773376" id="Fill-16" opacity="0.35"></path>
                    <path d="M8.706624,14.28 L8.706624,14.28 C8.904624,14.62296 8.786064,15.06552 8.443104,15.26352 L5.949024,16.70352 C5.606064,16.90152 5.163504,16.78296 4.965504,16.44 L4.965504,16.44 C4.767504,16.09704 4.886064,15.65448 5.229024,15.45648 L7.723104,14.01648 C8.066064,13.81848 8.508624,13.93704 8.706624,14.28" id="Fill-18" opacity="0.4"></path>
                    <path d="M8.16,12.24 L8.16,12.24 C8.16,12.636 7.836,12.96 7.44,12.96 L4.56,12.96 C4.164,12.96 3.84,12.636 3.84,12.24 L3.84,12.24 C3.84,11.844 4.164,11.52 4.56,11.52 L7.44,11.52 C7.836,11.52 8.16,11.844 8.16,12.24" id="Fill-20" opacity="0.45"></path>
                    <path d="M8.706624,10.2 L8.706624,10.2 C8.508624,10.54296 8.066064,10.66152 7.723104,10.46352 L5.229024,9.02352 C4.886064,8.82552 4.767504,8.38296 4.965504,8.04 L4.965504,8.04 C5.163504,7.69704 5.606064,7.57848 5.949024,7.77648 L8.443104,9.21648 C8.786064,9.41448 8.904624,9.85704 8.706624,10.2" id="Fill-22" opacity="0.5"></path>
                    <path d="M10.2,8.706624 L10.2,8.706624 C9.85704,8.904624 9.41448,8.786064 9.21648,8.443104 L7.77648,5.949024 C7.57848,5.606064 7.69704,5.163504 8.04,4.965504 L8.04,4.965504 C8.38296,4.767504 8.82552,4.886064 9.02352,5.229024 L10.46352,7.723104 C10.66152,8.066064 10.54296,8.508624 10.2,8.706624" id="Fill-24" opacity="0.55"></path>
                </g>
            </g>
        </g>
    </g>
</svg>