<?xml version="1.0" encoding="UTF-8"?>
<svg viewBox="0 0 26 26" version="1.1" xmlns="http://www.w3.org/2000/svg" xmlns:xlink="http://www.w3.org/1999/xlink">
    <!-- Generator: Sketch 46.2 (44496) - http://www.bohemiancoding.com/sketch -->
    <title>Group 128</title>
    <desc>Created with Sketch.</desc>
    <defs></defs>
    <g id="Page-1" stroke="none" stroke-width="1" fill-rule="evenodd">
        <g id="Index" transform="translate(-29.000000, -27.000000)">
            <g id="Group-128" transform="translate(29.000000, 27.000000)">
                <path d="M5.77777778,11.5555556 C7.85777778,15.6433333 10.3566667,18.1277778 14.4444444,20.2222222 L17.9255556,17.5933333 C18.3155556,17.2033333 18.8933333,17.0733333 19.3988889,17.2466667 C21.0166667,17.7811111 22.7644444,18.07 24.5555556,18.07 C25.35,18.07 26,18.72 26,19.5144444 L26,24.5555556 C26,25.35 25.35,26 24.5555556,26 C10.9922222,26 0,15.0077778 0,1.44444444 C0,0.65 0.65,0 1.44444444,0 L6.5,0 C7.29444444,0 7.94444444,0.65 7.94444444,1.44444444 C7.94444444,3.25 8.23333333,4.98333333 8.76777778,6.60111111 C8.92666667,7.10666667 8.81111111,7.67 8.40666667,8.07444444 L5.77777778,11.5555556 L5.77777778,11.5555556 Z" id="Stroke-120"></path>
            </g>
        </g>
    </g>
</svg>