<?xml version="1.0" encoding="UTF-8"?>
<svg viewBox="0 0 39 39" version="1.1" xmlns="http://www.w3.org/2000/svg" xmlns:xlink="http://www.w3.org/1999/xlink">
    <!-- Generator: Sketch 46.2 (44496) - http://www.bohemiancoding.com/sketch -->
    <title>Group 307 Copy</title>
    <desc>Created with Sketch.</desc>
    <defs></defs>
    <g id="Page-1" stroke="none" stroke-width="1" fill-rule="evenodd">
        <g id="Order-desktop" transform="translate(-200.000000, -686.000000)" fill-rule="nonzero">
            <g id="Group-307-Copy" transform="translate(200.000000, 686.000000)">
                <path d="M18.5631409,37.3939659 C17.7348625,38.2222443 16.6115563,38.6876625 15.4405875,38.6876625 C14.2631187,38.6876625 13.1398125,38.2222443 12.3115341,37.3939659 L1.60603411,26.6884659 C0.777755682,25.8601875 0.3123375,24.7368813 0.3123375,23.5659125 C0.3123375,22.3884437 0.777755682,21.2651375 1.60603411,20.4368591 L19.6792841,2.36360911 C20.9930992,1.04979405 22.7727652,0.3126625 24.6299625,0.3126625 L34.9373375,0.3126625 C37.0091049,0.3126625 38.6873375,1.99089513 38.6873375,4.0626625 L38.6873375,14.3700375 C38.6873375,16.2272348 37.9502059,18.0069008 36.6363909,19.3207159 L18.5631409,37.3939659 Z M35.9292841,18.6136091 C37.0555591,17.4873341 37.6873375,15.9620236 37.6873375,14.3700375 L37.6873375,4.0626625 C37.6873375,2.54317987 36.4568201,1.3126625 34.9373375,1.3126625 L24.6299625,1.3126625 C23.0379764,1.3126625 21.5126659,1.9444409 20.3863909,3.07071589 L2.31314089,21.1439659 C1.67237381,21.784733 1.3123375,22.6536956 1.3123375,23.5594125 C1.3123375,24.4716294 1.67237381,25.340592 2.31314089,25.9813591 L13.0186409,36.6868591 C13.659408,37.3276262 14.5283706,37.6876625 15.4340875,37.6876625 C16.3463044,37.6876625 17.215267,37.3276262 17.8560341,36.6868591 L35.9292841,18.6136091 Z" id="Stroke-297"></path>
                <path d="M32.8125,8.9375 C32.8125,7.41801737 31.5819826,6.1875 30.0625,6.1875 C28.5430174,6.1875 27.3125,7.41801737 27.3125,8.9375 C27.3125,10.4569826 28.5430174,11.6875 30.0625,11.6875 C31.5819826,11.6875 32.8125,10.4569826 32.8125,8.9375 Z M33.8125,8.9375 C33.8125,11.0092674 32.1342674,12.6875 30.0625,12.6875 C27.9907326,12.6875 26.3125,11.0092674 26.3125,8.9375 C26.3125,6.86573263 27.9907326,5.1875 30.0625,5.1875 C32.1342674,5.1875 33.8125,6.86573263 33.8125,8.9375 Z" id="Stroke-299"></path>
                <path d="M16.5625,15.4375 L16.5625,28.4375 C16.5625,28.7136424 16.7863576,28.9375 17.0625,28.9375 C17.3386424,28.9375 17.5625,28.7136424 17.5625,28.4375 L17.5625,15.4375 C17.5625,15.1613576 17.3386424,14.9375 17.0625,14.9375 C16.7863576,14.9375 16.5625,15.1613576 16.5625,15.4375 Z" id="Stroke-301"></path>
                <path d="M13.3125,20.3125 C13.3125,19.6916424 12.8083576,19.1875 12.1875,19.1875 C11.5666424,19.1875 11.0625,19.6916424 11.0625,20.3125 C11.0625,20.9333576 11.5666424,21.4375 12.1875,21.4375 C12.8083576,21.4375 13.3125,20.9333576 13.3125,20.3125 Z M14.3125,20.3125 C14.3125,21.4856424 13.3606424,22.4375 12.1875,22.4375 C11.0143576,22.4375 10.0625,21.4856424 10.0625,20.3125 C10.0625,19.1393576 11.0143576,18.1875 12.1875,18.1875 C13.3606424,18.1875 14.3125,19.1393576 14.3125,20.3125 Z" id="Stroke-303"></path>
                <path d="M23.0625,23.5625 C23.0625,22.9416424 22.5583576,22.4375 21.9375,22.4375 C21.3166424,22.4375 20.8125,22.9416424 20.8125,23.5625 C20.8125,24.1833576 21.3166424,24.6875 21.9375,24.6875 C22.5583576,24.6875 23.0625,24.1833576 23.0625,23.5625 Z M24.0625,23.5625 C24.0625,24.7356424 23.1106424,25.6875 21.9375,25.6875 C20.7643576,25.6875 19.8125,24.7356424 19.8125,23.5625 C19.8125,22.3893576 20.7643576,21.4375 21.9375,21.4375 C23.1106424,21.4375 24.0625,22.3893576 24.0625,23.5625 Z" id="Stroke-305"></path>
            </g>
        </g>
    </g>
</svg>