<?xml version="1.0" encoding="UTF-8"?>
<svg width="220px" height="24px" viewBox="0 0 220 24" version="1.1" xmlns="http://www.w3.org/2000/svg" xmlns:xlink="http://www.w3.org/1999/xlink">
    <!-- Generator: Sketch 49 (51002) - http://www.bohemiancoding.com/sketch -->
    <title>kommersant_logo</title>
    <desc>Created with Sketch.</desc>
    <defs></defs>
    <g id="Page-1" stroke="none" stroke-width="1" fill="none" fill-rule="evenodd">
        <g id="Index-desktop-Copy" transform="translate(-641.000000, -4470.000000)" fill="#BDBDBD" fill-rule="nonzero">
            <g id="kommersant_logo" transform="translate(641.000000, 4470.000000)">
                <path d="M217.5,0 C216.12,0 215,1.0752 215,2.4 C215,3.7236 216.12125,4.8 217.5,4.8 C218.88,4.8 220,3.7236 220,2.4 C220,1.0752 218.88,0 217.5,0 M217.5,4.4232 C216.3375,4.4232 215.3925,3.5148 215.3925,2.3988 C215.3925,1.2828 216.3375,0.372 217.5,0.372 C218.6625,0.372 219.61,1.2792 219.61,2.3952 C219.61,3.5112 218.6625,4.4184 217.5,4.4184 M217.38,0.6768 C217.4425,1.2468 217.925,0.9216 218.1325,0.7608 C218.2075,0.7044 218.295,0.5988 218.345,0.5712 C218.37875,0.5508 218.42625,0.5652 218.4475,0.6036 C218.4625,0.66 218.4725,0.7332 218.435,0.8388 C218.385,0.9588 218.31,1.0788 218.26875,1.1508 C218.15875,1.3188 218.04875,1.4628 217.91875,1.6188 C217.70625,1.8708 217.43875,2.0748 217.21875,2.3148 C216.88125,2.6988 216.68875,3.2748 216.79125,3.7668 C216.81875,3.8868 216.88125,4.0548 217.00375,4.1148 C217.75375,4.5108 218.295,2.8068 218.04125,2.3028 C218.0075,2.2308 217.93875,2.1132 217.84375,2.1252 C217.375,2.2008 217.15625,3.6648 217.45125,3.7692 C217.43875,3.9408 217.15125,4.0452 217.07625,3.7296 C217.05125,3.6156 217.05125,3.5016 217.05125,3.3852 C217.06375,2.9004 217.47625,2.1612 217.93875,1.938 C218.15125,1.83 218.45125,1.83 218.56375,2.07 C218.98875,2.8908 217.86375,4.4136 216.88875,4.278 C216.41375,4.206 216.25125,3.774 216.27625,3.366 C216.30125,3.0228 216.46375,2.706 216.65125,2.43 C217.06375,1.8744 217.71375,1.71 218.02625,1.2744 C218.02625,1.2744 218.03875,1.2624 218.03875,1.2504 C218.03875,1.2384 218.02625,1.2264 218.01375,1.2384 C217.97625,1.2624 217.79625,1.3584 217.6725,1.3704 C217.4225,1.3944 217.285,1.0584 217.2425,0.8784 C217.23,0.8424 217.23,0.8064 217.1925,0.8544 C217.0675,1.0104 216.97125,1.8744 216.84875,1.9188 L216.35375,2.1036 C216.35375,2.1036 216.3325,2.1096 216.32875,2.0796 C216.26625,1.884 216.77875,1.1856 216.91625,0.9516 C216.935,0.9156 217.05375,0.6996 217.07125,0.6876 C217.10875,0.6552 217.33375,0.6036 217.38125,0.6036" id="Shape" opacity="0.5"></path>
                <path d="M12.7062613,7.25889654 L20.7977403,19.2814439 L12.9276347,19.2814439 L8.12127917,11.59483 L6.56315152,13.1758811 L6.56315152,19.2814439 L0,19.2814439 L0,0 L6.56315152,0 L6.56315152,6.23948073 L12.317439,0.00273301828 L20.0186764,0.00273301828 L12.7062613,7.25889654 Z M35.3601318,12.1318681 C35.3601318,17.265843 31.7457865,19.6749986 27.0728227,19.6749986 C22.4041159,19.6749986 18.7883516,17.2152821 18.7883516,12.416102 C18.7883516,7.54586346 22.1231421,4.83470933 27.0472796,4.83470933 C32.1913713,4.83470933 35.3601318,7.75493936 35.3601318,12.11547 L35.3601318,12.1318681 Z M29.5760441,12.11547 C29.5760441,10.0520412 28.6025691,8.58031088 27.129585,8.58031088 C25.1570919,8.58031088 24.5710202,10.5344189 24.5710202,12.11547 C24.5710202,14.7664978 25.5998386,15.9143654 27.0728227,15.9143654 C28.6309503,15.9143654 29.5746251,14.7569322 29.5746251,12.1086375 L29.5760441,12.11547 Z M45.1700921,13.0105335 L42.6299751,5.2487616 L36.0171565,5.2487616 L36.0171565,19.2691454 L41.1399623,19.2691454 L41.1399623,13.76348 L40.586529,9.85526391 L40.7000538,9.85526391 L43.8077947,19.2787109 L46.5323895,19.2787109 L49.6401305,9.85526391 L49.7536553,9.85526391 L49.1973838,13.4437169 L49.1973838,19.2787109 L54.3102562,19.2787109 L54.3102562,5.25832717 L47.6804089,5.25832717 L45.1544825,13.0474293 L45.1729303,13.0200991 L45.1700921,13.0105335 Z M64.2990181,13.0105335 L61.7589011,5.2487616 L55.1460825,5.2487616 L55.1460825,19.2691454 L60.2688883,19.2691454 L60.2688883,13.76348 L59.715455,9.85526391 L59.8289798,9.85526391 L62.9367207,19.2773444 L65.6613155,19.2773444 L68.7690564,9.85663042 L68.8825812,9.85663042 L68.3234717,13.4505495 L68.3234717,19.2855435 L73.4462775,19.2855435 L73.4462775,5.25012811 L66.8192683,5.25012811 L64.2933419,13.0392302 L64.3075325,13.0173661 L64.2990181,13.0105335 Z M90.736102,13.4888117 L79.6958168,13.4888117 C79.6958168,15.1422878 81.029733,16.2491602 82.5623176,16.2491602 C83.4847064,16.2491602 84.3219517,15.8392074 84.7334791,15.0193019 L90.2678122,15.0193019 C89.2744704,18.4902352 85.5991055,19.6517679 82.2075526,19.6517679 C77.5388459,19.6517679 73.9202435,17.0690656 73.9202435,12.3682742 C73.9202435,7.76313842 77.5104647,4.81147868 82.1791714,4.81147868 C87.5715986,4.81147868 90.7502926,8.21408643 90.7502926,13.4751466 L90.736102,13.4888117 Z M82.406221,8.20042134 C80.6891587,8.20042134 79.7100074,9.12964755 79.7100074,10.6328076 L84.9747192,10.6328076 C84.9747192,9.34828902 83.782709,8.18675625 82.4147354,8.18675625 L82.406221,8.20042134 Z M107.418569,12.1086375 C107.418569,17.6293344 103.863824,19.6381028 100.607082,19.6381028 C99.0234111,19.6381028 97.8541059,19.0231737 96.8792118,17.8370438 L96.8792118,24 L91.0894478,24 L91.0894478,5.23646302 L96.2888829,5.23646302 L96.2888829,7.327222 L96.3456453,7.327222 C97.1545094,5.61498605 99.2362701,4.84017537 100.903665,4.84017537 C105.28856,4.84017537 107.402959,8.29061094 107.402959,12.1482662 L107.418569,12.1086375 Z M96.7529155,12.1209361 C96.7529155,14.0750441 97.6185419,15.408757 99.1227453,15.408757 C100.641139,15.408757 101.620291,14.1474691 101.620291,12.2193247 C101.620291,9.99601435 100.612758,8.89187496 99.0943641,8.89187496 C97.7036855,8.89187496 96.7529155,10.2310539 96.7529155,12.1059045 L96.7529155,12.1209361 Z M115.999623,15.9047999 C114.29959,15.9047999 113.465183,14.5109605 113.465183,12.3928714 C113.465183,10.7339293 113.824205,8.56391277 115.998204,8.56391277 C117.275358,8.56391277 118.108346,9.47264135 118.108346,10.5685817 L123.974739,10.5685817 C123.563212,6.41712691 119.893523,4.81147868 115.999623,4.81147868 C111.194687,4.81147868 107.692447,7.55816205 107.692447,12.3546091 C107.692447,17.0963958 111.306793,19.6381028 116.008138,19.6381028 C120.038268,19.6381028 123.597269,18.0529522 124.096779,13.8031088 L118.264443,13.8031088 C118.098413,14.8963161 117.512341,15.8802027 116.012395,15.8802027 L115.999623,15.9047999 Z M141.243278,18.9548483 L141.243278,19.214485 L135.269036,19.214485 L134.993739,17.7113249 C133.347629,19.1816888 131.677396,19.6107726 129.516168,19.6107726 C126.756097,19.6107726 124.308218,18.2989239 124.308218,15.3814269 C124.308218,9.00802824 134.681545,11.9009281 134.681545,9.27723054 C134.681545,8.26054774 133.404392,8.12526334 132.789939,8.12526334 C131.981075,8.12526334 130.895494,8.28924443 130.760683,9.49177248 L125.197969,9.49177248 C125.197969,6.52371463 127.390416,4.77731595 133.144704,4.77731595 C140.041334,4.77731595 140.457119,7.24796447 140.457119,10.5945454 L140.457119,17.1537892 C140.457119,17.9600296 140.4855,18.3563173 141.237602,18.9480157 L141.243278,18.9548483 Z M134.668774,13.0078005 C132.781424,13.8905654 130.276784,13.4587485 130.276784,15.2803052 C130.276784,15.9772248 130.972123,16.455503 132.113047,16.455503 C134.142303,16.455503 134.667355,15.1436543 134.667355,12.9982349 L134.668774,13.0078005 Z M151.713101,9.868929 L147.427541,9.868929 L147.427541,5.23646302 L141.637777,5.23646302 L141.637777,19.2746114 L147.421864,19.2746114 L147.421864,13.9998861 L151.707425,13.9998861 L151.707425,19.2746114 L157.515637,19.2746114 L157.515637,5.25012811 L151.732968,5.25012811 L151.732968,9.93725446 L151.732968,9.89215965 L151.713101,9.868929 Z M173.538241,5.18590218 L157.658962,5.18590218 L157.658962,9.2854296 L162.682433,9.2854296 L162.682433,19.2472812 L168.463683,19.2472812 L168.463683,9.30866025 L173.497088,9.30866025 L173.497088,5.25012811 L173.53966,5.20913284 L173.538241,5.18590218 Z M173.538241,19.214485 L179.427339,19.214485 L179.427339,13.7211183 L173.538241,13.7211183 L173.538241,19.2281501 L173.538241,19.214485 Z M187.970079,8.03644024 L187.913316,8.03644024 L187.913316,5.25012811 L182.662795,5.25012811 L182.662795,19.2705119 L188.438368,19.2705119 L188.438368,14.4330695 C188.438368,11.4130843 189.630379,10.3403747 191.990275,10.3403747 C192.379097,10.3403747 192.794882,10.4496954 193.182285,10.5016227 L193.182285,4.93993054 C192.935369,4.91260035 192.685614,4.85793999 192.430184,4.85793999 C190.180974,4.85793999 188.764752,5.90195297 187.960145,8.09656665 L187.970079,8.03644024 Z M205.215912,5.25969367 L205.215912,12.0034163 C205.215912,14.1706998 204.69086,15.3732278 203.024884,15.3732278 C201.638463,15.3732278 200.938866,14.7582987 200.938866,12.8315208 L200.938866,5.2637932 L195.157617,5.2637932 L195.157617,13.7990093 C195.157617,17.8138131 197.220929,19.6859306 200.385433,19.6859306 C202.779387,19.6859306 204.198446,19.1488926 205.635954,17.2234812 L205.635954,19.2828105 L211,19.2828105 L211,5.25012811 L205.217331,5.25012811 L205.223008,5.25012811 L205.215912,5.25969367 Z" id="Shape"></path>
            </g>
        </g>
    </g>
</svg>