<?xml version="1.0" encoding="UTF-8"?>
<svg width="84px" height="55px" viewBox="0 0 84 55" version="1.1" xmlns="http://www.w3.org/2000/svg" xmlns:xlink="http://www.w3.org/1999/xlink">
    <!-- Generator: Sketch 46.2 (44496) - http://www.bohemiancoding.com/sketch -->
    <title>Group 6</title>
    <desc>Created with Sketch.</desc>
    <defs></defs>
    <g id="Page-1" stroke="none" stroke-width="1" fill="none" fill-rule="evenodd">
        <g id="Index-desktop" transform="translate(-523.000000, -473.000000)" fill-rule="nonzero" fill="#22223C">
            <g id="Group-6" transform="translate(523.000000, 473.000000)">
                <path d="M31.2380952,43.6585366 C31.2380952,38.5004289 27.0259233,34.3170732 21.8253968,34.3170732 C16.6248703,34.3170732 12.4126984,38.5004289 12.4126984,43.6585366 C12.4126984,48.8166443 16.6248703,53 21.8253968,53 C27.0259233,53 31.2380952,48.8166443 31.2380952,43.6585366 Z M33.2380952,43.6585366 C33.2380952,49.9242988 28.1274311,55 21.8253968,55 C15.5233625,55 10.4126984,49.9242988 10.4126984,43.6585366 C10.4126984,37.3927744 15.5233625,32.3170732 21.8253968,32.3170732 C28.1274311,32.3170732 33.2380952,37.3927744 33.2380952,43.6585366 Z" id="Stroke-179"></path>
                <path d="M70.2857143,43.6585366 C70.2857143,38.5004289 66.0735424,34.3170732 60.8730159,34.3170732 C55.6724893,34.3170732 51.4603175,38.5004289 51.4603175,43.6585366 C51.4603175,48.8166443 55.6724893,53 60.8730159,53 C66.0735424,53 70.2857143,48.8166443 70.2857143,43.6585366 Z M72.2857143,43.6585366 C72.2857143,49.9242988 67.1750502,55 60.8730159,55 C54.5709816,55 49.4603175,49.9242988 49.4603175,43.6585366 C49.4603175,37.3927744 54.5709816,32.3170732 60.8730159,32.3170732 C67.1750502,32.3170732 72.2857143,37.3927744 72.2857143,43.6585366 Z" id="Stroke-181"></path>
                <path d="M72.5024622,44.6585366 C71.9501775,44.6585366 71.5024622,44.2108213 71.5024622,43.6585366 C71.5024622,43.1062518 71.9501775,42.6585366 72.5024622,42.6585366 C72.7849284,42.6585366 73.8086315,42.6547311 73.8317464,42.6532515 C74.7414594,42.5950196 75.5521082,42.0595757 75.9597509,41.2442518 L79.4321804,34.3230882 C81.1204709,30.9562993 82,27.2419868 82,23.4774939 C82,20.7951933 80.8055357,18.2510177 78.7386884,16.5325731 L63.7721676,4.09782715 C62.1397613,2.7425017 60.0837575,2 57.9614783,2 L22.3913043,2 C19.4911851,2 16.8401457,3.63322597 15.545124,6.2188996 L2.80660225,31.6220581 C2.27682059,32.6785487 2,33.8476124 2,35.0308476 C2,39.2414482 5.42702696,42.6585366 9.65278261,42.6585366 L11.3284192,42.6585366 C11.880704,42.6585366 12.3284192,43.1062518 12.3284192,43.6585366 C12.3284192,44.2108213 11.880704,44.6585366 11.3284192,44.6585366 L9.65278261,44.6585366 C4.32375565,44.6585366 0,40.3473201 0,35.0308476 C0,33.5362675 0.349507897,32.060232 1.01878905,30.7255516 L13.7570926,5.32282846 C15.3912966,2.0599345 18.7349658,0 22.3913043,0 L57.9614783,0 C60.550455,0 63.0583809,0.905708044 65.0500073,2.55928054 L80.0170606,14.994469 C82.5409958,17.0929513 84,20.2005895 84,23.4774939 C84,27.5533358 83.0477818,31.5746196 81.2199013,35.2197787 L77.7480013,42.1398848 C77.0220873,43.5917853 75.5780982,44.5455585 73.9595075,44.6491666 C73.8662355,44.6551371 72.9517371,44.6585366 72.5024622,44.6585366 Z" id="Stroke-183"></path>
                <path d="M32.2380952,44.6585366 C31.6858105,44.6585366 31.2380952,44.2108213 31.2380952,43.6585366 C31.2380952,43.1062518 31.6858105,42.6585366 32.2380952,42.6585366 L50.4603175,42.6585366 C51.0126022,42.6585366 51.4603175,43.1062518 51.4603175,43.6585366 C51.4603175,44.2108213 51.0126022,44.6585366 50.4603175,44.6585366 L32.2380952,44.6585366 Z" id="Stroke-185"></path>
                <path d="M56.8645014,8.51896562 C57.0390621,7.80382867 57.9003526,7.51603776 58.4697605,7.9825856 L75.8242579,22.2020978 C76.5509211,22.7974937 76.1299099,23.9756098 75.1904762,23.9756098 L54.3650794,23.9756098 C53.7168038,23.9756098 53.2398751,23.368263 53.3936019,22.7384778 L56.8645014,8.51896562 Z M55.6385335,21.9756098 L72.3921752,21.9756098 L58.4308071,10.5362785 L55.6385335,21.9756098 Z" id="Stroke-187"></path>
                <path d="M25.7301587,7.75609756 C26.2824435,7.75609756 26.7301587,8.20381281 26.7301587,8.75609756 C26.7301587,9.30838231 26.2824435,9.75609756 25.7301587,9.75609756 L1,9.75609756 C0.44771525,9.75609756 0,9.30838231 0,8.75609756 C0,8.20381281 0.44771525,7.75609756 1,7.75609756 L25.7301587,7.75609756 Z" id="Stroke-189"></path>
                <path d="M19.2222222,18.097561 C19.774507,18.097561 20.2222222,18.5452762 20.2222222,19.097561 C20.2222222,19.6498457 19.774507,20.097561 19.2222222,20.097561 L1,20.097561 C0.44771525,20.097561 0,19.6498457 0,19.097561 C0,18.5452762 0.44771525,18.097561 1,18.097561 L19.2222222,18.097561 Z" id="Stroke-191"></path>
                <path d="M11.4126984,28.4390244 C11.9649832,28.4390244 12.4126984,28.8867396 12.4126984,29.4390244 C12.4126984,29.9913091 11.9649832,30.4390244 11.4126984,30.4390244 L1,30.4390244 C0.44771525,30.4390244 0,29.9913091 0,29.4390244 C0,28.8867396 0.44771525,28.4390244 1,28.4390244 L11.4126984,28.4390244 Z" id="Stroke-193"></path>
            </g>
        </g>
    </g>
</svg>