<?xml version="1.0" encoding="UTF-8"?>
<svg width="59px" height="63px" viewBox="0 0 59 63" version="1.1" xmlns="http://www.w3.org/2000/svg" xmlns:xlink="http://www.w3.org/1999/xlink">
    <!-- Generator: Sketch 46.2 (44496) - http://www.bohemiancoding.com/sketch -->
    <title>Group</title>
    <desc>Created with Sketch.</desc>
    <defs></defs>
    <g id="Page-1" stroke="none" stroke-width="1" fill="none" fill-rule="evenodd">
        <g id="Index-desktop" transform="translate(-204.000000, -467.000000)" fill-rule="nonzero" fill="#22223C">
            <g id="Group" transform="translate(205.000000, 468.000000)">
                <path d="M33.4005688,49.3964604 L55.5683763,28.4471141 C56.2060311,27.8445081 57.2552265,28.2965662 57.2552265,29.173913 L57.2552265,43.7608696 C57.2552265,54.3487791 47.7154372,62 37.7016038,62 L24.4490162,62 C23.8967314,62 23.4490162,61.5522847 23.4490162,61 L23.4490162,34.109612 C15.5210832,33.4295333 10.1964286,24.6922062 10.1964286,14.5869565 C10.1964286,10.538857 10.9674426,6.84210597 12.2536729,3.57089438 C12.705413,2.42200398 13.1905662,1.40659109 13.6776626,0.533331327 C13.9748954,0.000456483354 14.2111033,-0.372366248 14.3550673,-0.576442738 C14.7672249,-1.16069752 15.641572,-1.13618749 16.0203519,-0.529760851 L21.7984987,8.72105145 L27.5766454,-0.529760851 C27.9682666,-1.15674638 28.8813183,-1.15674638 29.2729395,-0.529760851 L35.0510863,8.72105145 L40.829233,-0.529760851 C41.208013,-1.13618749 42.0823601,-1.16069752 42.4945176,-0.576442738 C42.6384817,-0.372366248 42.8746896,0.000456483354 43.1719224,0.533331327 C43.6590188,1.40659109 44.1441719,2.42200398 44.5959121,3.57089438 C45.8821423,6.84210597 46.6531564,10.538857 46.6531564,14.5869565 C46.6531564,24.6922062 41.3285017,33.4295333 33.4005688,34.109612 L33.4005688,49.3964604 Z M33.087419,52.4441903 C32.4497642,53.0467962 31.4005688,52.5947382 31.4005688,51.7173913 L31.4005688,33.1521739 C31.4005688,32.5998892 31.848284,32.1521739 32.4005688,32.1521739 C39.5371052,32.1521739 44.6531564,24.1439269 44.6531564,14.5869565 C44.6531564,10.802855 43.9332543,7.35116849 42.7346244,4.30274693 C42.3878979,3.42093294 42.0214147,2.6272845 41.6526737,1.9271991 L35.8992334,11.1384565 C35.5076121,11.765442 34.5945604,11.765442 34.2029392,11.1384565 L28.4247925,1.8876442 L22.6466457,11.1384565 C22.2550245,11.765442 21.3419728,11.765442 20.9503516,11.1384565 L15.1969112,1.9271991 C14.8281702,2.6272845 14.4616871,3.42093294 14.1149606,4.30274693 C12.9163306,7.35116849 12.1964286,10.802855 12.1964286,14.5869565 C12.1964286,24.1439269 17.3124797,32.1521739 24.4490162,32.1521739 C25.0013009,32.1521739 25.4490162,32.5998892 25.4490162,33.1521739 L25.4490162,60 L37.7016038,60 C46.6958893,60 55.2552265,53.1351335 55.2552265,43.7608696 L55.2552265,31.494844 L33.087419,52.4441903 Z" id="Stroke-488"></path>
                <path d="M-1,29.4833333 C-1,28.6043818 0.0524961747,28.152995 0.689286665,28.7588446 L19.8051403,46.9458817 C20.0035442,47.1346453 20.1158537,47.3965167 20.1158537,47.6703704 L20.1158537,60.6611111 C20.1158537,61.2133959 19.6681384,61.6611111 19.1158537,61.6611111 C8.82152133,61.6611111 -1,54.1713553 -1,43.7731481 L-1,29.4833333 Z M1,31.8150283 L1,43.7731481 C1,52.6011783 9.20270295,59.1739034 18.1158537,59.6352004 L18.1158537,48.0992429 L1,31.8150283 Z" id="Stroke-490"></path>
            </g>
        </g>
    </g>
</svg>