<?xml version="1.0" encoding="UTF-8"?>
<svg width="24px" height="16px" viewBox="0 0 24 16" version="1.1" xmlns="http://www.w3.org/2000/svg" xmlns:xlink="http://www.w3.org/1999/xlink">
    <!-- Generator: Sketch 46.2 (44496) - http://www.bohemiancoding.com/sketch -->
    <title>Group 6 Copy</title>
    <desc>Created with Sketch.</desc>
    <defs></defs>
    <g id="Page-1" stroke="none" stroke-width="1" fill="none" fill-rule="evenodd">
        <g id="Index-desktop" transform="translate(-315.000000, -2609.000000)" fill-rule="nonzero" fill="#A3A3A3">
            <g id="Group-12-Copy-2" transform="translate(130.000000, 2226.000000)">
                <g id="Group-5" transform="translate(0.000000, 373.000000)">
                    <g id="Group-6-Copy" transform="translate(186.000000, 11.000000)">
                        <path d="M7.88095238,11.2682927 C7.88095238,10.0381624 6.85666382,9.03658537 5.58730159,9.03658537 C4.31793936,9.03658537 3.29365079,10.0381624 3.29365079,11.2682927 C3.29365079,12.4984229 4.31793936,13.5 5.58730159,13.5 C6.85666382,13.5 7.88095238,12.4984229 7.88095238,11.2682927 Z M8.88095238,11.2682927 C8.88095238,13.0557884 7.40399227,14.5 5.58730159,14.5 C3.77061091,14.5 2.29365079,13.0557884 2.29365079,11.2682927 C2.29365079,9.48079692 3.77061091,8.03658537 5.58730159,8.03658537 C7.40399227,8.03658537 8.88095238,9.48079692 8.88095238,11.2682927 Z" id="Stroke-179"></path>
                        <path d="M18.3571429,11.2682927 C18.3571429,10.0381624 17.3328543,9.03658537 16.0634921,9.03658537 C14.7941298,9.03658537 13.7698413,10.0381624 13.7698413,11.2682927 C13.7698413,12.4984229 14.7941298,13.5 16.0634921,13.5 C17.3328543,13.5 18.3571429,12.4984229 18.3571429,11.2682927 Z M19.3571429,11.2682927 C19.3571429,13.0557884 17.8801827,14.5 16.0634921,14.5 C14.2468014,14.5 12.7698413,13.0557884 12.7698413,11.2682927 C12.7698413,9.48079692 14.2468014,8.03658537 16.0634921,8.03658537 C17.8801827,8.03658537 19.3571429,9.48079692 19.3571429,11.2682927 Z" id="Stroke-181"></path>
                        <path d="M19.1835874,11.7682927 C19.3677886,11.7681281 19.5559294,11.7674395 19.5888125,11.7653671 C20.1036094,11.7329229 20.5641897,11.4334002 20.7967679,10.9754016 L21.7281024,9.14774567 C22.2355787,8.15135943 22.5,7.05192812 22.5,5.93745122 C22.5,4.99999318 22.0764125,4.11169174 21.3448891,3.51286849 L17.3292751,0.228050019 C16.7535833,-0.242546502 16.029511,-0.5 15.2823478,-0.5 L5.73913043,-0.5 C4.67240279,-0.5 3.69551841,0.0925385359 3.21686939,1.03346831 L-0.2006713,7.74351759 C-0.397281639,8.12954521 -0.5,8.55664683 -0.5,8.98928049 C-0.5,10.5258028 0.765641845,11.7682927 2.32147826,11.7682927 L2.7710393,11.7682927 C3.04718168,11.7682927 3.2710393,11.5444351 3.2710393,11.2682927 C3.2710393,10.9921503 3.04718168,10.7682927 2.7710393,10.7682927 L2.32147826,10.7682927 C1.31383642,10.7682927 0.5,9.96934352 0.5,8.98928049 C0.5,8.71456673 0.565320989,8.4429629 0.69041043,8.19736046 L4.1080626,1.48709217 C4.41535634,0.883013287 5.04680843,0.5 5.73913043,0.5 L15.2823478,0.5 C15.7991801,0.5 16.2995768,0.67792266 16.6962476,1.00217933 L20.7115945,4.28677925 C21.2116813,4.69614912 21.5,5.30077964 21.5,5.93745122 C21.5,6.89400614 21.272977,7.8379399 20.8370678,8.69381027 L19.9054628,10.5219982 C19.8337652,10.6631858 19.6894426,10.7570411 19.5259141,10.7673471 C19.5275715,10.7672427 19.3733918,10.767807 19.1835874,10.7682927 C18.9074451,10.7682927 18.6835874,10.9921503 18.6835874,11.2682927 C18.6835874,11.5444351 18.9074451,11.7682927 19.1835874,11.7682927 Z" id="Stroke-183"></path>
                        <path d="M8.38095238,11.7682927 L13.2698413,11.7682927 C13.5459836,11.7682927 13.7698413,11.5444351 13.7698413,11.2682927 C13.7698413,10.9921503 13.5459836,10.7682927 13.2698413,10.7682927 L8.38095238,10.7682927 C8.10481001,10.7682927 7.88095238,10.9921503 7.88095238,11.2682927 C7.88095238,11.5444351 8.10481001,11.7682927 8.38095238,11.7682927 Z" id="Stroke-185"></path>
                        <path d="M15.297711,3.92882558 L16.2300025,0.195416862 C16.2969052,-0.0724985034 16.1339522,-0.343922154 15.8660368,-0.41082483 C15.5981215,-0.477727505 15.3266978,-0.314774524 15.2597952,-0.0468591577 L14.3272996,3.68736942 L13.8321526,5.68455989 C13.7539743,5.99989515 13.9925785,6.30487805 14.3174603,6.30487805 L21.777363,6.30487805 C22.0535053,6.30487805 22.277363,6.08102042 22.277363,5.80487805 C22.277363,5.52873567 22.0535053,5.30487805 21.777363,5.30487805 L14.9565581,5.30487805 L15.297711,3.92882558 Z" id="Stroke-187"></path>
                        <path d="M6.63492063,1.54878049 L0,1.54878049 C-0.276142375,1.54878049 -0.5,1.77263811 -0.5,2.04878049 C-0.5,2.32492286 -0.276142375,2.54878049 0,2.54878049 L6.63492063,2.54878049 C6.91106301,2.54878049 7.13492063,2.32492286 7.13492063,2.04878049 C7.13492063,1.77263811 6.91106301,1.54878049 6.63492063,1.54878049 Z" id="Stroke-189"></path>
                        <path d="M4.88888889,4.2804878 L0,4.2804878 C-0.276142375,4.2804878 -0.5,4.50434543 -0.5,4.7804878 C-0.5,5.05663018 -0.276142375,5.2804878 0,5.2804878 L4.88888889,5.2804878 C5.16503126,5.2804878 5.38888889,5.05663018 5.38888889,4.7804878 C5.38888889,4.50434543 5.16503126,4.2804878 4.88888889,4.2804878 Z" id="Stroke-191"></path>
                        <path d="M2.79365079,7.01219512 L0,7.01219512 C-0.276142375,7.01219512 -0.5,7.23605275 -0.5,7.51219512 C-0.5,7.7883375 -0.276142375,8.01219512 0,8.01219512 L2.79365079,8.01219512 C3.06979317,8.01219512 3.29365079,7.7883375 3.29365079,7.51219512 C3.29365079,7.23605275 3.06979317,7.01219512 2.79365079,7.01219512 Z" id="Stroke-193"></path>
                    </g>
                </g>
            </g>
        </g>
    </g>
</svg>