<?xml version="1.0" encoding="UTF-8"?>
<svg width="57px" height="63px" viewBox="0 0 57 63" version="1.1" xmlns="http://www.w3.org/2000/svg" xmlns:xlink="http://www.w3.org/1999/xlink">
    <!-- Generator: Sketch 46.2 (44496) - http://www.bohemiancoding.com/sketch -->
    <title>Group</title>
    <desc>Created with Sketch.</desc>
    <defs></defs>
    <g id="Page-1" stroke="none" stroke-width="1" fill="none" fill-rule="evenodd">
        <g id="Index-desktop" transform="translate(-195.000000, -866.000000)" fill-rule="nonzero" fill="#22223C">
            <g id="Group" transform="translate(195.000000, 866.000000)">
                <path d="M33.7087518,48.9635222 L54.1087256,29.2677429 C54.9318059,28.4730748 56.2926829,29.0648239 56.2926829,30.2173913 L56.2926829,44.326087 C56.2926829,54.7730076 47.0929693,62.3111111 37.4347202,62.3111111 L24.8880918,62.3111111 C24.1741628,62.3111111 23.5954089,61.7241067 23.5954089,61 L23.5954089,35.3019796 C16.0513706,34.4247637 11.0487805,25.9045487 11.0487805,16.1086957 C11.0487805,12.1491203 11.7871177,8.53245334 13.0192692,5.33098031 C13.764949,3.39349646 14.520077,2.01042391 15.046617,1.24787777 C15.5789495,0.476942693 16.7150182,0.509152033 17.2040584,1.30904464 L22.3787661,9.772992 L27.5534739,1.30904464 C28.0590102,0.482170306 29.2451505,0.482170306 29.7506868,1.30904464 L34.9253945,9.772992 L40.1001023,1.30904464 C40.5891425,0.509152033 41.7252112,0.476942693 42.2575437,1.24787777 C42.7840836,2.01042391 43.5392117,3.39349646 44.2848914,5.33098031 C45.5170429,8.53245334 46.2553802,12.1491203 46.2553802,16.1086957 C46.2553802,25.9045487 41.2527901,34.4247637 33.7087518,35.3019796 L33.7087518,48.9635222 Z M33.3073433,52.9713875 C32.484263,53.7660556 31.1233859,53.1743066 31.1233859,52.0217391 L31.1233859,34.0652174 C31.1233859,33.3411107 31.7021398,32.7541063 32.4160689,32.7541063 C38.9378981,32.7541063 43.6700143,25.1865822 43.6700143,16.1086957 C43.6700143,12.4928634 42.9968559,9.19546785 41.8765146,6.28450882 C41.639846,5.66957796 41.3934661,5.09993446 41.1438248,4.5776479 L36.024001,12.9518249 C35.5184647,13.7786993 34.3323244,13.7786993 33.8267881,12.9518249 L28.6520803,4.48787757 L23.4773726,12.9518249 C22.9718363,13.7786993 21.785696,13.7786993 21.2801597,12.9518249 L16.1603359,4.5776479 C15.9106946,5.09993446 15.6643147,5.66957796 15.4276461,6.28450882 C14.3073048,9.19546785 13.6341463,12.4928634 13.6341463,16.1086957 C13.6341463,25.1865822 18.3662626,32.7541063 24.8880918,32.7541063 C25.6020209,32.7541063 26.1807747,33.3411107 26.1807747,34.0652174 L26.1807747,59.6888889 L37.4347202,59.6888889 C45.7720364,59.6888889 53.7073171,53.1868422 53.7073171,44.326087 L53.7073171,33.2756082 L33.3073433,52.9713875 Z" id="Stroke-488"></path>
                <path d="M0.707317073,30.8444444 C0.707317073,29.6897698 2.07247024,29.0989121 2.89441425,29.8978377 L20.9919752,47.4885784 C21.2463896,47.735868 21.3902439,48.0777815 21.3902439,48.4351852 L21.3902439,61 C21.3902439,61.7241067 20.81149,62.3111111 20.097561,62.3111111 C10.1765205,62.3111111 0.707317073,54.9337988 0.707317073,44.6657407 L0.707317073,30.8444444 Z M3.29268293,44.6657407 C3.29268293,52.8784127 10.6772911,59.0435413 18.804878,59.641287 L18.804878,48.9946767 L3.29268293,33.916899 L3.29268293,44.6657407 Z" id="Stroke-490"></path>
            </g>
        </g>
    </g>
</svg>