<?xml version="1.0" encoding="UTF-8"?>
<svg width="48px" height="64px" viewBox="0 0 48 64" version="1.1" xmlns="http://www.w3.org/2000/svg" xmlns:xlink="http://www.w3.org/1999/xlink">
    <!-- Generator: Sketch 46.2 (44496) - http://www.bohemiancoding.com/sketch -->
    <title>Group 14</title>
    <desc>Created with Sketch.</desc>
    <defs></defs>
    <g id="Page-1" stroke="none" stroke-width="1" fill-rule="evenodd">
        <g id="Index-desktop" transform="translate(-872.000000, -863.000000)" fill-rule="nonzero" fill="#22223C">
            <g id="Group-16" transform="translate(805.000000, 863.000000)">
                <g id="Group-14" transform="translate(67.000000, 0.000000)">
                    <g id="Group-2">
                        <path d="M44.7058824,24.173913 C44.7058824,12.6490671 35.434455,3.30434783 24,3.30434783 C12.565545,3.30434783 3.29411765,12.6490671 3.29411765,24.173913 C3.29411765,35.698759 12.565545,45.0434783 24,45.0434783 C35.434455,45.0434783 44.7058824,35.698759 44.7058824,24.173913 Z M47.2941176,24.173913 C47.2941176,37.1395018 36.8638979,47.6521739 24,47.6521739 C11.1361021,47.6521739 0.705882353,37.1395018 0.705882353,24.173913 C0.705882353,11.2083242 11.1361021,0.695652174 24,0.695652174 C36.8638979,0.695652174 47.2941176,11.2083242 47.2941176,24.173913 Z" id="Stroke-102"></path>
                        <path d="M36.9411765,24.173913 C36.9411765,16.9690671 31.1483374,11.1304348 24,11.1304348 C16.8516626,11.1304348 11.0588235,16.9690671 11.0588235,24.173913 C11.0588235,31.378759 16.8516626,37.2173913 24,37.2173913 C31.1483374,37.2173913 36.9411765,31.378759 36.9411765,24.173913 Z M39.5294118,24.173913 C39.5294118,32.8195018 32.5777803,39.826087 24,39.826087 C15.4222197,39.826087 8.47058824,32.8195018 8.47058824,24.173913 C8.47058824,15.5283242 15.4222197,8.52173913 24,8.52173913 C32.5777803,8.52173913 39.5294118,15.5283242 39.5294118,24.173913 Z" id="Stroke-103"></path>
                        <path d="M36.2258058,55.6159645 C35.8104312,55.4066354 35.3156181,55.4376849 34.9292115,55.6973257 L28.5742684,59.9674456 L23.9335902,45.9353551 C23.7075754,45.2519508 22.9746907,44.8826116 22.2966464,45.1104131 C21.6186021,45.3382145 21.2521598,46.0768928 21.4781746,46.7602971 L26.6546451,62.412471 C26.9244844,63.2283882 27.8902061,63.5623542 28.6002003,63.085283 L35.7400317,58.2877678 L45.421253,63.1666442 C46.4732598,63.6968057 47.6247042,62.6520098 47.2117201,61.5420129 L39.4470142,40.6724477 C39.1960588,39.9979429 38.4501136,39.6561966 37.7808991,39.9091359 C37.1116845,40.1620751 36.7726186,40.9139171 37.023574,41.5884219 L43.6311464,59.3479049 L36.2258058,55.6159645 Z" id="Stroke-104"></path>
                        <path d="M19.3997997,63.085283 C20.0933318,63.5512927 21.0366981,63.2446075 21.3293672,62.4579871 L25.2117201,52.0232045 C25.4626756,51.3486997 25.1236096,50.5968578 24.454395,50.3439185 C23.7851805,50.0909792 23.0392353,50.4327255 22.7882799,51.1072303 L19.4785532,60.0029384 L13.0707885,55.6973257 C12.6843819,55.4376849 12.1895688,55.4066354 11.7741942,55.6159645 L4.36885363,59.3479049 L10.976426,41.5884219 C11.2273814,40.9139171 10.8883155,40.1620751 10.2191009,39.9091359 C9.54988639,39.6561966 8.80394122,39.9979429 8.55298577,40.6724477 L0.788279888,61.5420129 C0.375295756,62.6520098 1.52674024,63.6968057 2.57874701,63.1666442 L12.2599683,58.2877678 L19.3997997,63.085283 Z" id="Stroke-105"></path>
                    </g>
                </g>
            </g>
        </g>
    </g>
</svg>