<?xml version="1.0" encoding="UTF-8"?>
<svg width="84px" height="55px" viewBox="0 0 84 55" version="1.1" xmlns="http://www.w3.org/2000/svg" xmlns:xlink="http://www.w3.org/1999/xlink">
    <!-- Generator: Sketch 46.2 (44496) - http://www.bohemiancoding.com/sketch -->
    <title>Group 12</title>
    <desc>Created with Sketch.</desc>
    <defs></defs>
    <g id="Page-1" stroke-width="1" fill-rule="evenodd" stroke-linecap="round" stroke-linejoin="round">
        <g id="Index-desktop" transform="translate(-521.000000, -868.000000)" stroke-width="2">
            <g id="Group-12" transform="translate(522.000000, 869.000000)">
                <g id="Group-6">
                    <path d="M31.2380952,42.6585366 C31.2380952,48.3704715 26.5766772,53 20.8253968,53 C15.0741164,53 10.4126984,48.3704715 10.4126984,42.6585366 C10.4126984,36.9466016 15.0741164,32.3170732 20.8253968,32.3170732 C26.5766772,32.3170732 31.2380952,36.9466016 31.2380952,42.6585366 L31.2380952,42.6585366 Z" id="Stroke-179"></path>
                    <path d="M70.2857143,42.6585366 C70.2857143,48.3704715 65.6242963,53 59.8730159,53 C54.1217354,53 49.4603175,48.3704715 49.4603175,42.6585366 C49.4603175,36.9466016 54.1217354,32.3170732 59.8730159,32.3170732 C65.6242963,32.3170732 70.2857143,36.9466016 70.2857143,42.6585366 L70.2857143,42.6585366 Z" id="Stroke-181"></path>
                    <path d="M71.5024622,42.6585366 C71.5793299,42.6585366 72.8196154,42.6560747 72.895627,42.6512091 C74.1557854,42.5705446 75.2853195,41.8292371 75.8535652,40.692689 L79.326087,33.7713415 C81.0837391,30.2662317 82,26.3985244 82,22.4774939 C82,19.4985061 80.6737391,16.672378 78.3777391,14.7634085 L63.4109565,2.32844512 C61.5998261,0.824731707 59.318087,0 56.9614783,0 L21.3913043,0 C18.1148696,0 15.1165217,1.84498171 13.6512174,4.77064634 L0.912695652,30.1738049 C0.31373913,31.3682439 0,32.6906585 0,34.0308476 C0,38.7943841 3.8753913,42.6585366 8.65278261,42.6585366 L10.3284192,42.6585366" id="Stroke-183"></path>
                    <path d="M31.2380952,42.6585366 L49.4603175,42.6585366" id="Stroke-185"></path>
                    <polygon id="Stroke-187" points="56.8359788 7.75609756 53.3650794 21.9756098 74.1904762 21.9756098"></polygon>
                    <path d="M24.7301587,7.75609756 L0,7.75609756" id="Stroke-189"></path>
                    <path d="M18.2222222,18.097561 L0,18.097561" id="Stroke-191"></path>
                    <path d="M10.4126984,28.4390244 L0,28.4390244" id="Stroke-193"></path>
                </g>
            </g>
        </g>
    </g>
</svg>