<?xml version="1.0" encoding="UTF-8"?>
<svg width="47px" height="63px" viewBox="0 0 47 63" version="1.1" xmlns="http://www.w3.org/2000/svg" xmlns:xlink="http://www.w3.org/1999/xlink">
    <!-- Generator: Sketch 46.2 (44496) - http://www.bohemiancoding.com/sketch -->
    <title>Group 2</title>
    <desc>Created with Sketch.</desc>
    <defs></defs>
    <g id="Page-1" stroke="none" stroke-width="1" fill="none" fill-rule="evenodd">
        <g id="Index-desktop" transform="translate(-869.000000, -468.000000)" fill-rule="nonzero" fill="#22223C">
            <g id="Group-2" transform="translate(868.000000, 468.000000)">
                <path d="M46,23.5434783 C46,11.646027 36.3725767,2 24.5,2 C12.6274233,2 3,11.646027 3,23.5434783 C3,35.4409296 12.6274233,45.0869565 24.5,45.0869565 C36.3725767,45.0869565 46,35.4409296 46,23.5434783 Z M48,23.5434783 C48,36.5446357 37.4780115,47.0869565 24.5,47.0869565 C11.5219885,47.0869565 1,36.5446357 1,23.5434783 C1,10.5423209 11.5219885,0 24.5,0 C37.4780115,0 48,10.5423209 48,23.5434783 Z" id="Stroke-102"></path>
                <path d="M38.0588235,23.5434783 C38.0588235,16.038027 31.9890473,9.95652174 24.5,9.95652174 C17.0109527,9.95652174 10.9411765,16.038027 10.9411765,23.5434783 C10.9411765,31.0489296 17.0109527,37.1304348 24.5,37.1304348 C31.9890473,37.1304348 38.0588235,31.0489296 38.0588235,23.5434783 Z M40.0588235,23.5434783 C40.0588235,32.1526357 33.0944821,39.1304348 24.5,39.1304348 C15.9055179,39.1304348 8.94117647,32.1526357 8.94117647,23.5434783 C8.94117647,14.9343209 15.9055179,7.95652174 24.5,7.95652174 C33.0944821,7.95652174 40.0588235,14.9343209 40.0588235,23.5434783 Z" id="Stroke-103"></path>
                <path d="M38.1222718,41.1331382 C37.9286797,40.615895 38.1910508,40.0396491 38.708294,39.846057 C39.2255372,39.6524649 39.8017831,39.914836 39.9953752,40.4320792 L47.9365517,61.6494705 C48.2551597,62.5007336 47.3647559,63.3011968 46.5520955,62.8940814 L36.4837106,57.850161 L29.0260298,62.8315555 C28.477217,63.1981378 27.7300648,62.9419146 27.5217221,62.3156787 L22.2276044,46.4026352 C22.0532599,45.8785909 22.3367476,45.3124349 22.8607919,45.1380904 C23.3848362,44.9637458 23.9509922,45.2472335 24.1253367,45.7712778 L29.0055215,60.4401232 L35.8563231,55.8640966 C36.1552272,55.6644422 36.5382901,55.6405707 36.8596692,55.8015708 L45.1706305,59.9650813 L38.1222718,41.1331382 Z" id="Stroke-104"></path>
                <path d="M12.5162894,57.850161 L2.44790454,62.8940814 C1.63524409,63.3011968 0.744840316,62.5007336 1.06344832,61.6494705 L9.00462479,40.4320792 C9.1982169,39.914836 9.77446279,39.6524649 10.291706,39.846057 C10.8089492,40.0396491 11.0713203,40.615895 10.8777282,41.1331382 L3.8293695,59.9650813 L12.1403308,55.8015708 C12.4617099,55.6405707 12.8447728,55.6644422 13.1436769,55.8640966 L20.0352882,60.4673823 L23.5634483,51.0407748 C23.7570404,50.5235316 24.3332863,50.2611606 24.8505295,50.4547527 C25.3677727,50.6483448 25.6301438,51.2245907 25.4365517,51.7418339 L21.4659634,62.3505295 C21.2399727,62.954336 20.5100843,63.1896556 19.9739702,62.8315555 L12.5162894,57.850161 Z" id="Stroke-105"></path>
            </g>
        </g>
    </g>
</svg>