<?xml version="1.0" encoding="UTF-8"?>
<svg width="23px" height="23px" viewBox="0 0 23 23" version="1.1" xmlns="http://www.w3.org/2000/svg" xmlns:xlink="http://www.w3.org/1999/xlink">
    <!-- Generator: Sketch 46.2 (44496) - http://www.bohemiancoding.com/sketch -->
    <title>Group 2 Copy</title>
    <desc>Created with Sketch.</desc>
    <defs></defs>
    <g id="Page-1" stroke="none" stroke-width="1" fill="none" fill-rule="evenodd">
        <g id="Order-desktop" transform="translate(-396.000000, -786.000000)">
            <g id="Group-2-Copy" transform="translate(396.000000, 786.000000)">
                <path d="M11.5,22.5 C5.42486775,22.5 0.5,17.5751322 0.5,11.5 C0.5,5.42486775 5.42486775,0.5 11.5,0.5 C17.5751322,0.5 22.5,5.42486775 22.5,11.5 C22.5,17.5751322 17.5751322,22.5 11.5,22.5 Z M11.5,21.5 C17.0228475,21.5 21.5,17.0228475 21.5,11.5 C21.5,5.9771525 17.0228475,1.5 11.5,1.5 C5.9771525,1.5 1.5,5.9771525 1.5,11.5 C1.5,17.0228475 5.9771525,21.5 11.5,21.5 Z" id="Oval-2" fill="#D4D4D4" fill-rule="nonzero"></path>
                <path d="M9.963,13.478 L11.185,13.478 L11.185,12.945 C11.185,11.372 13.486,11.164 13.486,9.019 C13.486,7.576 12.238,6.64 10.769,6.64 C9.833,6.64 9.001,7.03 8.507,7.472 L9.209,8.369 C9.612,8.044 10.145,7.823 10.678,7.823 C11.536,7.823 12.16,8.382 12.16,9.11 C12.16,10.67 9.963,10.891 9.963,12.867 L9.963,13.478 Z M9.924,16 L11.224,16 L11.224,14.713 L9.924,14.713 L9.924,16 Z" id="?" fill="#22223C" opacity="0.18676404"></path>
            </g>
        </g>
    </g>
</svg>