<?xml version="1.0" encoding="UTF-8"?>
<svg width="70px" height="69px" viewBox="0 0 70 69" version="1.1" xmlns="http://www.w3.org/2000/svg" xmlns:xlink="http://www.w3.org/1999/xlink">
    <!-- Generator: Sketch 46.2 (44496) - http://www.bohemiancoding.com/sketch -->
    <title>Page 1</title>
    <desc>Created with Sketch.</desc>
    <defs>
        <polygon id="path-1" points="8.7773119e-15 68.7994352 8.7773119e-15 0.0829980042 69.157861 0.0829980042 69.157861 68.7994352"></polygon>
    </defs>
    <g id="Page-1" stroke="none" stroke-width="1" fill="none" fill-rule="evenodd">
        <g id="Index-desktop" transform="translate(-568.000000, -5286.000000)">
            <g id="Group-4" transform="translate(568.000000, 5281.000000)">
                <g id="Page-1" transform="translate(0.000000, 5.042553)">
                    <g id="Group-3" transform="translate(0.000000, 0.032437)">
                        <mask id="mask-2" fill="white">
                            <use xlink:href="#path-1"></use>
                        </mask>
                        <g id="Clip-2"></g>
                        <path d="M34.5789421,0.0829749171 C53.6763863,0.0829749171 69.1579307,15.4656565 69.1579307,34.4412628 C69.1579307,53.4166382 53.6763863,68.7994352 34.5789421,68.7994352 C15.4814979,68.7994352 -4.64708891e-05,53.4166382 -4.64708891e-05,34.4412628 C-4.64708891e-05,15.4656565 15.4814979,0.0829749171 34.5789421,0.0829749171" id="Fill-1" fill="#34ABE0" mask="url(#mask-2)"></path>
                    </g>
                    <path d="M28.2394647,50.2211111 C27.1191678,50.2211111 27.3095823,49.8008111 26.923293,48.7411147 L23.6288555,37.9683432 L48.9868579,23.0208528" id="Fill-4" fill="#B5DAEB"></path>
                    <path d="M28.2394647,50.2211111 C29.1039395,50.2211111 29.4859302,49.8284001 29.9684142,49.3622723 L34.5789073,44.9077382 L28.8279024,41.4617627" id="Fill-6" fill="#93C3DF"></path>
                    <path d="M28.8273796,41.4626746 L42.7626051,51.6925538 C44.3528389,52.5643214 45.5005537,52.1129693 45.896718,50.2256016 L51.5690709,23.6657785 C52.1498409,21.352339 50.6814769,20.3030318 49.1602524,20.9892949 L15.8520103,33.7506709 C13.578422,34.6569537 13.5916662,35.9172767 15.4376061,36.4787541 L23.9852291,39.1296111 L43.7738116,26.7248148 C44.7079927,26.1619521 45.5654968,26.4646236 44.8618113,27.0852039" id="Fill-8" fill="#FFFFFF"></path>
                </g>
            </g>
        </g>
    </g>
</svg>