<?xml version="1.0" encoding="UTF-8"?>
<svg width="37px" height="41px" viewBox="0 0 37 41" version="1.1" xmlns="http://www.w3.org/2000/svg" xmlns:xlink="http://www.w3.org/1999/xlink">
    <!-- Generator: Sketch 49 (51002) - http://www.bohemiancoding.com/sketch -->
    <title>flower</title>
    <desc>Created with Sketch.</desc>
    <defs></defs>
    <g id="Page-1" stroke="none" stroke-width="1" fill="none" fill-rule="evenodd">
        <g id="Order-desktop" transform="translate(-201.000000, -755.000000)" fill="#22223C" fill-rule="nonzero">
            <g id="flower" transform="translate(202.000000, 756.000000)">
                <path d="M20.3970588,31.3324258 L34.4866716,18.1053705 C34.9655427,17.6558156 35.75,17.9953503 35.75,18.6521739 L35.75,27.9782609 C35.75,34.8160586 29.55722,39.75 23.0588235,39.75 L14.5294118,39.75 C14.1151982,39.75 13.7794118,39.4142136 13.7794118,39 L13.7794118,21.9091837 C8.66682975,21.4074609 5.25,15.7972027 5.25,9.32608696 C5.25,6.72272201 5.74918651,4.3451311 6.58205275,2.24095761 C6.87472015,1.50155556 7.18915229,0.847812493 7.50504838,0.285226195 C7.69833774,-0.0590070988 7.85246712,-0.300669844 7.94732701,-0.43424879 C8.25667622,-0.869865344 8.9093489,-0.851522565 9.19374392,-0.399219362 L12.8235294,5.3736089 L16.4533149,-0.399219362 C16.7473957,-0.866926879 17.4290749,-0.866926879 17.7231557,-0.399219362 L21.3529412,5.3736089 L24.9827267,-0.399219362 C25.2671217,-0.851522565 25.9197944,-0.869865344 26.2291436,-0.43424879 C26.3240035,-0.300669844 26.4781328,-0.0590070988 26.6714222,0.285226195 C26.9873183,0.847812493 27.3017504,1.50155556 27.5944178,2.24095761 C28.4272841,4.3451311 28.9264706,6.72272201 28.9264706,9.32608696 C28.9264706,15.7972027 25.5096408,21.4074609 20.3970588,21.9091837 L20.3970588,31.3324258 Z M20.1603872,33.6120208 C19.6815161,34.0615757 18.8970588,33.722041 18.8970588,33.0652174 L18.8970588,21.1956522 C18.8970588,20.7814386 19.2328453,20.4456522 19.6470588,20.4456522 C24.1702786,20.4456522 27.4264706,15.3824069 27.4264706,9.32608696 C27.4264706,6.92197907 26.9660983,4.72925748 26.1996998,2.79300979 C26.0046939,2.30034218 25.7999762,1.85117107 25.5932076,1.44786846 L21.9878616,7.18182806 C21.6937808,7.64953557 21.0121016,7.64953557 20.7180208,7.18182806 L17.0882353,1.4089998 L13.4584498,7.18182806 C13.164369,7.64953557 12.4826898,7.64953557 12.188609,7.18182806 L8.58326301,1.44786846 C8.37649441,1.85117107 8.17177667,2.30034218 7.97677078,2.79300979 C7.21037232,4.72925748 6.75,6.92197907 6.75,9.32608696 C6.75,15.3824069 10.006192,20.4456522 14.5294118,20.4456522 C14.9436253,20.4456522 15.2794118,20.7814386 15.2794118,21.1956522 L15.2794118,38.25 L23.0588235,38.25 C28.7941189,38.25 34.25,33.9031642 34.25,27.9782609 L34.25,20.3849655 L20.1603872,33.6120208 Z" id="Stroke-488"></path>
                <path d="M-0.75,19 C-0.75,18.3369023 0.047371093,18.0000227 0.522808795,18.4622538 L12.5228088,30.1289205 C12.6680541,30.2701312 12.75,30.4640915 12.75,30.6666667 L12.75,39 C12.75,39.4142136 12.4142136,39.75 12,39.75 C5.47398869,39.75 -0.75,34.8998521 -0.75,28.1666667 L-0.75,19 Z M0.75,20.7751992 L0.75,28.1666667 C0.75,33.7254478 5.76589583,37.8757607 11.25,38.2260165 L11.25,30.9835325 L0.75,20.7751992 Z" id="Stroke-490"></path>
            </g>
        </g>
    </g>
</svg>