<?xml version="1.0" encoding="UTF-8"?>
<svg width="41px" height="32px" viewBox="0 0 41 32" version="1.1" xmlns="http://www.w3.org/2000/svg" xmlns:xlink="http://www.w3.org/1999/xlink">
    <!-- Generator: Sketch 49 (51002) - http://www.bohemiancoding.com/sketch -->
    <title>lotos</title>
    <desc>Created with Sketch.</desc>
    <defs></defs>
    <g id="Page-1" stroke="none" stroke-width="1" fill="none" fill-rule="evenodd">
        <g id="Order-desktop" transform="translate(-199.000000, -829.000000)" fill="#22223C" fill-rule="nonzero">
            <g id="lotos" transform="translate(200.000000, 830.000000)">
                <path d="M11.764122,15.0482519 C11.6009719,14.9154388 11.501103,14.7202098 11.4888783,14.5101911 C11.484447,14.4340609 11.4791436,14.3646886 11.4680363,14.2315813 C11.4408453,13.9060161 11.4319222,13.7623635 11.4319222,13.5696759 C11.4319222,8.05680967 14.1155626,2.94219884 18.6840148,-0.593138834 C18.9542814,-0.802287055 19.3317598,-0.802287055 19.6020264,-0.593138834 C24.1704786,2.94219884 26.854119,8.05680967 26.854119,13.5696759 C26.854119,13.7675381 26.8443754,13.9215614 26.8179001,14.2284004 C26.8037809,14.3919633 26.79848,14.4580397 26.7935041,14.5380675 C26.7805654,14.7461599 26.681589,14.9394753 26.520325,15.071626 C26.013289,15.4871262 25.5303977,15.9284862 25.0706173,16.3986641 C22.3181496,19.2133769 20.5959518,22.7957392 20.0688012,26.6414699 C20.0421207,26.8361123 19.9401313,27.0125146 19.7847594,27.1327523 C19.7755202,27.1399022 19.7700648,27.1445779 19.7321498,27.1780388 C19.6813108,27.2233266 19.6464498,27.2532053 19.6020306,27.28758 C19.3351045,27.4941462 18.9630784,27.4969654 18.6930524,27.2944683 C18.650174,27.2623131 18.617085,27.2343508 18.5715365,27.1939584 C18.3801413,27.0420275 18.278359,26.8654873 18.2519192,26.6707977 C17.7279355,22.8124464 16.004572,19.2188534 13.2467488,16.3986641 C12.7824946,15.9239111 12.2896351,15.4760483 11.764122,15.0482519 Z M14.3192009,15.3499285 C16.6313903,17.7144064 18.2721514,20.5813272 19.1581006,23.6928024 C20.0436202,20.5822255 21.6849858,17.7154188 23.9981653,15.3499285 C24.4213104,14.9172142 24.8623863,14.5071142 25.3218675,14.1178216 C25.3463331,13.8342795 25.354119,13.7112026 25.354119,13.5696759 C25.354119,8.72246455 23.074527,4.19909303 19.1430206,0.959675755 C15.2115142,4.19909303 12.9319222,8.72246455 12.9319222,13.5696759 C12.9319222,13.7071507 12.9390714,13.8222459 12.9613795,14.0893427 C13.4375139,14.4925054 13.8892589,14.9102637 14.3192009,15.3499285 Z M19.2720607,26.5322573 L19.31549,26.5263594 L18.8667394,25.9464811 C18.8223202,25.9808558 18.7874592,26.0107346 18.7366202,26.0560223 C18.6987052,26.0894832 18.6932498,26.0941589 18.6840106,26.1013089 L18.9873023,26.4932243 L19.2720607,26.5322573 Z M19.0417169,26.5635392 L19.2638069,26.5333782 L19.5929888,26.0944206 C19.5917163,26.0934663 19.5923841,26.0940307 19.5652761,26.0703564 L19.5548211,26.0611071 C19.5160003,26.0267665 19.4893925,26.0041076 19.4548134,25.9772819 L19.0208885,26.5366246 L19.0417169,26.5635392 Z" id="Stroke-1415"></path>
                <path d="M4.54266408,25.2958189 C0.686054947,21.3502269 -1.04348302,16.2955884 -0.709744856,10.6731552 C-0.687280794,10.2947067 -0.385930088,9.99253324 -0.00754430136,9.96903741 C5.5015324,9.62695186 10.456589,11.3999665 14.3163716,15.3470352 C18.2406826,19.3600916 20.2153191,24.7955478 19.8888745,30.2970153 C19.8664115,30.675577 19.5648998,30.9778048 19.1863924,31.0011657 C13.7957919,31.3338663 8.4703434,29.3105194 4.54266408,25.2958189 Z M18.4191287,29.5323206 C18.5278763,24.6813251 16.7083218,19.9385181 13.2439195,16.3957709 C9.85556448,12.9307907 5.57074102,11.2978 0.75810245,11.4355814 C0.619125978,16.3759488 2.21896463,20.7725092 5.61499864,24.246963 C9.0719038,27.780394 13.6937139,29.6371771 18.4191287,29.5323206 Z" id="Stroke-1417"></path>
                <path d="M32.7015456,24.246963 C36.0989398,20.7727393 37.6991671,16.3764003 37.5601822,11.4355883 C32.7460689,11.2977569 28.4611447,12.9306221 25.0726247,16.3957709 C21.6082223,19.9385182 19.7886678,24.6813253 19.8974156,29.532321 C24.623493,29.6372004 29.2465821,27.780058 32.7015456,24.246963 Z M19.1301518,31.0011657 C18.7516444,30.9778048 18.4501328,30.675577 18.4276698,30.2970153 C18.1012252,24.7955478 20.0758617,19.3600916 24.0001726,15.3470352 C27.8600909,11.3998278 32.8151672,9.62697213 38.3258128,9.96903642 C38.7042052,9.9925245 39.005565,10.2947006 39.0280294,10.6731552 C39.3618002,16.2961383 37.6318632,21.3505904 33.7739977,25.2956987 C29.8483184,29.3101544 24.5213326,31.3339022 19.1301518,31.0011657 Z" id="Stroke-1419"></path>
            </g>
        </g>
    </g>
</svg>