  <svg 
   xmlns="http://www.w3.org/2000/svg"
   xmlns:xlink="http://www.w3.org/1999/xlink"
   width="11px" height="9px">
  <path fill-rule="evenodd"  fill="rgb(255, 255, 255)"
   d="M5.500,9.000 C5.122,9.000 4.792,8.810 4.612,8.526 L4.612,8.526 L0.150,1.466 C0.149,1.464 0.147,1.461 0.146,1.458 L0.143,1.455 L0.143,1.455 C0.052,1.311 -0.000,1.143 -0.000,0.964 C-0.000,0.431 0.462,-0.000 1.031,-0.000 L1.031,-0.000 L9.969,-0.000 L9.969,-0.000 C10.538,-0.000 11.000,0.431 11.000,0.964 C11.000,1.143 10.947,1.311 10.856,1.455 L10.856,1.455 L10.854,1.458 C10.853,1.461 10.851,1.464 10.849,1.466 L6.388,8.526 L6.388,8.526 C6.208,8.810 5.878,9.000 5.500,9.000 Z"/>
  </svg>