<svg 
  xmlns="http://www.w3.org/2000/svg"
  xmlns:xlink="http://www.w3.org/1999/xlink"
  width="32px" height="26px">
<path fill-rule="evenodd"  fill="rgb(255, 255, 255)"
  d="M30.499,25.999 L1.500,25.999 C0.671,25.999 -0.001,25.328 -0.001,24.499 L-0.001,4.499 C-0.001,3.671 0.671,2.999 1.500,2.999 L7.906,2.999 L10.308,0.597 C10.582,0.236 11.011,-0.001 11.499,-0.001 L20.500,-0.001 C20.921,-0.001 21.300,0.174 21.573,0.454 L21.574,0.452 L24.121,2.999 L30.499,2.999 C31.328,2.999 31.999,3.671 31.999,4.499 L31.999,24.499 C31.999,25.328 31.328,25.999 30.499,25.999 ZM16.000,4.999 C11.029,4.999 6.999,9.028 6.999,13.999 C6.999,18.970 11.029,22.999 16.000,22.999 C20.970,22.999 24.999,18.970 24.999,13.999 C24.999,9.028 20.970,4.999 16.000,4.999 ZM16.000,19.999 C12.686,19.999 10.000,17.313 10.000,13.999 C10.000,10.686 12.686,7.999 16.000,7.999 C19.313,7.999 21.999,10.686 21.999,13.999 C21.999,17.313 19.313,19.999 16.000,19.999 Z"/>
</svg>