<svg 
  xmlns="http://www.w3.org/2000/svg"
  xmlns:xlink="http://www.w3.org/1999/xlink"
  width="26px" height="26px">
<path fill-rule="evenodd"  fill="rgb(25, 25, 25)"
  d="M13.000,26.000 C5.820,26.000 -0.000,20.179 -0.000,12.999 C-0.000,5.820 5.820,-0.001 13.000,-0.001 C20.180,-0.001 26.000,5.820 26.000,12.999 C26.000,20.179 20.180,26.000 13.000,26.000 ZM13.000,2.437 C7.166,2.437 2.437,7.166 2.437,12.999 C2.437,18.833 7.166,23.562 13.000,23.562 C18.833,23.562 23.562,18.833 23.562,12.999 C23.562,7.166 18.833,2.437 13.000,2.437 ZM16.867,14.050 L10.403,18.102 L10.398,18.094 C10.352,18.123 10.304,18.149 10.254,18.172 C10.252,18.172 10.250,18.173 10.248,18.174 C10.199,18.196 10.149,18.215 10.097,18.230 C10.093,18.231 10.090,18.232 10.086,18.233 C10.064,18.240 10.041,18.246 10.018,18.250 C10.014,18.252 10.010,18.253 10.006,18.254 C9.981,18.259 9.955,18.264 9.928,18.268 C9.924,18.268 9.920,18.268 9.916,18.269 C9.894,18.272 9.872,18.275 9.850,18.277 C9.843,18.277 9.836,18.277 9.829,18.278 C9.803,18.280 9.777,18.281 9.750,18.281 C9.077,18.281 8.531,17.735 8.531,17.062 L8.531,17.062 L8.531,17.062 L8.531,8.937 L8.531,8.937 C8.531,8.264 9.077,7.718 9.750,7.718 C10.005,7.718 10.241,7.797 10.437,7.930 L16.856,11.942 C17.222,12.152 17.469,12.547 17.469,12.999 C17.469,13.447 17.227,13.839 16.867,14.050 Z"/>
</svg>