<?xml version="1.0" encoding="utf-8"?>
<!-- Generator: Adobe Illustrator 21.0.2, SVG Export Plug-In . SVG Version: 6.00 Build 0)  -->
<svg version="1.1" id="Слой_1" xmlns="http://www.w3.org/2000/svg" xmlns:xlink="http://www.w3.org/1999/xlink" x="0px" y="0px"
      viewBox="0 0 32 32" style="enable-background:new 0 0 32 32;" xml:space="preserve">
<style type="text/css">
    .st0{fill:#FFFFFF;}
</style>
<path class="st0" d="M16,32C9.4,32,3.2,27.7,1,21.5C-1.3,15.2,0.7,7.9,5.8,3.6C11-0.6,18.5-1.2,24.2,2.3C30,5.7,33,12.6,31.7,19.2
    C30.2,26.5,23.5,32,16,32z M24.9,6.6c-0.2,0-0.2-0.2-0.3-0.4c0,0.6,0.1,0.8-0.5,1c0.1,0.3,0.5,0.1,0.7,0c0.2-0.2,0-0.5,0.4-0.5
    C25.1,6.6,25,6.6,24.9,6.6z M25.3,7c-0.1,0,0,0-0.1-0.1C25.2,7.1,25.5,7.1,25.3,7z M28.9,17.8c0-0.2,0.2-0.7,0.1-0.8
    c-0.1-0.2-0.2,0.1-0.2-0.2c-0.2,0-0.2,0.5-0.2,0.6C28.6,17.6,28.8,17.7,28.9,17.8z M3.4,19.1c0.1-0.3,0.2-0.1,0.4-0.3
    c-0.1-0.1-0.3-0.5-0.3,0c-0.2,0-0.1-0.1-0.3-0.1C3.3,18.8,3.4,19.2,3.4,19.1z M4,14C4,14,4,13.9,4,14z M3.7,11.7
    C3.8,11.7,3.7,11.7,3.7,11.7z M7.4,6.6C7.2,6.6,7.3,6.6,7.4,6.6C7.4,6.5,7.2,6.7,7.4,6.6C7.3,6.5,7.2,6.5,7.2,6.5c0,0,0.1,0,0.1,0
    C7.2,6.4,7.1,6.6,7.1,6.6C7.1,6.6,7.4,6.6,7.4,6.6z M6.8,6.9C6.7,6.9,6.8,6.9,6.8,6.9z M10.4,4.3c0.1,0.1,0,0-0.1,0.1
    c0.1,0-0.1,0.1-0.1,0.1c0-0.1,0.3,0,0.4,0.1c0.1,0.1-0.3,0-0.3,0c0,0,0.1,0,0,0c0,0,0.2,0,0.2,0c0,0-0.2,0.1-0.2,0.1
    c0.1,0,0.2-0.1,0.2,0.1c0,0,0.2-0.1,0.2,0c0,0.1-0.3,0.1-0.3,0.1c0,0,0.3,0.3,0.4,0.2c-0.1,0.1-0.2,0.2-0.4,0.1c0,0,0.2,0,0.1-0.1
    c0,0-0.3,0.1-0.3,0.1c0.1,0.1,0,0.1-0.2,0.2c0,0,0,0.1,0,0.1c-0.1,0,0.3-0.1,0.3-0.1c0,0.1-0.1,0.1-0.1,0.1c0,0.1,0.2-0.1,0.3,0
    c0.1,0.1-0.2,0,0,0.1c0.2-0.2,0.4,0,0.5-0.1c0,0,0,0.1,0,0.1c0,0,0-0.1,0-0.1c0,0,0.2,0.2,0.2,0.2c0,0.1-0.2,0-0.2-0.1
    c-0.1,0.1,0,0.1-0.3,0c-0.2,0-0.5-0.1-0.7-0.1c0,0,0.2,0.2,0.2,0.1c0.4-0.1,0.5,0.1,0.1,0.2c0.2,0.1-0.1,0.1,0,0.2
    c0,0,0.4-0.1,0.4-0.1c0,0-0.2,0.2-0.2,0.2c0.2,0,0.6-0.2,0.8-0.3c0,0.2-0.5,0.9-0.8,0.9c0.1,0.2-0.3,0-0.3,0c0,0,0,0,0,0
    c0.2,0.2,0.1,0.1,0,0.3c0,0.1,0,0.1,0,0.2c0,0.1-0.3,0.2-0.3,0.2c0,0.1-0.2,0.2-0.2,0.3c0,0,0,0-0.1,0c0,0,0-0.2,0.1-0.2
    c0,0-0.2,0.1-0.2,0.1c0,0,0.1,0,0.1,0.1c0,0-0.1,0-0.2,0c0,0,0,0.1-0.1,0.1c0.3,0-0.1,0.1-0.1,0.1c0.1,0,0.2,0.1,0.2,0.2
    c0,0-0.1,0-0.2,0.1c0,0,0.2,0.1,0.2,0.1c0,0-0.2,0-0.2,0c0,0,0.1,0,0.2,0c0,0.1-0.1,0.1-0.1,0.1c0,0,0.2,0.1-0.1,0
    c0,0.1,0.1,0-0.1,0.2c0,0,0.1,0,0.1,0.1c0,0-0.1,0-0.1,0c0.1,0.1,0.1,0.2,0.2,0.2C9.1,8.8,9,9.1,9,9c0,0.1,0.1,0.1,0,0.1
    c0,0.1,0.1,0,0.2,0C9.1,9.2,9,9.2,8.9,9.2c0,0,0.2,0,0.2,0.1c0,0-0.4,0.1-0.4,0.1c0,0,0.1-0.1,0.1-0.2c-0.1,0-0.1,0-0.2,0
    c0,0,0.1-0.1,0.1-0.1c0,0,0,0,0,0c0,0-0.1,0-0.1,0.1c0,0,0.1-0.1,0-0.1C8.3,9.1,8.2,9.3,8,9.2c0.1,0,0.1,0,0-0.1c0,0,0,0-0.1,0
    c0,0,0,0-0.1-0.1c0,0,0.1,0,0.1,0c-0.1,0-0.1,0.1-0.2,0C7.8,9,7.8,9,7.7,9c0,0,0,0,0.1-0.1c0,0-0.1,0-0.1,0c0,0-0.1-0.2-0.1-0.3
    c-0.2,0,0,0.1-0.2,0c-0.1-0.1-0.1-0.1,0-0.2c-0.1,0-0.1,0-0.2,0c0.1-0.1,0,0.1,0-0.1c0.1,0,0.2,0,0.3-0.1c-0.1-0.1-0.2,0.1-0.3,0
    c0.2-0.2,0.2-0.1,0.4-0.1c0,0-0.2-0.2-0.3-0.2c0,0-0.1,0.3-0.2,0.3c0,0,0-0.2,0.1-0.2c0,0-0.1-0.1-0.1,0c0.1,0-0.1-0.1-0.1-0.1
    c0.1-0.2,0.1,0-0.1-0.1c0,0,0-0.1,0.1-0.1c-0.1,0-0.1,0-0.1,0C7,7.7,7.4,7.7,7.5,7.6c-0.1,0-0.6,0.2-0.6,0.3c0,0,0,0,0,0
    c-0.1,0,0.3,0,0-0.1c0.1,0,0.1,0,0.2,0c0,0-0.2-0.1-0.2-0.1c0.1,0,0.3-0.1,0.4,0c-0.1-0.1-0.3,0-0.4,0C7,7.4,7.1,7.4,7.3,7.4
    c0,0,0-0.1,0-0.1C7.2,7.3,7,7.5,6.9,7.5C6.8,7.4,7.1,7.3,7.1,7.3c0,0-0.1,0-0.1-0.1c0.1,0,0.3,0.1,0.4,0c0,0-0.1-0.1-0.1-0.1
    c0,0-0.2,0-0.3,0c0,0,0.4-0.2,0.4-0.2C7.1,7.1,7.4,7,7.4,7c0,0-0.1,0-0.1,0c0.1-0.1,0-0.1,0.1-0.2c-0.1,0-0.4-0.1-0.5,0
    c0,0,0.3,0.1,0.3,0.2c0,0-0.4,0.2-0.3,0.1c0,0,0.1,0,0.1,0C6.8,6.6,5.8,8,5.7,8c0.1,0,0.1,0,0.2,0.1c-0.1,0-0.1,0-0.1,0.1
    c0.2,0,0.3,0,0.5,0.1c-0.1,0.1-0.1,0-0.2,0.1c0,0,0,0.1,0.1,0.1C6,8.5,5.9,8.5,6,8.7c-0.2,0-0.3-0.3-0.5-0.4
    C5.4,8.5,5.4,8.5,5.3,8.6c0,0.2,0.3,0.2,0.4,0.3c-0.1,0,0.1,0.2,0.1,0.3C5.8,9.1,5.8,9.1,5.7,9c0,0.1,0.1,0.3,0.1,0.3
    C5.7,9.3,5.5,9.1,5.4,9c0,0.1-0.1,0-0.2,0c0,0.2,0.4,0.2,0.4,0.4C5.4,9.4,4.7,9,4.8,9.6c0,0.1,0.3,0.1,0.3,0.2
    c0.1,0.1-0.1,0.4,0,0.4c0.4,0.1,0.5,0,0.7-0.3c0.1,0.1,0.5,0.6,0.5,0.7c-0.1,0-0.1,0-0.1,0c0.1,0.1,0.3,0.2,0.3,0.3
    c0.2,0,0.3,0.1,0.5,0.1c-0.1,0.1-0.4,0.1-0.4,0.3c0.3-0.1,0.9-0.1,0.5,0.3c-0.2,0.3-0.8,0.2-1.1,0.3c-0.4,0.1-0.8,0.2-1,0.7
    c0.1-0.1,0.8-0.7,1-0.3c0,0.1-0.3,0.1-0.3,0.1c0.1,0,0.2,0,0.3,0.1c0,0-0.1,0.1-0.1,0.1c0.1,0,0.1,0.1,0.2,0.2c0,0,0,0,0,0
    c0.2,0,0.4,0.1,0.5,0.1c-0.2,0.1-0.8,0.4-0.7,0.1c0,0,0,0-0.1,0c0.1-0.1,0.3-0.2,0.4-0.2c0-0.1-0.1-0.1-0.2,0c0,0,0-0.1,0.1-0.1
    c-0.1,0,0,0-0.1,0c0,0.1-0.3,0.2-0.4,0.1c0.1,0.2-0.3,0.1-0.2,0.1c0,0-0.5,0.6-0.2,0.5c0,0-0.2,0.1-0.2,0c-0.1,0-0.4,0.2-0.4,0.1
    c0,0.1,0,0.3-0.2,0.4c0,0-0.1-0.1-0.1-0.2c0,0,0.1,0.4-0.1,0.5c0-0.1-0.1-0.4,0-0.4c0,0,0,0,0,0c-0.1,0-0.1,0.1-0.1,0.2
    c-0.1,0,0-0.2,0,0C4,14,4,14,4,14c0-0.1,0.2,0.2,0.1,0.1c-0.1-0.1,0,0,0,0.1c0,0,0,0-0.1,0c0,0,0.1,0,0.1,0.1c0,0-0.1-0.1-0.1,0
    c0.1,0.2,0.1,0.1,0.2,0.2c0,0-0.1,0-0.1,0c0,0.1,0.1,0,0.1,0.1c0,0,0-0.1,0,0c0,0.1-0.1,0-0.2,0c0,0,0.1,0,0.1,0.1
    c0,0.1,0,0.1-0.1,0c0,0.1,0.1,0,0.1,0C4,14.8,3.6,14.8,3.4,15c-0.2,0.4,0.2,0.7,0.1,1.1c-0.3,0-0.3-0.6-0.5-0.8c0,0.4,0,0.7,0,1.1
    c0.4-0.2,1.1,0.2,1.4,0.4c0,0.1-0.5,0-0.5,0c0,0,0.1-0.1,0.1-0.1c-0.2-0.1-0.5-0.1-0.7-0.3c0.2,0-0.1-0.1-0.2,0
    c-0.1,0.2,0.1,1.9,0.3,2c0.2,0.1,0.8-0.3,0.6,0.2c0.1,0,0.2-0.2,0.3-0.1c-0.1,0.1-0.3,0.3-0.1,0.4c0.1,0,0-0.3,0-0.3
    c0.1,0,0.2-0.1,0.3-0.1c0,0,0,0-0.1-0.1C4.1,19,5.3,18.9,5.4,19c0,0-0.1,0-0.1,0c0,0.1,0.2,0.1,0.3,0.2c0,0-0.1,0.1-0.1,0.1
    c0.2,0,0.4,0,0.5,0.3c0,0.1,2.1,0.3,0.9,1.2c0,0,0.1,0,0.2-0.1c0.1,0.2,0.2,0,0.2,0.2C7.6,20.7,7.9,20.6,8,21
    c0.3-0.2,1.3,0.1,1.4,0.5c0.1,0.3-0.4,1-0.5,0.9c0,0.4-0.1,0.8-0.2,1.1C8.4,23.9,8.4,23.8,8,24c-0.2,0.1-0.5,0.2-0.6,0.3
    c0,0.1,0,0.3,0,0.4c-0.1,0.2-0.3,0.5-0.4,0.6c0.1-0.1,0.1-0.2,0.1-0.2c0,0-0.1,0-0.1,0c0,0.4-0.2-0.2,0.1,0.4
    c0.2,0.3,0.7,0.6,0.9,0.8c0.7,0.5,1.4,0.9,2.1,1.3c1.5,0.8,3.2,1.2,4.9,1.4c2.9,0.2,5.8-0.5,8.2-2.1c2.3-1.5,4.1-3.8,5-6.4
    c0.3-0.9,0.7-1.8,0.3-2.6c-0.1-0.3-0.1-0.3-0.2-0.6c0-0.1,0-1-0.3-1c0,0.2-0.3,0.2-0.4,0.2c0-0.3,0-0.3-0.1-0.5
    c0.1,0-0.4-0.5-0.4-0.6c-0.2,0.2-0.2,0.1-0.4,0.2c-0.2,0.1-0.8,0.6-0.9,0.8c-0.1,0.2-0.4,0.9-0.3,1c-0.2,0.1-0.1,0.2-0.4,0.1
    c-0.1-0.1-0.2-0.5-0.2-0.6c-0.2-0.4-0.4-1-0.3-1.4c-0.2,0-0.3,0.5-0.6,0c0,0,0.2,0,0.2-0.1c-0.3,0.1-0.3-0.2-0.5-0.3
    c-0.2-0.1-0.3-0.1-0.5-0.1c-0.2,0-0.5,0-0.7,0c-0.1,0-0.3-0.2-0.3-0.2c-0.2-0.1-0.2,0.1-0.4,0.1c-0.2-0.1-0.3-0.3-0.5-0.4
    c-0.2-0.1-0.2-0.3-0.4,0c0.3,0.1,0.3,0.5,0.5,0.8c0,0,0-0.2,0.1-0.2c0.2,0,0,0.2,0.2,0.3c0.4,0.1,0.3-0.3,0.6-0.3
    c0,0.3,0.3,0.3,0.4,0.5c0,0.1-0.1,0.5-0.2,0.6c-0.3,0.3-0.8,0.5-1.2,0.7c-0.2,0.1-0.6,0.4-0.8,0.3c-0.1,0-0.2-0.6-0.3-0.8
    c-0.3-0.5-0.8-1.2-1-1.8c-0.1-0.4,0-0.4,0.1-0.8c0,0,0-0.4,0-0.4c0,0-0.4,0.1-0.5,0.1c-0.2,0-0.4,0-0.6-0.1
    c-0.3-0.1-0.3-0.2-0.3-0.5c-0.4,0.1,0.1-0.2,0.1-0.2c0,0,0.1,0.1,0.2,0c0,0,0,0,0,0c0-0.1,0.1-0.1,0.2,0c0,0-0.1,0-0.1,0
    c0,0,0.6-0.2,0.6-0.2c0.3,0,0.4,0.1,0.7,0.2c1.1,0.1,0-0.6-0.2-0.8c0.1,0,0.1-0.1,0.2-0.2c-0.1-0.2-0.1,0,0.1-0.2
    c-0.1-0.1-0.7,0.2-0.8,0.2c0.1,0.2,0.2,0.1,0.4,0.1c-0.1,0.3-0.5,0.1-0.6,0c0.2-0.2,0-0.1-0.1-0.3c-0.2,0.2-0.3,0.2-0.4,0.4
    c-0.3,0.3-0.2,0.3,0,0.6c0,0-0.4,0.2-0.4,0.2c0-0.2-0.4-0.2-0.3,0c0,0-0.1,0-0.1,0c0,0,0.1,0,0,0.1c0,0-0.1,0-0.1,0
    c0,0.1,0,0-0.1-0.1c-0.2,0,0.1,0.3,0.1,0.2c0,0.1,0-0.1-0.1,0c0,0.1,0,0,0,0.1c0.1,0,0.1,0.1,0.2,0.1c0,0,0,0,0,0.1
    c-0.1,0,0-0.1-0.1,0c0,0,0,0,0.1,0.1c-0.1,0,0,0-0.1,0c0,0.1,0,0.1,0,0.2c0,0-0.1,0-0.1,0c-0.4-0.2,0.1-0.3,0.1-0.3
    c-0.4,0-0.4-0.2-0.5-0.5c-0.1-0.1-0.5-0.6-0.6-0.6c-0.1-0.1-0.1-0.1-0.2-0.2c0,0,0,0.1-0.1,0.1c-0.1-0.2,0-0.1,0-0.2
    c-0.7,0,0.7,1,0.7,1.1c-0.5-0.3,0,0.5-0.4,0.3c0-0.3,0-0.3-0.2-0.5c-0.1-0.1-0.4-0.4-0.5-0.5c-0.2-0.1-0.2-0.1-0.4-0.1
    c0,0-0.4,0.1-0.4,0.1c0,0-0.1,0-0.1,0c-0.1,0-0.1,0.2-0.1,0.2c-0.4,0.3-0.4,0.7-0.8,0.9c-0.5,0.3-0.6-0.2-1,0c0-0.2,0-0.3,0-0.3
    c0,0-0.1,0.1-0.1,0c0.3-0.5-0.1-0.7,0.4-0.8c0.2-0.1,0.6,0.1,0.8,0c0.1-0.1,0-0.5,0.1-0.3c-0.1-0.4-0.4-0.3-0.6-0.5
    c0.1,0,0-0.1,0-0.1c0-0.2,0.4,0,0.5-0.1c0-0.1,0-0.1-0.1-0.2c0.1,0,0.2,0.2,0.3,0c0.1,0,0.6-0.6,0.7-0.7c0.1,0,0,0.1,0,0.1
    c0.2,0,0-0.2,0.3-0.2c0,0,0.2-0.1,0.3-0.1c0,0-0.1-0.3-0.1-0.3c0-0.3,0.2-0.2,0.4-0.2c0,0-0.4,0.5,0,0.4c0,0,0,0.1,0,0.1
    c0,0,0.5,0.1,0.6,0.1c0-0.2,0.9-0.2,1-0.3c0.1-0.2,0-0.3,0.2-0.5c0,0,0.2,0.4,0.3-0.1c-0.5-0.3,0.4-0.4,0.5-0.3c0-0.2,0.1,0,0.3-0.1
    c0,0-0.3-0.2-0.2-0.2c0,0.1-0.3,0.1-0.3,0c0,0.3-1.2,0-0.6-0.7c0,0.1,0.3-0.3,0.4-0.3c0-0.3-0.3-0.3-0.4-0.2C17,7.6,17.1,7.8,17,8
    c-0.1,0.2-0.4,0.2-0.4,0.4c-0.1,0.4,0.2,0.2,0.2,0.5c0,0-0.4,0.1-0.4,0.1c0.1,0,0.2,0,0.3,0c0,0-0.1,0.2-0.1,0.1
    c-0.1,0-0.1,0.1-0.2,0.1c0,0.2,0,0.3-0.1,0.5c-0.2-0.1-0.2,0.2-0.4,0.1c0.1-0.3-0.2-0.6-0.3-0.9c-0.2,0.2-0.6,0.6-0.7,0.1
    c0,0,0.1,0,0.1,0c0,0,0,0,0,0c-0.1,0,0-0.1,0-0.1c-0.1,0.1,0,0-0.1,0c0,0.1-0.1,0.1-0.1,0c0,0,0-0.1,0-0.1c0,0,0.1,0,0.1,0
    c-0.1,0.1-0.1-0.2-0.1-0.3c0.1-0.3,0.1-0.1,0.3-0.4c0,0,0.4-0.3,0.6-0.5c0.2-0.2,0.2-0.4,0.3-0.5c0.3-0.3,0.6-0.5,1-0.7
    c0,0,0,0.1,0,0.1c0.2-0.1,0.2-0.1,0.3-0.2c0,0,0.4-0.2,0.5-0.2c-0.1,0-0.1,0.1-0.1,0.2c0.1,0,0.2-0.4,0.2-0.1c0.1-0.1,0.3-0.3,0.2,0
    c0,0,0.4-0.2,0.4,0c-0.1,0.1-0.2,0.1-0.3,0c0.1,0.1,0.5,0.2,0.7,0.2c0.2,0,0.5,0.1,0.8,0.3c0.3,0.2,0.6,0.4,0.1,0.5
    c-0.3,0.1-0.8-0.3-1-0.2c0.1,0.1,0.3,0.2,0.3,0.3c0.1,0.1-0.2,0,0,0.2c0.1,0.1,0.3,0.3,0.5,0.2c0.1,0-0.2-0.2-0.2-0.2
    c0.1-0.1,0.4,0,0.5,0.1c0.2-0.3-0.4-0.1,0.1-0.3c0.2-0.1,0.2,0,0.4,0c0-0.2-0.1-0.4,0-0.6c0.2,0,0.3,0,0.4,0.2c-0.1,0-0.2,0-0.3,0.1
    c0.4,0.3,0.9-0.4,1.3-0.4c0,0.1-0.1,0.1-0.1,0.2c0.3,0.1,0.6-0.3,0.9-0.1c-0.1,0.2,0.1,0,0.2,0c0.2-0.1-0.3-0.2,0.3-0.3
    c0.2,0,0.8,0.4,0.9,0.3c0.2-0.2-0.2-0.2-0.3-0.4c0-0.2,0.2-0.4,0.2-0.5c0-0.3,0.2,0.1,0-0.3c-0.1-0.3-0.8-0.6-1.1-0.7
    c-0.1,0.1-0.4,0.2-0.5,0.3c0.1,0.2-0.1,0.1-0.2,0.1c-0.6,0.1,0-0.2,0-0.2c0.1-0.2,0.1-0.3,0.4-0.5C18.9,2.6,14.3,2.4,10.4,4.3z
      M10.5,4.9C10.5,4.9,10.5,4.9,10.5,4.9z M21.7,12.3c-0.1,0,0-0.1,0-0.2c-0.1-0.1-0.4-0.2-0.4-0.3c0,0,0.1,0,0.2,0
    c-0.1-0.2,0.1-0.2,0.2-0.1c-0.1-0.3,0-0.4-0.5-0.2c-0.4,0.1-0.4,0.2-0.4,0.5c0,0,0-0.1,0-0.1c0,0.3,0.4,0.4,0.4,0.6
    c-0.1,0-0.3,0.3-0.2,0.5c0.1,0.2,0.7,0.2,0.7,0.1c0,0,0-0.5-0.1-0.4c0-0.1,0.1,0,0.1,0c-0.1,0-0.2-0.2-0.1-0.3c0,0.1,0.2,0.1,0.3,0
    C21.8,12.1,21.7,12.5,21.7,12.3z M17.9,12.4C17.9,12.3,17.8,12.4,17.9,12.4z M22.2,5.5c0.2,0.1-0.1,0.1,0,0.3c0,0.1,0.2,0.3,0.2,0.4
    c-0.2,0-0.3,0-0.5,0c0-0.1,0.1-0.1,0.1-0.1c-0.5-0.1-0.3,0-0.3-0.3C21.7,5.7,21.7,5.5,22.2,5.5z M17.8,3.6c-0.3,0.1-0.4,0.1-0.7,0.1
    c0-0.1,0.1-0.1,0.1-0.2c-0.2,0-0.4,0-0.5,0c0.1-0.1,0.1-0.1,0.2-0.3c0.2,0.3,0.3,0.1,0.5,0C17.3,3.5,18.2,3.3,17.8,3.6z M16.8,3.7
    c0.1,0,0.2,0.1,0.3,0.1c-0.5,0.2-0.3,0.8-0.9,0.5c0.1-0.1,0.2,0,0.3-0.1c-0.1-0.1-0.3,0.1-0.4-0.1c0,0,0.4-0.1,0.4-0.2
    c0,0-1,0-0.6-0.2c-0.1-0.1-0.2,0.1-0.2-0.2c0.3-0.2,0.3,0,0.5,0.1c0,0,0-0.1,0-0.1c0.1-0.1,0.2,0.2,0.3,0.2c0.1-0.1,0-0.5,0.2-0.1
    C16.8,3.7,16.6,3.5,16.8,3.7z M14,10.6c0,0,0.1,0,0.2,0c0,0.1-1,0.3-1,0.2c0.1-0.2,0.4-0.2,0.4-0.3c-0.1,0-0.3,0-0.4,0
    c0.2-0.2,0.1-0.1,0.1-0.2c0.1-0.2,0.2,0.1,0.3-0.3c0-0.1-0.2,0.1,0-0.1c-0.1,0-0.2,0-0.3,0c0-0.1,0.1-0.2,0.1-0.3
    c-0.1,0-0.1,0-0.1,0.1c0-0.1,0-0.1,0-0.2c-0.1,0,0,0-0.1,0c0.1-0.2,0.1-0.6,0.4-0.4c0,0.1-0.2,0.1-0.2,0.2c0,0.1,0.3-0.1,0.3,0.1
    c0,0.1-0.2,0.2-0.1,0.2c-0.1,0-0.1,0-0.2,0c0,0.1,0.8,0.3,0.6,0.6C14.2,10.3,14.4,10.5,14,10.6z M13.2,9.7
    C13.2,9.9,13.1,9.7,13.2,9.7z M13.2,10c-0.2,0.3,0,0.4-0.4,0.5c-0.1,0-0.3-0.1-0.3-0.1c0,0,0.2-0.1,0.2-0.1c-0.1,0,0-0.1,0-0.1
    c0,0-0.1,0-0.2,0c0,0,0-0.1,0.1-0.1c0,0,0,0-0.1,0c0-0.1,0.1-0.1,0.2-0.1c0,0,0-0.1,0.1-0.1C12.6,9.9,13.1,9.6,13.2,10z M12.6,14.1
    c0.1-0.2,0.5-0.7,0.6-0.7c0,0,0.4,0.1,0.5,0.1c0.1,0,0.2-0.1,0.3-0.1c0.3-0.1,0.6-0.2,1-0.2c0.2,0,0.5,0.1,0.6,0
    c0,0.2,0,0.3-0.1,0.5c0,0.1,0.7,0.4,0.8,0.5c0.7,0.3,0.4-0.2,1-0.2c0.2,0,0.6,0.3,0.9,0.3c0.3,0,1.2-0.3,0.8,0.5
    c-0.1,0-0.2-0.3-0.2-0.3c0,0,0.9,2.1,1,2.3c0,0,0,0,0-0.1c0.2,0.1,0.6,0.5,0.4,0.6c0,0.5,1.1-0.1,1.3,0c0.3,0.3-1,1.5-1.1,1.6
    c-0.4,0.4-0.8,0.8-0.6,1.4c0.1,0.3,0.2,0.5,0.2,0.8c-0.1,0.3-0.3,0.4-0.6,0.6c-0.4,0.4,0,0.4-0.2,0.8c0,0.1-0.3,0.4-0.4,0.5
    c-0.3,0.5-0.6,1.1-1.2,1.2c-0.2,0-0.8,0.1-0.9,0c-0.1-0.1-0.1-0.5-0.2-0.7c-0.2-0.4-0.3-0.7-0.4-1.1c-0.2-0.6-0.5-0.8-0.3-1.4
    c0.1-0.3,0.2-0.4,0.1-0.7c-0.1-0.2-0.8-1.3-0.5-1.3c0,0,0-0.5,0-0.6c-0.1-0.1-0.2-0.1-0.3-0.1c-0.1,0-0.3-0.1-0.4-0.1
    c0,0,0-0.1,0-0.1c-0.4-0.1-0.8,0-1.2,0.1c-0.4,0.1-1.3,0.1-1.5-0.5c0.1,0-0.3-0.4-0.3-0.5c-0.1-0.2-0.3-0.1-0.3-0.4
    c0,0,0.2-1.1,0-0.9c0-0.3,0.3-0.7,0.5-0.9c0.1-0.1,0.2-0.2,0.3-0.2C12.5,14.4,12.5,14.4,12.6,14.1z M11.9,7.7c0,0.3-1,0.4-1.2,0.2
    c0.4-0.4-0.2,0-0.2-0.2c0-0.1,0.3,0,0.3-0.1c-0.1-0.1-0.3,0.1-0.3-0.1c-0.1-0.1,0.2,0,0.1-0.1c0.1,0,0.1,0,0.2,0
    c0-0.3,0.1,0.1,0.2,0.2c0.2-0.2,0.3-0.2,0.5-0.2c0.2,0,0.2-0.2,0.4,0C11.9,7.5,12.1,7.7,11.9,7.7z M15.3,18.3
    C15.1,18.4,15.3,18.3,15.3,18.3z M20.4,22c0.3-0.1,0-0.4,0.1-0.6c0.1-0.3,0.2-0.1,0.4-0.2C20.9,21,21,21,21,20.8
    c0.1,0,0.2-0.2,0.2-0.2c0.1,0.1,0.2,0.4,0.1,0.5c-0.1-0.1,0-0.1-0.1-0.1c0,0.3-0.1,1.6-0.6,1.5C20.4,22.6,20.2,22.1,20.4,22z
      M19,13.5c-0.1,0-0.2,0.1-0.3,0c0.1,0,0.3-0.1,0.3-0.1C18.9,13.4,18.9,13.4,19,13.5z M17.6,13.5c0-0.1-0.1-0.1-0.2-0.1
    c0-0.1,0,0,0-0.1c0,0,0.3,0.1,0.4,0.1C17.8,13.5,17.7,13.6,17.6,13.5z M16.2,13.2c-0.1,0-0.4,0-0.4-0.1c0-0.1,0.4-0.1,0.4-0.1
    C16.3,13,16.2,13.2,16.2,13.2z M15.4,12.7c0,0.1-0.1,0.1-0.1,0.1C15.1,12.8,15.3,12.1,15.4,12.7z M15.3,12.4c0-0.1-0.2-0.2,0-0.3
    C15.4,12.2,15.4,12.4,15.3,12.4z M10.9,5.4c-0.1,0.1-0.4,0-0.4-0.1C10.5,5.2,10.8,5.2,10.9,5.4c-0.1-0.1-0.1,0-0.1,0
    C10.9,5.3,10.9,5.3,10.9,5.4z M10.7,5.2c0,0-0.2,0.1-0.2,0.1C10.5,5.2,10.9,5.1,10.7,5.2z M10.4,5.2c0,0,0.1,0,0.1,0
    C10.5,5.2,10.3,5.3,10.4,5.2z M10.6,4.6c-0.1,0,0-0.2,0.1-0.1C10.8,4.5,10.6,4.6,10.6,4.6z M10.6,4.7C10.3,4.7,10.7,4.6,10.6,4.7z
      M10.5,4.6C10.5,4.6,10.5,4.6,10.5,4.6z M10.6,4.9C10.5,4.9,10.5,4.8,10.6,4.9C10.8,4.7,10.7,4.8,10.6,4.9z M10.7,5.9
    c0,0-0.2,0.1-0.3,0.1C10.3,5.8,11,5.8,10.7,5.9z M8.3,9.2C8.3,9,8.4,9.3,8.3,9.2z M7.4,12.5C7.4,12.4,7.4,12.5,7.4,12.5
    c-0.1-0.1,0-0.1-0.1-0.2c-0.1,0.1-0.1,0.2-0.2,0.1c0-0.1,0.2-0.1,0.2-0.1c-0.2,0-0.4,0-0.6,0c0-0.1,0.1-0.1,0.1-0.2
    c-0.1,0,0.2-0.6,0.4-0.6c0,0-0.2,0.3-0.2,0.4c0.1,0,0-0.1,0.2-0.1C7,12.1,7.4,12,7.4,12.1c0,0-0.1,0.1-0.1,0.1c0.1,0.1,0.1,0,0.1,0
    c0,0-0.1,0.1-0.1,0.1c0,0,0,0.1,0,0.1C7.6,12.3,7.6,12.6,7.4,12.5z M7.4,20.7c-0.3,0.4-0.4-0.5,0-0.1C7.4,20.6,7.4,20.7,7.4,20.7z
      M7.3,6.8C7.4,6.9,7.2,6.9,7.3,6.8z M6.3,12.7c0-0.1,0.1-0.1,0.1-0.2C6.6,12.6,6.3,12.6,6.3,12.7c0.1,0.1,0.1-0.1,0.2,0
    C6.4,12.7,6.4,12.8,6.3,12.7z M5.5,17.2c-0.1,0-0.1,0-0.1-0.1c0,0,0.2,0,0.2,0C5.6,17.2,5.6,17.3,5.5,17.2z M5.5,19
    C5.5,18.9,5.5,18.9,5.5,19C5.6,19.1,5.3,19.1,5.5,19z M5.1,17.2c-0.1,0-0.2,0-0.3,0.1c-0.1,0-0.4-0.1-0.4-0.1c0-0.1,0.2,0,0.3,0
    C4.6,17,4.6,17,4.5,17c0-0.2,0.7,0.1,0.7,0.2C5.1,17.3,5.2,17.1,5.1,17.2z M4.2,14.3C4.3,14.5,4.2,14.4,4.2,14.3z M4.2,14.3
    C4.2,14.4,4.2,14.3,4.2,14.3z M4.2,14.3C4.2,14.3,4.2,14.3,4.2,14.3z M4,17.2c-0.1,0-0.2,0.1-0.2,0C3.9,17.1,4.2,17.3,4,17.2z
      M25.7,17.5c0.1-0.4,0.4,0.7,0,0.5C25.6,17.8,25.6,17.5,25.7,17.5z M15.4,9.4c0,0,0.1-0.1,0.2-0.1c-0.1,0.1-0.3,0.3-0.3,0.2
    C15.2,9.4,15.3,9.4,15.4,9.4z M15.7,9.7c0,0.1,0.1,0,0.1,0c0,0.2-0.1,0.1,0,0.1c0,0,0,0-0.1,0.1C15.8,9.9,15.5,9.6,15.7,9.7z
      M5,13.4C5,13.3,5.1,13.4,5,13.4z M5,13.4C5,13.4,5,13.4,5,13.4z M4.2,14.3C4.2,14.3,4.2,14.3,4.2,14.3z M4.2,14.3
    C4.2,14.3,4.2,14.3,4.2,14.3z M4.2,14.3C4.2,14.3,4.2,14.3,4.2,14.3z M4.2,14.3C4.2,14.3,4.2,14.3,4.2,14.3z"/>
</svg>