<svg xmlns="http://www.w3.org/2000/svg" width="11" height="18" viewBox="0 0 11 18">
    <path fill="#787886" fill-opacity=".5" fill-rule="evenodd" d="M10.835 9.667c-.261-.517-.985-.946-1.947-.2-1.3 1.008-3.388 1.008-3.388 1.008s-2.088 0-3.388-1.008C1.15 8.72.426 9.15.165 9.667c-.456.9.059 1.336 1.22 2.07.993.627 2.356.861 3.236.949l-.735.723-2.727 2.685a1.033 1.033 0 0 0 0 1.477l.125.123a1.073 1.073 0 0 0 1.5 0l2.728-2.684 2.728 2.684a1.073 1.073 0 0 0 1.5 0l.126-.123a1.033 1.033 0 0 0 0-1.477L6.4 12.684c.881-.09 2.23-.325 3.213-.947 1.162-.734 1.677-1.17 1.221-2.07zM5.5 2.314c1.258 0 2.277 1.004 2.277 2.242 0 1.237-1.02 2.24-2.277 2.24-1.258 0-2.277-1.003-2.277-2.24 0-1.238 1.02-2.242 2.277-2.242zm0 6.797c2.556 0 4.628-2.04 4.628-4.555C10.128 2.04 8.056 0 5.5 0S.872 2.04.872 4.556 2.944 9.11 5.5 9.11z"/>
</svg>
