<svg 
  xmlns="http://www.w3.org/2000/svg"
  xmlns:xlink="http://www.w3.org/1999/xlink"
  width="40px" height="33px">
<path fill-rule="evenodd"  fill="rgb(105, 105, 105)"
  d="M36.667,33.000 L31.667,33.000 C29.828,33.000 28.333,31.520 28.333,29.700 L28.333,14.850 C28.333,13.030 29.828,11.550 31.667,11.550 L36.667,11.550 C38.505,11.550 40.000,13.030 40.000,14.850 L40.000,29.700 C40.000,31.520 38.505,33.000 36.667,33.000 ZM18.333,33.000 L9.284,33.000 C7.887,33.000 6.592,32.313 5.817,31.163 L0.833,23.762 C0.288,22.954 -0.000,22.011 -0.000,21.037 C-0.000,20.063 0.288,19.121 0.833,18.313 L1.667,17.075 L1.667,14.850 C1.667,13.030 3.162,11.550 5.000,11.550 L12.303,11.550 C12.723,11.550 12.939,11.276 13.012,11.158 C13.086,11.041 13.236,10.727 13.049,10.356 L10.373,5.058 C10.129,4.575 10.000,4.035 10.000,3.495 C10.000,1.568 11.584,-0.000 13.530,-0.000 L14.167,-0.000 C14.398,-0.000 14.618,0.095 14.776,0.262 L23.753,9.784 C25.632,11.777 26.667,14.376 26.667,17.102 L26.667,24.750 C26.667,29.298 22.928,33.000 18.333,33.000 Z"/>
</svg>