<svg width="358px" height="26px" viewBox="0 0 358 26" version="1.1" xmlns="http://www.w3.org/2000/svg" xmlns:xlink="http://www.w3.org/1999/xlink">
    <!-- Generator: sketchtool 51.2 (57519) - http://www.bohemiancoding.com/sketch -->
    <title>930B8C2A-822F-438C-BF4B-93FD506C85CF</title>
    <desc>Created with sketchtool.</desc>
    <defs></defs>
    <g id="xizal" stroke="none" stroke-width="1" fill="none" fill-rule="evenodd">
        <g id="2_dv_xizal" transform="translate(-115.000000, -51.000000)">
            <g id="logo_header" transform="translate(115.000000, 51.000000)">
                <path d="M14.2275,15.1318 L12.0365,8.5238 C11.6195,7.1318 11.0615,4.6968 11.0615,4.6968 L10.9925,4.6968 C10.9925,4.6968 10.4355,7.1318 10.0185,8.5238 L7.7925,15.1318 L14.2275,15.1318 Z M8.6615,0.4178 L13.3935,0.4178 L22.0555,25.1158 L17.4625,25.1158 L15.3405,18.7848 L6.6795,18.7848 L4.5915,25.1158 L-0.0005,25.1158 L8.6615,0.4178 Z" id="Fill-1" fill="#6690B3"></path>
                <path d="M28.1421,7.1655 L28.1421,0.4175 L43.4131,0.4175 L43.4131,25.1165 L38.9261,25.1165 L38.9261,4.2795 L32.4211,4.2795 L32.4211,7.2355 C32.4211,19.2025 29.6731,25.1515 22.8201,25.3945 L22.8201,21.2895 C26.4731,20.8025 28.1421,16.7325 28.1421,7.1655" id="Fill-4" fill="#6690B3"></path>
                <path d="M52.2144,7.1655 L52.2144,0.4175 L67.4854,0.4175 L67.4854,25.1165 L62.9984,25.1165 L62.9984,4.2795 L56.4934,4.2795 L56.4934,7.2355 C56.4934,19.2025 53.7454,25.1515 46.8924,25.3945 L46.8924,21.2895 C50.5454,20.8025 52.2144,16.7325 52.2144,7.1655" id="Fill-6" fill="#6690B3"></path>
                <polygon id="Fill-8" fill="#6690B3" points="73.4697 0.4174 88.2547 0.4174 88.2547 4.2794 77.9567 4.2794 77.9567 10.7494 86.2707 10.7494 86.2707 14.6104 77.9567 14.6104 77.9567 21.2544 88.8107 21.2544 88.8107 25.1164 73.4697 25.1164"></polygon>
                <path d="M101.96,12.6967 C104.568,12.6967 106.099,11.0277 106.099,8.4527 C106.099,5.9137 104.568,4.2797 102.029,4.2797 L97.751,4.2797 L97.751,12.6967 L101.96,12.6967 Z M93.263,0.4177 L102.795,0.4177 C107.421,0.4177 110.656,3.6517 110.656,8.4527 C110.656,13.2537 107.421,16.5927 102.795,16.5927 L97.751,16.5927 L97.751,25.1157 L93.263,25.1157 L93.263,0.4177 Z" id="Fill-10" fill="#6690B3"></path>
                <polygon id="Fill-12" fill="#6690B3" points="114.5527 0.4174 128.7457 0.4174 128.7457 4.2794 119.0397 4.2794 119.0397 25.1164 114.5527 25.1164"></polygon>
                <path d="M143.4604,21.4292 C147.9824,21.4292 151.6014,17.6022 151.6014,12.5932 C151.6014,7.7912 147.9824,4.1042 143.4604,4.1042 C138.9384,4.1042 135.3204,7.7912 135.3204,12.5932 C135.3204,17.6022 138.9384,21.4292 143.4604,21.4292 M143.4604,0.0002 C150.7314,0.0002 156.2274,5.5312 156.2274,12.5932 C156.2274,19.8642 150.7314,25.5332 143.4604,25.5332 C136.1894,25.5332 130.6934,19.8642 130.6934,12.5932 C130.6934,5.5312 136.1894,0.0002 143.4604,0.0002" id="Fill-14" fill="#6690B3"></path>
                <path d="M163.5669,7.1655 L163.5669,0.4175 L178.8379,0.4175 L178.8379,25.1165 L174.3509,25.1165 L174.3509,4.2795 L167.8459,4.2795 L167.8459,7.2355 C167.8459,19.2025 165.0979,25.1515 158.2449,25.3945 L158.2449,21.2895 C161.8979,20.8025 163.5669,16.7325 163.5669,7.1655" id="Fill-16" fill="#6690B3"></path>
                <path d="M196.1279,21.4292 C200.6499,21.4292 204.2679,17.6022 204.2679,12.5932 C204.2679,7.7912 200.6499,4.1042 196.1279,4.1042 C191.6059,4.1042 187.9879,7.7912 187.9879,12.5932 C187.9879,17.6022 191.6059,21.4292 196.1279,21.4292 M196.1279,0.0002 C203.3979,0.0002 208.8949,5.5312 208.8949,12.5932 C208.8949,19.8642 203.3979,25.5332 196.1279,25.5332 C188.8569,25.5332 183.3609,19.8642 183.3609,12.5932 C183.3609,5.5312 188.8569,0.0002 196.1279,0.0002" id="Fill-18" fill="#6690B3"></path>
                <polygon id="Fill-20" fill="#6690B3" points="213.4175 0.4174 227.6095 0.4174 227.6095 4.2794 217.9045 4.2794 217.9045 25.1164 213.4175 25.1164"></polygon>
                <path d="M231.019,0.4174 L235.506,0.4174 L235.506,14.6794 C235.506,16.1414 235.263,18.5064 235.263,18.5064 L235.332,18.5064 C235.332,18.5064 236.515,16.1064 237.42,14.6454 L246.743,0.4174 L251.196,0.4174 L251.196,25.1164 L246.743,25.1164 L246.743,10.8884 C246.743,9.4274 246.986,7.0614 246.986,7.0614 L246.917,7.0614 C246.917,7.0614 245.769,9.4274 244.864,10.8884 L235.472,25.1164 L231.019,25.1164 L231.019,0.4174 Z" id="Fill-22" fill="#6690B3"></path>
                <path d="M268.7974,12.1401 L268.7974,4.2791 L265.6324,4.2791 C264.0314,4.2791 263.1614,4.5221 262.5354,4.9051 C261.5264,5.5311 261.0044,6.7481 261.0044,8.0711 C261.0044,10.6791 262.5014,12.1401 264.9014,12.1401 L268.7974,12.1401 Z M260.0314,16.4191 C260.5874,15.4801 260.8304,15.1321 260.8304,15.1321 L260.8304,15.0631 C257.8044,13.7401 256.4474,11.0271 256.4474,7.8961 C256.4474,4.4171 258.1874,2.0871 260.5874,1.0781 C261.6304,0.6261 262.8484,0.4171 265.2834,0.4171 L273.2854,0.4171 L273.2854,25.1161 L268.7974,25.1161 L268.7974,15.8971 L265.1794,15.8971 L259.8224,25.1161 L254.8134,25.1161 L260.0314,16.4191 Z" id="Fill-24" fill="#6690B3"></path>
                <path d="M286.6069,18.7851 C287.9289,20.1411 290.0499,21.2891 292.2419,21.2891 C294.7829,21.2891 296.6609,19.7241 296.6609,17.6021 C296.6609,14.9931 294.2939,13.7751 291.3729,13.7751 L289.6689,13.7751 L288.6939,11.4801 L293.2169,6.1221 C294.1559,4.9741 294.9909,4.2441 294.9909,4.2441 L294.9909,4.1751 C294.9909,4.1751 294.2249,4.2791 292.7989,4.2791 L285.4239,4.2791 L285.4239,0.4171 L300.4869,0.4171 L300.4869,3.2341 L294.4689,10.2261 C297.8779,10.7141 301.1829,13.1491 301.1829,17.4291 C301.1829,21.6381 298.0169,25.5341 292.4869,25.5341 C289.5639,25.5341 286.4669,24.4211 284.3119,22.2281 L286.6069,18.7851 Z" id="Fill-26" fill="#00467F"></path>
                <path d="M317.9849,17.289 C317.9849,14.75 316.4199,12.697 313.4629,12.697 C311.3409,12.697 309.3929,13.671 309.3929,15.48 C309.3929,18.228 311.5139,21.429 314.3339,21.429 C316.5579,21.429 317.9849,19.585 317.9849,17.289 M316.1069,-3.55271368e-15 C317.7769,-3.55271368e-15 319.6549,0.313 321.1859,1.043 L319.8629,4.905 C319.1689,4.522 317.5329,4.14 316.3489,4.14 C312.4889,4.14 310.4019,7.374 309.8099,10.749 L309.8809,10.749 C310.7149,9.74 312.7319,9.01 314.5059,9.01 C319.3769,9.01 322.4029,12.801 322.4029,17.289 C322.4029,21.811 319.1689,25.534 314.2969,25.534 C309.1499,25.534 304.7309,21.254 304.7309,13.845 C304.7309,7.34 308.4539,-3.55271368e-15 316.1069,-3.55271368e-15" id="Fill-29" fill="#00467F"></path>
                <path d="M339.2056,12.7324 C339.2056,7.9314 338.2296,4.1394 334.8566,4.1394 C331.4816,4.1394 330.5086,7.9314 330.5086,12.7324 C330.5086,17.6024 331.4816,21.4294 334.8566,21.4294 C338.2296,21.4294 339.2056,17.6024 339.2056,12.7324 M325.8816,12.7324 C325.8816,5.6354 328.1076,0.0004 334.8566,0.0004 C341.6046,0.0004 343.7966,5.6354 343.7966,12.7324 C343.7966,19.8284 341.6046,25.5334 334.8566,25.5334 C328.1076,25.5334 325.8816,19.8284 325.8816,12.7324" id="Fill-32" fill="#00467F"></path>
                <path d="M352.3335,7.748 C353.5075,7.748 354.5145,6.872 354.5145,5.436 C354.5145,3.983 353.5075,3.07 352.3335,3.07 C351.1585,3.07 350.1535,3.983 350.1535,5.436 C350.1535,6.872 351.1585,7.748 352.3335,7.748 M352.3145,0.387 C355.3525,0.387 357.7755,2.418 357.7755,5.436 C357.7755,8.437 355.3525,10.431 352.3335,10.431 C349.3135,10.431 346.8935,8.437 346.8935,5.436 C346.8935,2.418 349.3135,0.387 352.3145,0.387" id="Fill-34" fill="#00467F"></path>
            </g>
        </g>
    </g>
</svg>