<svg 
  xmlns="http://www.w3.org/2000/svg"
  xmlns:xlink="http://www.w3.org/1999/xlink"
  width="31px" height="32px">
<path fill-rule="evenodd"  fill="rgb(255, 255, 255)"
  d="M30.999,24.499 C30.999,26.156 28.537,27.499 25.500,27.499 C22.462,27.499 20.000,26.156 20.000,24.499 C20.000,22.842 22.462,21.499 25.500,21.499 C26.401,21.499 27.249,21.619 27.999,21.829 L27.999,18.999 L27.999,9.353 L11.000,13.061 L11.000,28.999 C11.000,30.656 8.537,31.999 5.500,31.999 C2.462,31.999 -0.000,30.656 -0.000,28.999 C-0.000,27.342 2.462,25.999 5.500,25.999 C6.401,25.999 7.249,26.120 8.000,26.329 L8.000,23.999 L8.000,5.999 C8.000,4.840 9.499,4.499 9.499,4.499 L29.499,-0.001 C30.328,-0.001 30.999,0.671 30.999,1.499 L30.999,22.999 L30.999,23.999 L30.999,24.499 L30.999,24.499 L30.999,24.499 Z"/>
</svg>