<svg 
 xmlns="http://www.w3.org/2000/svg"
 xmlns:xlink="http://www.w3.org/1999/xlink"
 width="24px" height="28px">
<path fill-rule="evenodd"  fill="rgb(255, 255, 255)"
 d="M22.000,23.499 L2.000,23.499 C1.171,23.499 0.499,22.827 0.499,21.999 C0.499,21.171 1.171,20.499 2.000,20.499 C2.828,20.499 3.499,19.828 3.499,18.999 L3.499,8.999 C3.499,5.133 6.633,1.999 10.500,1.999 C10.500,1.171 11.171,0.499 11.999,0.499 C12.828,0.499 13.500,1.171 13.500,1.999 C17.365,1.999 20.499,5.133 20.499,8.999 L20.499,18.999 C20.499,19.828 21.171,20.499 22.000,20.499 C22.828,20.499 23.499,21.171 23.499,21.999 C23.499,22.827 22.828,23.499 22.000,23.499 ZM11.999,27.999 C10.343,27.999 9.000,26.656 9.000,24.999 L14.999,24.999 C14.999,26.656 13.656,27.999 11.999,27.999 Z"/>
</svg>