<svg 
  xmlns="http://www.w3.org/2000/svg"
  xmlns:xlink="http://www.w3.org/1999/xlink"
  width="34px" height="39px">
<path fill-rule="evenodd"  opacity="0.859" fill="rgb(255, 255, 255)"
  d="M34.000,19.499 C34.000,20.839 33.281,22.010 32.210,22.647 L32.210,22.647 L5.538,38.466 C5.529,38.471 5.519,38.477 5.510,38.483 L5.496,38.491 L5.495,38.491 C4.953,38.813 4.319,38.999 3.642,38.999 C1.630,38.999 -0.001,37.362 -0.001,35.343 L-0.001,35.343 L-0.001,3.655 L-0.001,3.655 C-0.001,1.636 1.630,-0.001 3.642,-0.001 C4.319,-0.001 4.953,0.185 5.495,0.508 L5.496,0.507 L5.510,0.516 C5.519,0.522 5.529,0.528 5.538,0.533 L32.210,16.352 L32.210,16.352 C33.281,16.988 34.000,18.159 34.000,19.499 Z"/>
</svg>