<svg 
  xmlns="http://www.w3.org/2000/svg"
  xmlns:xlink="http://www.w3.org/1999/xlink"
  width="24px" height="24px">
<path fill-rule="evenodd"  fill="rgba(255, 255, 255, 1)"
  d="M21.750,23.999 C21.128,23.999 20.565,23.747 20.158,23.340 L13.564,16.746 C12.225,17.537 10.668,17.999 9.000,17.999 C4.029,17.999 -0.001,13.970 -0.001,8.999 C-0.001,4.029 4.029,-0.001 9.000,-0.001 C13.970,-0.001 17.999,4.029 17.999,8.999 C17.999,10.667 17.537,12.224 16.746,13.564 L23.340,20.158 C23.748,20.565 24.000,21.128 24.000,21.749 C24.000,22.992 22.992,23.999 21.750,23.999 ZM9.000,2.249 C5.271,2.249 2.249,5.271 2.249,8.999 C2.249,12.727 5.271,15.749 9.000,15.749 C12.727,15.749 15.749,12.727 15.749,8.999 C15.749,5.271 12.727,2.249 9.000,2.249 Z"/>
</svg>