<svg 
  xmlns="http://www.w3.org/2000/svg"
  xmlns:xlink="http://www.w3.org/1999/xlink"
  width="32px" height="29px">
<path fill-rule="evenodd"  opacity="0.902" fill="rgb(17, 17, 17)"
  d="M25.500,13.228 C21.910,13.228 19.000,10.266 19.000,6.614 C19.000,2.961 21.910,-0.000 25.500,-0.000 C29.090,-0.000 32.000,2.961 32.000,6.614 C32.000,10.266 29.090,13.228 25.500,13.228 ZM28.500,5.087 L27.000,5.087 L27.000,3.561 C27.000,2.718 26.328,2.034 25.500,2.034 C24.672,2.034 24.000,2.718 24.000,3.561 L24.000,5.087 L22.500,5.087 C21.671,5.087 21.000,5.771 21.000,6.614 C21.000,7.457 21.671,8.140 22.500,8.140 L24.000,8.140 L24.000,9.666 C24.000,10.509 24.672,11.192 25.500,11.192 C26.328,11.192 27.000,10.509 27.000,9.666 L27.000,8.140 L28.500,8.140 C29.328,8.140 30.000,7.457 30.000,6.614 C30.000,5.771 29.328,5.087 28.500,5.087 ZM12.112,17.728 L25.001,16.853 L25.940,14.731 C27.349,14.653 28.660,14.207 29.782,13.481 L27.368,18.942 L27.368,18.942 C27.146,19.443 26.666,19.800 26.100,19.838 L26.100,19.838 L13.140,20.717 L13.889,22.894 L28.000,22.894 C29.657,22.894 31.000,24.261 31.000,25.947 C31.000,27.633 29.657,29.000 28.000,29.000 C26.343,29.000 25.000,27.633 25.000,25.947 L11.000,25.947 C11.000,27.633 9.657,29.000 8.000,29.000 C6.343,29.000 5.000,27.633 5.000,25.947 C5.000,24.261 6.343,22.894 8.000,22.894 L10.711,22.894 L4.936,6.105 L1.500,6.105 C0.671,6.105 -0.000,5.421 -0.000,4.578 C-0.000,3.736 0.671,3.052 1.500,3.052 L6.000,3.052 C6.654,3.052 7.205,3.481 7.410,4.076 L7.416,4.074 L8.289,6.614 L17.500,6.614 C17.500,7.694 17.711,8.723 18.087,9.666 L9.339,9.666 L12.112,17.728 Z"/>
</svg>