<svg 
  xmlns="http://www.w3.org/2000/svg"
  xmlns:xlink="http://www.w3.org/1999/xlink"
  width="38px" height="30px">
<path fill-rule="evenodd" fill="rgb(255, 255, 255)" 
  d="M0.160,6.605 L0.157,6.606 L5.501,18.371 L5.501,18.371 C5.764,18.951 6.334,19.364 7.006,19.408 L7.006,19.408 L22.396,20.424 L21.507,22.941 L4.750,22.941 C2.782,22.941 1.187,24.521 1.187,26.471 C1.187,28.420 2.782,30.000 4.750,30.000 C6.717,30.000 8.312,28.420 8.312,26.471 L24.937,26.471 C24.937,28.420 26.532,30.000 28.500,30.000 C30.467,30.000 32.062,28.420 32.062,26.471 C32.062,24.521 30.467,22.941 28.500,22.941 L25.281,22.941 L32.139,3.529 L36.219,3.529 C37.202,3.529 38.000,2.739 38.000,1.765 C38.000,0.790 37.202,-0.000 36.219,-0.000 L30.875,-0.000 C30.098,-0.000 29.444,0.496 29.200,1.184 L29.194,1.182 L28.156,4.118 L1.781,4.118 C0.797,4.118 -0.000,4.908 -0.000,5.882 C-0.000,6.141 0.059,6.384 0.160,6.605 ZM26.910,7.647 L23.617,16.967 L8.310,15.957 L4.536,7.647 L26.910,7.647 Z"/>
</svg>