<svg 
  xmlns="http://www.w3.org/2000/svg"
  xmlns:xlink="http://www.w3.org/1999/xlink"
  width="42px" height="33px">
<path fill-rule="evenodd"  fill="rgb(255, 255, 255)"
  d="M41.823,7.265 L41.826,7.266 L35.920,20.208 L35.920,20.208 C35.628,20.845 34.998,21.299 34.255,21.347 L34.255,21.348 L17.246,22.466 L18.229,25.234 L36.750,25.234 C38.924,25.234 40.687,26.972 40.687,29.117 C40.687,31.261 38.924,32.999 36.750,32.999 C34.575,32.999 32.812,31.261 32.812,29.117 L14.437,29.117 C14.437,31.261 12.674,32.999 10.499,32.999 C8.325,32.999 6.562,31.261 6.562,29.117 C6.562,26.972 8.325,25.234 10.499,25.234 L14.057,25.234 L6.478,3.882 L1.968,3.882 C0.881,3.882 -0.000,3.012 -0.000,1.940 C-0.000,0.868 0.881,-0.001 1.968,-0.001 L7.875,-0.001 C8.734,-0.001 9.457,0.545 9.725,1.301 L9.733,1.299 L10.879,4.529 L40.031,4.529 C41.118,4.529 42.000,5.398 42.000,6.470 C42.000,6.754 41.934,7.022 41.823,7.265 ZM12.257,8.411 L15.897,18.663 L32.814,17.552 L36.986,8.411 L12.257,8.411 Z"/>
</svg>