  <svg 
   xmlns="http://www.w3.org/2000/svg"
   xmlns:xlink="http://www.w3.org/1999/xlink"
   width="32px" height="30px">
  <path fill-rule="evenodd"  fill="rgb(255, 255, 255)"
   d="M27.561,28.607 C27.289,28.870 26.914,29.032 26.500,29.032 C26.086,29.032 25.711,28.870 25.439,28.607 L23.439,26.672 C23.168,26.409 23.000,26.046 23.000,25.645 C23.000,24.843 23.672,24.194 24.500,24.194 C24.914,24.194 25.289,24.356 25.561,24.619 L26.500,25.528 L29.439,22.683 L29.439,22.683 C29.711,22.420 30.086,22.258 30.500,22.258 C31.328,22.258 32.000,22.908 32.000,23.709 C32.000,24.110 31.832,24.473 31.561,24.736 L27.561,28.607 ZM26.488,23.486 C25.958,23.028 25.266,22.742 24.500,22.742 C22.843,22.742 21.500,24.042 21.500,25.645 C21.500,26.447 21.836,27.173 22.379,27.698 L24.379,29.634 C24.520,29.771 24.678,29.892 24.845,30.000 L1.500,30.000 C0.672,30.000 -0.000,29.350 -0.000,28.548 C-0.000,28.547 0.000,28.546 0.000,28.545 L-0.001,28.545 C-0.001,28.545 -0.001,23.255 3.993,21.332 C6.521,20.115 5.548,21.103 8.650,19.857 C11.753,18.614 12.488,18.180 12.488,18.180 L12.517,15.314 C12.517,15.314 11.355,14.453 10.994,11.756 C10.267,11.960 10.027,10.930 9.984,10.275 C9.945,9.642 9.563,7.664 10.450,7.843 C10.269,6.522 10.138,5.331 10.202,4.701 C10.425,2.486 12.629,0.172 16.024,0.003 C20.017,0.172 21.599,2.484 21.821,4.699 C21.885,5.330 21.743,6.521 21.561,7.840 C22.449,7.663 22.063,9.638 22.020,10.271 C21.981,10.927 21.735,11.953 21.010,11.750 C20.647,14.446 19.485,15.300 19.485,15.300 L19.513,18.151 C19.513,18.151 20.247,18.557 23.350,19.801 C26.453,21.046 25.479,20.115 28.007,21.332 C28.169,21.410 28.305,21.508 28.454,21.597 C28.430,21.618 28.402,21.634 28.379,21.657 L26.488,23.486 ZM31.752,26.604 C31.997,27.718 32.001,28.545 32.001,28.545 L32.000,28.545 C32.000,28.546 32.000,28.547 32.000,28.548 C32.000,29.350 31.328,30.000 30.500,30.000 L28.155,30.000 C28.322,29.892 28.480,29.771 28.621,29.634 L31.752,26.604 Z"/>
  </svg>