<svg 
  xmlns="http://www.w3.org/2000/svg"
  xmlns:xlink="http://www.w3.org/1999/xlink"
  width="18px" height="19px">
<path fill-rule="evenodd"  opacity="0.851" fill="rgb(255, 255, 255)"
  d="M-0.000,2.191 L-0.000,16.807 L-0.000,16.807 C-0.000,18.018 1.007,18.999 2.250,18.999 C2.688,18.999 3.096,18.877 3.442,18.666 L3.442,18.666 L13.499,12.541 L13.499,16.807 C13.499,18.018 14.507,18.999 15.749,18.999 C16.992,18.999 17.999,18.018 17.999,16.807 L17.999,2.191 C17.999,0.981 16.992,-0.001 15.749,-0.001 C14.507,-0.001 13.499,0.981 13.499,2.191 L13.499,6.457 L3.442,0.333 L3.442,0.333 C3.096,0.122 2.688,-0.001 2.250,-0.001 C1.007,-0.001 -0.000,0.981 -0.000,2.191 L-0.000,2.191 Z"/>
</svg>