<svg xmlns="http://www.w3.org/2000/svg"><symbol id="arrow"><path fill-rule="evenodd" fill="#FFF" d="M5.5 9c-.378 0-.708-.19-.888-.474L.15 1.466l-.004-.008-.003-.003A.915.915 0 0 1 0 .964C0 .431.462 0 1.031 0h8.938C10.538 0 11 .431 11 .964a.916.916 0 0 1-.144.491l-.002.003a.022.022 0 0 1-.005.008l-4.461 7.06C6.208 8.81 5.878 9 5.5 9z"/></symbol><symbol id="camera"><path fill-rule="evenodd" fill="#FFF" d="M30.499 25.999H1.5a1.5 1.5 0 0 1-1.501-1.5v-20a1.5 1.5 0 0 1 1.501-1.5h6.406L10.308.597a1.492 1.492 0 0 1 1.191-.598H20.5c.421 0 .8.175 1.073.455l.001-.002 2.547 2.547h6.378a1.5 1.5 0 0 1 1.5 1.5v20a1.5 1.5 0 0 1-1.5 1.5zM16 4.999a9 9 0 1 0-.001 18A9 9 0 0 0 16 5zm0 15a6 6 0 1 1 0-12 6 6 0 0 1 0 12z"/></symbol><symbol id="circle-play"><path fill-rule="evenodd" fill="#191919" d="M13 26C5.82 26 0 20.179 0 12.999c0-7.179 5.82-13 13-13s13 5.821 13 13C26 20.179 20.18 26 13 26zm0-23.563c-5.834 0-10.563 4.729-10.563 10.562 0 5.834 4.729 10.563 10.563 10.563 5.833 0 10.562-4.729 10.562-10.563 0-5.833-4.729-10.562-10.562-10.562zm3.867 11.613l-6.464 4.052-.005-.008a1.246 1.246 0 0 1-.301.136l-.011.003a.52.52 0 0 1-.068.017l-.012.004-.078.014-.012.001-.066.008-.021.001a1.22 1.22 0 0 1-1.298-1.216V8.937a1.22 1.22 0 0 1 1.906-1.007l6.419 4.012a1.218 1.218 0 0 1 .011 2.108z"/></symbol><symbol id="circle"><path fill-rule="evenodd" fill="#FFF" d="M18 35.999c-9.942 0-18.001-8.058-18.001-18C-.001 8.058 8.058 0 18 0c9.941 0 18 8.058 18 17.999 0 9.942-8.059 18-18 18zm0-32.625c-8.078 0-14.625 6.548-14.625 14.625 0 8.078 6.547 14.626 14.625 14.626 8.077 0 14.624-6.548 14.624-14.626 0-8.077-6.547-14.625-14.624-14.625z"/></symbol><symbol id="globe" viewBox="0 0 32 32"><style>.st0{fill:#fff}</style><path class="st0" d="M16 32C9.4 32 3.2 27.7 1 21.5-1.3 15.2.7 7.9 5.8 3.6 11-.6 18.5-1.2 24.2 2.3 30 5.7 33 12.6 31.7 19.2 30.2 26.5 23.5 32 16 32zm8.9-25.4c-.2 0-.2-.2-.3-.4 0 .6.1.8-.5 1 .1.3.5.1.7 0 .2-.2 0-.5.4-.5-.1-.1-.2-.1-.3-.1zm.4.4c-.1 0 0 0-.1-.1 0 .2.3.2.1.1zm3.6 10.8c0-.2.2-.7.1-.8-.1-.2-.2.1-.2-.2-.2 0-.2.5-.2.6 0 .2.2.3.3.4zM3.4 19.1c.1-.3.2-.1.4-.3-.1-.1-.3-.5-.3 0-.2 0-.1-.1-.3-.1.1.1.2.5.2.4zM4 14s0-.1 0 0zm-.3-2.3c.1 0 0 0 0 0zm3.7-5.1c-.2 0-.1 0 0 0 0-.1-.2.1 0 0-.1-.1-.2-.1-.2-.1h.1c-.1-.1-.2.1-.2.1h.3zm-.6.3c-.1 0 0 0 0 0zm3.6-2.6c.1.1 0 0-.1.1.1 0-.1.1-.1.1 0-.1.3 0 .4.1.1.1-.3 0-.3 0s.1 0 0 0h.2l-.2.1c.1 0 .2-.1.2.1 0 0 .2-.1.2 0s-.3.1-.3.1.3.3.4.2c-.1.1-.2.2-.4.1 0 0 .2 0 .1-.1l-.3.1c.1.1 0 .1-.2.2v.1c-.1 0 .3-.1.3-.1 0 .1-.1.1-.1.1 0 .1.2-.1.3 0 .1.1-.2 0 0 .1.2-.2.4 0 .5-.1v0l.2.2c0 .1-.2 0-.2-.1-.1.1 0 .1-.3 0-.2 0-.5-.1-.7-.1 0 0 .2.2.2.1.4-.1.5.1.1.2.2.1-.1.1 0 .2l.4-.1-.2.2c.2 0 .6-.2.8-.3 0 .2-.5.9-.8.9.1.2-.3 0-.3 0 .2.2.1.1 0 .3v.2c0 .1-.3.2-.3.2 0 .1-.2.2-.2.3h-.1s0-.2.1-.2l-.2.1s.1 0 .1.1h-.2s0 .1-.1.1c.3 0-.1.1-.1.1.1 0 .2.1.2.2 0 0-.1 0-.2.1l.2.1h-.2.2c0 .1-.1.1-.1.1s.2.1-.1 0c0 .1.1 0-.1.2 0 0 .1 0 .1.1h-.1c.1.1.1.2.2.2-.2-.1-.3.2-.3.1 0 .1.1.1 0 .1 0 .1.1 0 .2 0-.1.1-.2.1-.3.1 0 0 .2 0 .2.1l-.4.1s.1-.1.1-.2h-.2l.1-.1s-.1 0-.1.1c0 0 .1-.1 0-.1-.3 0-.4.2-.6.1.1 0 .1 0 0-.1h-.1L7.8 9h.1c-.1 0-.1.1-.2 0 .1 0 .1 0 0 0l.1-.1h-.1s-.1-.2-.1-.3c-.2 0 0 .1-.2 0-.1-.1-.1-.1 0-.2h-.2c.1-.1 0 .1 0-.1.1 0 .2 0 .3-.1-.1-.1-.2.1-.3 0 .2-.2.2-.1.4-.1 0 0-.2-.2-.3-.2 0 0-.1.3-.2.3 0 0 0-.2.1-.2 0 0-.1-.1-.1 0 .1 0-.1-.1-.1-.1.1-.2.1 0-.1-.1 0 0 0-.1.1-.1h-.1c.1 0 .5 0 .6-.1-.1 0-.6.2-.6.3-.1 0 .3 0 0-.1h.2l-.2-.1c.1 0 .3-.1.4 0-.1-.1-.3 0-.4 0 .1-.3.2-.3.4-.3v-.1c-.1 0-.3.2-.4.2-.1-.1.2-.2.2-.2s-.1 0-.1-.1c.1 0 .3.1.4 0l-.1-.1H7l.4-.2c-.3.2 0 .1 0 .1h-.1c.1-.1 0-.1.1-.2-.1 0-.4-.1-.5 0 0 0 .3.1.3.2 0 0-.4.2-.3.1H7c-.2-.5-1.2.9-1.3.9.1 0 .1 0 .2.1-.1 0-.1 0-.1.1.2 0 .3 0 .5.1-.1.1-.1 0-.2.1 0 0 0 .1.1.1-.2 0-.3 0-.2.2-.2 0-.3-.3-.5-.4-.1.2-.1.2-.2.3 0 .2.3.2.4.3-.1 0 .1.2.1.3 0-.1 0-.1-.1-.2 0 .1.1.3.1.3-.1 0-.3-.2-.4-.3 0 .1-.1 0-.2 0 0 .2.4.2.4.4-.2 0-.9-.4-.8.2 0 .1.3.1.3.2.1.1-.1.4 0 .4.4.1.5 0 .7-.3.1.1.5.6.5.7h-.1c.1.1.3.2.3.3.2 0 .3.1.5.1-.1.1-.4.1-.4.3.3-.1.9-.1.5.3-.2.3-.8.2-1.1.3-.4.1-.8.2-1 .7.1-.1.8-.7 1-.3 0 .1-.3.1-.3.1.1 0 .2 0 .3.1l-.1.1c.1 0 .1.1.2.2.2 0 .4.1.5.1-.2.1-.8.4-.7.1h-.1c.1-.1.3-.2.4-.2 0-.1-.1-.1-.2 0 0 0 0-.1.1-.1H6c0 .1-.3.2-.4.1.1.2-.3.1-.2.1 0 0-.5.6-.2.5 0 0-.2.1-.2 0-.1 0-.4.2-.4.1 0 .1 0 .3-.2.4 0 0-.1-.1-.1-.2 0 0 .1.4-.1.5 0-.1-.1-.4 0-.4-.1 0-.1.1-.1.2-.1 0 0-.2 0 0H4c0-.1.2.2.1.1s0 0 0 .1H4s.1 0 .1.1c0 0-.1-.1-.1 0 .1.2.1.1.2.2h-.1c0 .1.1 0 .1.1 0 0 0-.1 0 0s-.1 0-.2 0c0 0 .1 0 .1.1s0 .1-.1 0c0 .1.1 0 .1 0-.1.1-.5.1-.7.3-.2.4.2.7.1 1.1-.3 0-.3-.6-.5-.8v1.1c.4-.2 1.1.2 1.4.4 0 .1-.5 0-.5 0l.1-.1c-.2-.1-.5-.1-.7-.3.2 0-.1-.1-.2 0-.1.2.1 1.9.3 2 .2.1.8-.3.6.2.1 0 .2-.2.3-.1-.1.1-.3.3-.1.4.1 0 0-.3 0-.3.1 0 .2-.1.3-.1l-.1-.1c-.3.6.9.5 1 .6h-.1c0 .1.2.1.3.2l-.1.1c.2 0 .4 0 .5.3 0 .1 2.1.3.9 1.2 0 0 .1 0 .2-.1.1.2.2 0 .2.2.3-.2.6-.3.7.1.3-.2 1.3.1 1.4.5.1.3-.4 1-.5.9 0 .4-.1.8-.2 1.1-.3.4-.3.3-.7.5-.2.1-.5.2-.6.3v.4c-.1.2-.3.5-.4.6.1-.1.1-.2.1-.2H7c0 .4-.2-.2.1.4.2.3.7.6.9.8.7.5 1.4.9 2.1 1.3 1.5.8 3.2 1.2 4.9 1.4 2.9.2 5.8-.5 8.2-2.1 2.3-1.5 4.1-3.8 5-6.4.3-.9.7-1.8.3-2.6l-.2-.6c0-.1 0-1-.3-1 0 .2-.3.2-.4.2 0-.3 0-.3-.1-.5.1 0-.4-.5-.4-.6-.2.2-.2.1-.4.2s-.8.6-.9.8c-.1.2-.4.9-.3 1-.2.1-.1.2-.4.1-.1-.1-.2-.5-.2-.6-.2-.4-.4-1-.3-1.4-.2 0-.3.5-.6 0 0 0 .2 0 .2-.1-.3.1-.3-.2-.5-.3-.2-.1-.3-.1-.5-.1h-.7c-.1 0-.3-.2-.3-.2-.2-.1-.2.1-.4.1-.2-.1-.3-.3-.5-.4-.2-.1-.2-.3-.4 0 .3.1.3.5.5.8 0 0 0-.2.1-.2.2 0 0 .2.2.3.4.1.3-.3.6-.3 0 .3.3.3.4.5 0 .1-.1.5-.2.6-.3.3-.8.5-1.2.7-.2.1-.6.4-.8.3-.1 0-.2-.6-.3-.8-.3-.5-.8-1.2-1-1.8-.1-.4 0-.4.1-.8v-.4s-.4.1-.5.1c-.2 0-.4 0-.6-.1-.3-.1-.3-.2-.3-.5-.4.1.1-.2.1-.2s.1.1.2 0c0-.1.1-.1.2 0h-.1l.6-.2c.3 0 .4.1.7.2 1.1.1 0-.6-.2-.8.1 0 .1-.1.2-.2-.1-.2-.1 0 .1-.2-.1-.1-.7.2-.8.2.1.2.2.1.4.1-.1.3-.5.1-.6 0 .2-.2 0-.1-.1-.3-.2.2-.3.2-.4.4-.3.3-.2.3 0 .6l-.4.2c0-.2-.4-.2-.3 0h-.1s.1 0 0 .1h-.1c0 .1 0 0-.1-.1-.2 0 .1.3.1.2 0 .1 0-.1-.1 0v.1c.1 0 .1.1.2.1v.1c-.1 0 0-.1-.1 0l.1.1h-.1v.2h-.1c-.4-.2.1-.3.1-.3-.4 0-.4-.2-.5-.5-.1-.1-.5-.6-.6-.6l-.2-.2s0 .1-.1.1c-.1-.2 0-.1 0-.2-.7 0 .7 1 .7 1.1-.5-.3 0 .5-.4.3 0-.3 0-.3-.2-.5l-.5-.5c-.2-.1-.2-.1-.4-.1l-.4.1h-.1c-.1 0-.1.2-.1.2-.4.3-.4.7-.8.9-.5.3-.6-.2-1 0V13s-.1.1-.1 0c.3-.5-.1-.7.4-.8.2-.1.6.1.8 0 .1-.1 0-.5.1-.3-.1-.4-.4-.3-.6-.5.1 0 0-.1 0-.1 0-.2.4 0 .5-.1 0-.1 0-.1-.1-.2.1 0 .2.2.3 0 .1 0 .6-.6.7-.7.1 0 0 .1 0 .1.2 0 0-.2.3-.2 0 0 .2-.1.3-.1l-.1-.3c0-.3.2-.2.4-.2 0 0-.4.5 0 .4v.1s.5.1.6.1c0-.2.9-.2 1-.3.1-.2 0-.3.2-.5 0 0 .2.4.3-.1-.5-.3.4-.4.5-.3 0-.2.1 0 .3-.1 0 0-.3-.2-.2-.2 0 .1-.3.1-.3 0 0 .3-1.2 0-.6-.7 0 .1.3-.3.4-.3 0-.3-.3-.3-.4-.2-.4.1-.3.3-.4.5-.1.2-.4.2-.4.4-.1.4.2.2.2.5l-.4.1h.3s-.1.2-.1.1c-.1 0-.1.1-.2.1 0 .2 0 .3-.1.5-.2-.1-.2.2-.4.1.1-.3-.2-.6-.3-.9-.2.2-.6.6-.7.1h.1c-.1 0 0-.1 0-.1-.1.1 0 0-.1 0 0 .1-.1.1-.1 0v-.1h.1c-.1.1-.1-.2-.1-.3.1-.3.1-.1.3-.4 0 0 .4-.3.6-.5.2-.2.2-.4.3-.5.3-.3.6-.5 1-.7v.1c.2-.1.2-.1.3-.2 0 0 .4-.2.5-.2-.1 0-.1.1-.1.2.1 0 .2-.4.2-.1.1-.1.3-.3.2 0 0 0 .4-.2.4 0-.1.1-.2.1-.3 0 .1.1.5.2.7.2.2 0 .5.1.8.3.3.2.6.4.1.5-.3.1-.8-.3-1-.2.1.1.3.2.3.3.1.1-.2 0 0 .2.1.1.3.3.5.2.1 0-.2-.2-.2-.2.1-.1.4 0 .5.1.2-.3-.4-.1.1-.3.2-.1.2 0 .4 0 0-.2-.1-.4 0-.6.2 0 .3 0 .4.2-.1 0-.2 0-.3.1.4.3.9-.4 1.3-.4 0 .1-.1.1-.1.2.3.1.6-.3.9-.1-.1.2.1 0 .2 0 .2-.1-.3-.2.3-.3.2 0 .8.4.9.3.2-.2-.2-.2-.3-.4 0-.2.2-.4.2-.5 0-.3.2.1 0-.3-.1-.3-.8-.6-1.1-.7-.1.1-.4.2-.5.3.1.2-.1.1-.2.1-.6.1 0-.2 0-.2.1-.2.1-.3.4-.5-3.6-1.9-8.2-2.1-12.1-.2zm.1.6zm11.2 7.4c-.1 0 0-.1 0-.2-.1-.1-.4-.2-.4-.3h.2c-.1-.2.1-.2.2-.1-.1-.3 0-.4-.5-.2-.4.1-.4.2-.4.5v-.1c0 .3.4.4.4.6-.1 0-.3.3-.2.5.1.2.7.2.7.1 0 0 0-.5-.1-.4 0-.1.1 0 .1 0-.1 0-.2-.2-.1-.3 0 .1.2.1.3 0-.1-.3-.2.1-.2-.1zm-3.8.1c0-.1-.1 0 0 0zm4.3-6.9c.2.1-.1.1 0 .3 0 .1.2.3.2.4h-.5c0-.1.1-.1.1-.1-.5-.1-.3 0-.3-.3 0-.1 0-.3.5-.3zm-4.4-1.9c-.3.1-.4.1-.7.1 0-.1.1-.1.1-.2h-.5c.1-.1.1-.1.2-.3.2.3.3.1.5 0-.1.3.8.1.4.4zm-1 .1c.1 0 .2.1.3.1-.5.2-.3.8-.9.5.1-.1.2 0 .3-.1-.1-.1-.3.1-.4-.1 0 0 .4-.1.4-.2 0 0-1 0-.6-.2-.1-.1-.2.1-.2-.2.3-.2.3 0 .5.1v-.1c.1-.1.2.2.3.2.1-.1 0-.5.2-.1l.1.1zM14 10.6h.2c0 .1-1 .3-1 .2.1-.2.4-.2.4-.3h-.4c.2-.2.1-.1.1-.2.1-.2.2.1.3-.3 0-.1-.2.1 0-.1h-.3c0-.1.1-.2.1-.3-.1 0-.1 0-.1.1v-.2h-.1c.1-.2.1-.6.4-.4 0 .1-.2.1-.2.2s.3-.1.3.1c0 .1-.2.2-.1.2h-.2c0 .1.8.3.6.6.2.1.4.3 0 .4zm-.8-.9c0 .2-.1 0 0 0zm0 .3c-.2.3 0 .4-.4.5-.1 0-.3-.1-.3-.1l.2-.1c-.1 0 0-.1 0-.1h-.2s0-.1.1-.1h-.1c0-.1.1-.1.2-.1 0 0 0-.1.1-.1-.2 0 .3-.3.4.1zm-.6 4.1c.1-.2.5-.7.6-.7 0 0 .4.1.5.1.1 0 .2-.1.3-.1.3-.1.6-.2 1-.2.2 0 .5.1.6 0 0 .2 0 .3-.1.5 0 .1.7.4.8.5.7.3.4-.2 1-.2.2 0 .6.3.9.3.3 0 1.2-.3.8.5-.1 0-.2-.3-.2-.3s.9 2.1 1 2.3v-.1c.2.1.6.5.4.6 0 .5 1.1-.1 1.3 0 .3.3-1 1.5-1.1 1.6-.4.4-.8.8-.6 1.4.1.3.2.5.2.8-.1.3-.3.4-.6.6-.4.4 0 .4-.2.8 0 .1-.3.4-.4.5-.3.5-.6 1.1-1.2 1.2-.2 0-.8.1-.9 0-.1-.1-.1-.5-.2-.7-.2-.4-.3-.7-.4-1.1-.2-.6-.5-.8-.3-1.4.1-.3.2-.4.1-.7-.1-.2-.8-1.3-.5-1.3v-.6c-.1-.1-.2-.1-.3-.1-.1 0-.3-.1-.4-.1v-.1c-.4-.1-.8 0-1.2.1-.4.1-1.3.1-1.5-.5.1 0-.3-.4-.3-.5-.1-.2-.3-.1-.3-.4 0 0 .2-1.1 0-.9 0-.3.3-.7.5-.9.1-.1.2-.2.3-.2.3-.4.3-.4.4-.7zm-.7-6.4c0 .3-1 .4-1.2.2.4-.4-.2 0-.2-.2 0-.1.3 0 .3-.1-.1-.1-.3.1-.3-.1-.1-.1.2 0 .1-.1h.2c0-.3.1.1.2.2.2-.2.3-.2.5-.2s.2-.2.4 0c0 .1.2.3 0 .3zm3.4 10.6c-.2.1 0 0 0 0zm5.1 3.7c.3-.1 0-.4.1-.6.1-.3.2-.1.4-.2 0-.2.1-.2.1-.4.1 0 .2-.2.2-.2.1.1.2.4.1.5-.1-.1 0-.1-.1-.1 0 .3-.1 1.6-.6 1.5-.2.1-.4-.4-.2-.5zM19 13.5c-.1 0-.2.1-.3 0 .1 0 .3-.1.3-.1-.1 0-.1 0 0 .1zm-1.4 0c0-.1-.1-.1-.2-.1v-.1s.3.1.4.1c0 .1-.1.2-.2.1zm-1.4-.3c-.1 0-.4 0-.4-.1s.4-.1.4-.1c.1 0 0 .2 0 .2zm-.8-.5c0 .1-.1.1-.1.1-.2 0 0-.7.1-.1zm-.1-.3c0-.1-.2-.2 0-.3.1.1.1.3 0 .3zm-4.4-7c-.1.1-.4 0-.4-.1s.3-.1.4.1c-.1-.1-.1 0-.1 0 .1-.1.1-.1.1 0zm-.2-.2l-.2.1c0-.1.4-.2.2-.1zm-.3 0h.1s-.2.1-.1 0zm.2-.6c-.1 0 0-.2.1-.1.1 0-.1.1-.1.1zm0 .1c-.3 0 .1-.1 0 0zm-.1-.1zm.1.3c-.1 0-.1-.1 0 0 .2-.2.1-.1 0 0zm.1 1s-.2.1-.3.1c-.1-.2.6-.2.3-.1zM8.3 9.2c0-.2.1.1 0 0zm-.9 3.3c0-.1 0 0 0 0-.1-.1 0-.1-.1-.2-.1.1-.1.2-.2.1 0-.1.2-.1.2-.1h-.6c0-.1.1-.1.1-.2-.1 0 .2-.6.4-.6 0 0-.2.3-.2.4.1 0 0-.1.2-.1-.2.3.2.2.2.3l-.1.1c.1.1.1 0 .1 0l-.1.1v.1c.3-.1.3.2.1.1zm0 8.2c-.3.4-.4-.5 0-.1v.1zM7.3 6.8c.1.1-.1.1 0 0zm-1 5.9c0-.1.1-.1.1-.2.2.1-.1.1-.1.2.1.1.1-.1.2 0-.1 0-.1.1-.2 0zm-.8 4.5c-.1 0-.1 0-.1-.1h.2c0 .1 0 .2-.1.1zm0 1.8c0-.1 0-.1 0 0 .1.1-.2.1 0 0zm-.4-1.8c-.1 0-.2 0-.3.1-.1 0-.4-.1-.4-.1 0-.1.2 0 .3 0-.1-.2-.1-.2-.2-.2 0-.2.7.1.7.2-.1.1 0-.1-.1 0zm-.9-2.9c.1.2 0 .1 0 0zm0 0c0 .1 0 0 0 0zm0 0zM4 17.2c-.1 0-.2.1-.2 0 .1-.1.4.1.2 0zm21.7.3c.1-.4.4.7 0 .5-.1-.2-.1-.5 0-.5zM15.4 9.4s.1-.1.2-.1c-.1.1-.3.3-.3.2-.1-.1 0-.1.1-.1zm.3.3c0 .1.1 0 .1 0 0 .2-.1.1 0 .1l-.1.1c.1 0-.2-.3 0-.2zM5 13.4c0-.1.1 0 0 0zm0 0zm-.8.9zm0 0zm0 0zm0 0z"/></symbol><symbol id="like"><path fill-rule="evenodd" fill="#696969" d="M36.667 33h-5c-1.839 0-3.334-1.48-3.334-3.3V14.85c0-1.82 1.495-3.3 3.334-3.3h5c1.838 0 3.333 1.48 3.333 3.3V29.7c0 1.82-1.495 3.3-3.333 3.3zm-18.334 0H9.284a4.17 4.17 0 0 1-3.467-1.837L.833 23.762A4.857 4.857 0 0 1 0 21.037c0-.974.288-1.916.833-2.724l.834-1.238V14.85c0-1.82 1.495-3.3 3.333-3.3h7.303a.82.82 0 0 0 .709-.392.805.805 0 0 0 .037-.802l-2.676-5.298A3.482 3.482 0 0 1 10 3.495C10 1.568 11.584 0 13.53 0h.637c.231 0 .451.095.609.262l8.977 9.522a10.632 10.632 0 0 1 2.914 7.318v7.648c0 4.548-3.739 8.25-8.334 8.25z"/></symbol><symbol id="music"><path fill-rule="evenodd" fill="#FFF" d="M30.999 24.499c0 1.657-2.462 3-5.499 3-3.038 0-5.5-1.343-5.5-3s2.462-3 5.5-3c.901 0 1.749.12 2.499.33V9.353L11 13.061v15.938c0 1.657-2.463 3-5.5 3-3.038 0-5.5-1.343-5.5-3s2.462-3 5.5-3c.901 0 1.749.121 2.5.33V5.999c0-1.159 1.499-1.5 1.499-1.5l20-4.5a1.5 1.5 0 0 1 1.5 1.5v23z"/></symbol><symbol id="notification-2"><path fill-rule="evenodd" fill="#F00" d="M5 0c2.761 0 5 2.462 5 5.5S7.761 11 5 11 0 8.538 0 5.5 2.239 0 5 0z"/></symbol><symbol id="notification"><path fill-rule="evenodd" fill="#FFF" d="M22 23.499H2a1.5 1.5 0 1 1 0-3 1.5 1.5 0 0 0 1.499-1.5v-10a7 7 0 0 1 7.001-7 1.5 1.5 0 1 1 3 0 7 7 0 0 1 6.999 7v10a1.5 1.5 0 0 0 1.501 1.5 1.5 1.5 0 0 1 0 3zm-10.001 4.5a3 3 0 0 1-2.999-3h5.999a3 3 0 0 1-3 3z"/></symbol><symbol id="player-play"><path fill-rule="evenodd" opacity=".859" fill="#FFF" d="M34 19.499c0 1.34-.719 2.511-1.79 3.148L5.538 38.466a.419.419 0 0 0-.028.017l-.014.008h-.001a3.618 3.618 0 0 1-1.853.508 3.65 3.65 0 0 1-3.643-3.656V3.655A3.65 3.65 0 0 1 3.642-.001a3.61 3.61 0 0 1 1.853.509l.001-.001.014.009a.419.419 0 0 0 .028.017L32.21 16.352A3.655 3.655 0 0 1 34 19.499z"/></symbol><symbol id="search"><path fill-rule="evenodd" d="M21.75 23.999a2.245 2.245 0 0 1-1.592-.659l-6.594-6.594A8.943 8.943 0 0 1 9 17.999a9 9 0 1 1 8.999-9 8.949 8.949 0 0 1-1.253 4.565l6.594 6.594a2.25 2.25 0 0 1-1.59 3.841zM9 2.249a6.75 6.75 0 1 0-.002 13.5A6.75 6.75 0 0 0 9 2.25z"/></symbol><symbol id="share"><path fill-rule="evenodd" fill="#6D6D6D" d="M25.694 35H1.306C.575 35 0 34.505 0 33.763V15.06c0-.742.575-1.417 1.306-1.417H7.37c.73 0 1.327.607 1.327 1.349S8.1 16.341 7.37 16.341H2.656v15.961h21.688V16.341h-4.271a1.342 1.342 0 0 1-1.328-1.349c0-.742.597-1.349 1.328-1.349h5.621c.73 0 1.306.675 1.306 1.417v18.703c0 .742-.576 1.237-1.306 1.237zM21.157 9.597c-.31 0-.642-.113-.885-.337l-5.666-5.126v18.277c0 .742-.597 1.349-1.327 1.349a1.344 1.344 0 0 1-1.329-1.349V4.741L7.347 9.237a1.314 1.314 0 0 1-1.881-.045 1.366 1.366 0 0 1 .044-1.911L12.128.83c.132-.225.332-.427.575-.54a1.32 1.32 0 0 1 1.704.045l7.635 6.902c.554.494.598 1.348.111 1.91-.265.292-.62.45-.996.45z"/></symbol><symbol id="shopping-cart-add"><path fill-rule="evenodd" opacity=".902" fill="#111" d="M25.5 13.228c-3.59 0-6.5-2.962-6.5-6.614C19 2.961 21.91 0 25.5 0S32 2.961 32 6.614c0 3.652-2.91 6.614-6.5 6.614zm3-8.141H27V3.561c0-.843-.672-1.527-1.5-1.527S24 2.718 24 3.561v1.526h-1.5c-.829 0-1.5.684-1.5 1.527 0 .843.671 1.526 1.5 1.526H24v1.526c0 .843.672 1.526 1.5 1.526s1.5-.683 1.5-1.526V8.14h1.5c.828 0 1.5-.683 1.5-1.526s-.672-1.527-1.5-1.527zM12.112 17.728l12.889-.875.939-2.122a7.849 7.849 0 0 0 3.842-1.25l-2.414 5.461a1.502 1.502 0 0 1-1.268.896l-12.96.879.749 2.177H28c1.657 0 3 1.367 3 3.053S29.657 29 28 29s-3-1.367-3-3.053H11C11 27.633 9.657 29 8 29s-3-1.367-3-3.053 1.343-3.053 3-3.053h2.711L4.936 6.105H1.5c-.829 0-1.5-.684-1.5-1.527 0-.842.671-1.526 1.5-1.526H6c.654 0 1.205.429 1.41 1.024l.006-.002.873 2.54H17.5c0 1.08.211 2.109.587 3.052H9.339l2.773 8.062z"/></symbol><symbol id="shopping-cart-reverse"><path fill-rule="evenodd" fill="#FFF" d="M41.823 7.265l.003.001-5.906 12.942a1.97 1.97 0 0 1-1.665 1.139v.001l-17.009 1.118.983 2.768H36.75c2.174 0 3.937 1.738 3.937 3.883 0 2.144-1.763 3.882-3.937 3.882-2.175 0-3.938-1.738-3.938-3.882H14.437c0 2.144-1.763 3.882-3.938 3.882-2.174 0-3.937-1.738-3.937-3.882 0-2.145 1.763-3.883 3.937-3.883h3.558L6.478 3.882h-4.51C.881 3.882 0 3.012 0 1.94S.881-.001 1.968-.001h5.907a1.96 1.96 0 0 1 1.85 1.302l.008-.002 1.146 3.23h29.152c1.087 0 1.969.869 1.969 1.941 0 .284-.066.552-.177.795zM12.257 8.411l3.64 10.252 16.917-1.111 4.172-9.141H12.257z"/></symbol><symbol id="shopping-cart"><path fill-rule="evenodd" fill="#FFF" d="M.16 6.605l-.003.001 5.344 11.765c.263.58.833.993 1.505 1.037l15.39 1.016-.889 2.517H4.75c-1.968 0-3.563 1.58-3.563 3.53C1.187 28.42 2.782 30 4.75 30c1.967 0 3.562-1.58 3.562-3.529h16.625C24.937 28.42 26.532 30 28.5 30c1.967 0 3.562-1.58 3.562-3.529 0-1.95-1.595-3.53-3.562-3.53h-3.219l6.858-19.412h4.08c.983 0 1.781-.79 1.781-1.764C38 .79 37.202 0 36.219 0h-5.344c-.777 0-1.431.496-1.675 1.184l-.006-.002-1.038 2.936H1.781C.797 4.118 0 4.908 0 5.882c0 .259.059.502.16.723zm26.75 1.042l-3.293 9.32-15.307-1.01-3.774-8.31H26.91z"/></symbol><symbol id="sign-in"><path fill-rule="evenodd" fill="#FFF" d="M27.561 28.607a1.521 1.521 0 0 1-1.061.425c-.414 0-.789-.162-1.061-.425l-2-1.935A1.427 1.427 0 0 1 23 25.645c0-.802.672-1.451 1.5-1.451.414 0 .789.162 1.061.425l.939.909 2.939-2.845a1.521 1.521 0 0 1 1.061-.425c.828 0 1.5.65 1.5 1.451 0 .401-.168.764-.439 1.027l-4 3.871zm-1.073-5.121a3.03 3.03 0 0 0-1.988-.744c-1.657 0-3 1.3-3 2.903 0 .802.336 1.528.879 2.053l2 1.936c.141.137.299.258.466.366H1.5C.672 30 0 29.35 0 28.548v-.003h-.001s0-5.29 3.994-7.213c2.528-1.217 1.555-.229 4.657-1.475 3.103-1.243 3.838-1.677 3.838-1.677l.029-2.866s-1.162-.861-1.523-3.558c-.727.204-.967-.826-1.01-1.481-.039-.633-.421-2.611.466-2.432-.181-1.321-.312-2.512-.248-3.142.223-2.215 2.427-4.529 5.822-4.698 3.993.169 5.575 2.481 5.797 4.696.064.631-.078 1.822-.26 3.141.888-.177.502 1.798.459 2.431-.039.656-.285 1.682-1.01 1.479-.363 2.696-1.525 3.55-1.525 3.55l.028 2.851s.734.406 3.837 1.65c3.103 1.245 2.129.314 4.657 1.531.162.078.298.176.447.265-.024.021-.052.037-.075.06l-1.891 1.829zm5.264 3.118c.245 1.114.249 1.941.249 1.941H32v.003C32 29.35 31.328 30 30.5 30h-2.345c.167-.108.325-.229.466-.366l3.131-3.03z"/></symbol><symbol id="skip-next"><path fill-rule="evenodd" opacity=".851" fill="#FFF" d="M0 2.191v14.616c0 1.211 1.007 2.192 2.25 2.192.438 0 .846-.122 1.192-.333l10.057-6.125v4.266c0 1.211 1.008 2.192 2.25 2.192 1.243 0 2.25-.981 2.25-2.192V2.191c0-1.21-1.007-2.192-2.25-2.192-1.242 0-2.25.982-2.25 2.192v4.266L3.442.333A2.282 2.282 0 0 0 2.25-.001C1.007-.001 0 .981 0 2.191z"/></symbol><symbol id="star"><path fill-rule="evenodd" fill="#FFF" d="M31.378 13.214h.001l-8.059 5.83 3.104 9.486a1.5 1.5 0 0 1-2.303 1.684h-.001l-8.121-5.874-8.121 5.874a1.5 1.5 0 0 1-2.303-1.684l3.104-9.486-8.059-5.83a1.5 1.5 0 0 1 .879-2.715h9.976l3.09-9.44a1.5 1.5 0 0 1 2.869 0l3.089 9.44h9.976a1.5 1.5 0 0 1 .879 2.715z"/></symbol><symbol id="volume"><path fill-rule="evenodd" fill="#FFF" d="M26.246 29.831l-1.416-1.415A19.926 19.926 0 0 0 30 14.999c0-5.163-1.958-9.868-5.17-13.417L26.246.167A21.92 21.92 0 0 1 32 14.999a21.917 21.917 0 0 1-5.754 14.832zm-3.896-3.895l-1.424-1.425a14.43 14.43 0 0 0 3.574-9.512 14.43 14.43 0 0 0-3.574-9.512l1.424-1.424a16.433 16.433 0 0 1 4.149 10.936c0 4.197-1.569 8.025-4.149 10.937zm-3.899-3.9l-1.424-1.423a8.953 8.953 0 0 0 1.972-5.614c0-2.125-.74-4.074-1.972-5.614l1.424-1.423A10.952 10.952 0 0 1 21 14.999c0 2.678-.959 5.13-2.549 7.037zm-5.951.963c-.33 0-.633-.11-.88-.29l-.003.003-5.105-3.713H1.499a1.5 1.5 0 0 1-1.5-1.5v-5A1.5 1.5 0 0 1 1.496 11v-.005h4.973l5.081-4.156.004.004c.259-.211.585-.344.946-.344a1.5 1.5 0 0 1 1.499 1.5v13.5a1.5 1.5 0 0 1-1.499 1.5z"/></symbol><symbol id="zoom-in"><path fill-rule="evenodd" fill="#232323" d="M26 13.001v11.78c0 .673-.546 1.218-1.219 1.218H13c-7.18 0-13-5.82-13-12.999C0 5.82 5.82 0 13 0s13 5.82 13 13v.001zM13 2.437C7.166 2.437 2.437 7.166 2.437 13c0 5.833 4.729 10.562 10.563 10.562h.001c5.833-.001 10.561-4.729 10.561-10.562v-.001c0-5.833-4.729-10.562-10.562-10.562zm5.281 11.781h-4.062v4.063a1.218 1.218 0 0 1-2.438 0v-4.063H7.719a1.218 1.218 0 1 1 0-2.437h4.062V7.718a1.218 1.218 0 0 1 2.438 0v4.063h4.062a1.22 1.22 0 0 1 0 2.437z"/></symbol></svg>