<svg 
  xmlns="http://www.w3.org/2000/svg"
  xmlns:xlink="http://www.w3.org/1999/xlink"
  width="32px" height="31px">
<path fill-rule="evenodd"  fill="rgb(255, 255, 255)"
  d="M31.378,13.214 L31.379,13.214 L23.320,19.044 L26.424,28.530 C26.473,28.678 26.499,28.835 26.499,28.999 C26.499,29.828 25.828,30.499 24.999,30.499 C24.671,30.499 24.368,30.393 24.121,30.214 L24.120,30.214 L15.999,24.340 L7.878,30.214 L7.878,30.214 C7.631,30.393 7.328,30.499 6.999,30.499 C6.171,30.499 5.499,29.828 5.499,28.999 C5.499,28.835 5.526,28.678 5.575,28.530 L8.679,19.044 L0.620,13.214 L0.620,13.214 C0.244,12.942 -0.001,12.499 -0.001,11.999 C-0.001,11.171 0.671,10.499 1.499,10.499 L1.499,10.499 L11.475,10.499 L14.565,1.059 C14.753,0.445 15.324,-0.001 15.999,-0.001 C16.674,-0.001 17.246,0.445 17.434,1.059 L20.523,10.499 L30.499,10.499 L30.499,10.499 C31.328,10.499 31.999,11.171 31.999,11.999 C31.999,12.499 31.754,12.942 31.378,13.214 Z"/>
</svg>