<svg 
  xmlns="http://www.w3.org/2000/svg"
  xmlns:xlink="http://www.w3.org/1999/xlink"
  width="32px" height="30px">
<path fill-rule="evenodd"  fill="rgb(255, 255, 255)"
  d="M26.246,29.831 L24.830,28.416 C28.042,24.868 30.000,20.162 30.000,14.999 C30.000,9.836 28.042,5.131 24.830,1.582 L26.246,0.167 C29.819,4.079 32.000,9.284 32.000,14.999 C32.000,20.715 29.819,25.920 26.246,29.831 ZM22.350,25.936 L20.926,24.511 C23.145,21.964 24.500,18.643 24.500,14.999 C24.500,11.355 23.145,8.034 20.926,5.487 L22.350,4.063 C24.930,6.975 26.499,10.802 26.499,14.999 C26.499,19.196 24.930,23.024 22.350,25.936 ZM18.451,22.036 L17.027,20.613 C18.259,19.073 18.999,17.124 18.999,14.999 C18.999,12.874 18.259,10.925 17.027,9.385 L18.451,7.962 C20.041,9.869 21.000,12.322 21.000,14.999 C21.000,17.677 20.041,20.129 18.451,22.036 ZM12.500,22.999 C12.170,22.999 11.867,22.889 11.620,22.709 L11.617,22.712 L6.512,18.999 L1.499,18.999 C0.671,18.999 -0.001,18.328 -0.001,17.499 L-0.001,12.499 C-0.001,11.672 0.669,11.002 1.496,11.000 L1.496,10.995 L6.469,10.995 L11.550,6.839 L11.554,6.843 C11.813,6.632 12.139,6.499 12.500,6.499 C13.328,6.499 13.999,7.171 13.999,7.999 L13.999,12.499 L13.999,15.999 L13.999,17.499 L13.999,18.999 L13.999,21.499 C13.999,22.328 13.328,22.999 12.500,22.999 Z"/>
</svg>