<svg 
  xmlns="http://www.w3.org/2000/svg"
  xmlns:xlink="http://www.w3.org/1999/xlink"
  width="26px" height="26px">
<path fill-rule="evenodd"  fill="rgb(35, 35, 35)"
  d="M26.000,13.001 L26.000,24.781 C26.000,25.454 25.454,25.999 24.781,25.999 L13.003,25.999 C13.002,25.999 13.001,25.999 13.000,25.999 C5.820,25.999 -0.000,20.179 -0.000,13.000 C-0.000,5.820 5.820,-0.000 13.000,-0.000 C20.180,-0.000 26.000,5.820 26.000,13.000 C26.000,13.000 26.000,13.000 26.000,13.001 ZM13.000,2.437 C7.166,2.437 2.437,7.166 2.437,13.000 C2.437,18.833 7.166,23.562 13.000,23.562 L13.000,23.562 L13.001,23.562 C18.834,23.561 23.562,18.833 23.562,13.000 L23.562,12.999 L23.562,12.999 C23.562,7.166 18.833,2.437 13.000,2.437 ZM18.281,14.218 L14.219,14.218 L14.219,18.281 C14.219,18.954 13.673,19.499 13.000,19.499 C12.327,19.499 11.781,18.954 11.781,18.281 L11.781,14.218 L7.719,14.218 C7.045,14.218 6.500,13.673 6.500,13.000 C6.500,12.327 7.045,11.781 7.719,11.781 L11.781,11.781 L11.781,7.718 C11.781,7.045 12.327,6.500 13.000,6.500 C13.673,6.500 14.219,7.045 14.219,7.718 L14.219,11.781 L18.281,11.781 C18.954,11.781 19.500,12.327 19.500,13.000 C19.500,13.673 18.954,14.218 18.281,14.218 Z"/>
</svg>